%TF.GenerationSoftware,KiCad,Pcbnew,10.0.5*%
%TF.CreationDate,2026-08-29T22:56:13+05:30*%
%TF.ProjectId,kicad,6b696361-642e-46b6-9963-61645f706362,rev?*%
%TF.SameCoordinates,Original*%
%TF.FileFunction,Profile,NP*%
%FSLAX46Y46*%
G04 Gerber Fmt 4.6, Leading zero omitted, Abs format (unit mm)*
G04 Created by KiCad (PCBNEW 10.0.5) date 2026-08-29 22:56:13*
%MOMM*%
%LPD*%
G01*
G04 APERTURE LIST*
%TA.AperFunction,Profile*%
%ADD10C,0.050000*%
%TD*%
%TA.AperFunction,Profile*%
%ADD11C,0.100000*%
%TD*%
%TA.AperFunction,Profile*%
%ADD12C,0.120000*%
%TD*%
G04 APERTURE END LIST*
D10*
X37169876Y-73437500D02*
X37169876Y-169450000D01*
X37169876Y-73437500D02*
G75*
G02*
X39169876Y-71437476I2000024J0D01*
G01*
X39169876Y-171450000D02*
G75*
G02*
X37169900Y-169450000I24J2000000D01*
G01*
X39169876Y-171450000D02*
X215075000Y-171450000D01*
X215075000Y-71437500D02*
X39169876Y-71437500D01*
X215075000Y-71437500D02*
G75*
G02*
X217075000Y-73437500I0J-2000000D01*
G01*
X217075000Y-82193750D02*
X217075000Y-73437500D01*
X217075000Y-86193750D02*
X217075000Y-98012500D01*
X217075000Y-102012500D02*
X217075000Y-114681250D01*
X217075000Y-118681250D02*
X217075000Y-131350000D01*
X217075000Y-135350000D02*
X217075000Y-148018750D01*
X217075000Y-152018750D02*
X217075000Y-162306250D01*
X217075000Y-166306250D02*
X217075000Y-169450000D01*
X217075000Y-169450000D02*
G75*
G02*
X215075000Y-171450000I-2000000J0D01*
G01*
X219075000Y-73437500D02*
G75*
G02*
X221075000Y-71437500I2000000J0D01*
G01*
X219075000Y-82193750D02*
X219075000Y-73437500D01*
X219075000Y-86193750D02*
X219075000Y-98012500D01*
X219075000Y-102012500D02*
X219075000Y-114681250D01*
X219075000Y-118681250D02*
X219075000Y-131350000D01*
X219075000Y-135350000D02*
X219075000Y-148018750D01*
X219075000Y-152018750D02*
X219075000Y-162306250D01*
X219075000Y-166306250D02*
X219075000Y-169450000D01*
X221075000Y-71437500D02*
X387683459Y-71437500D01*
X221075000Y-171450000D02*
G75*
G02*
X219075000Y-169450000I0J2000000D01*
G01*
X387683459Y-71437500D02*
G75*
G02*
X389683500Y-73437500I41J-2000000D01*
G01*
X387683459Y-171450000D02*
X221075000Y-171450000D01*
X389683459Y-73437500D02*
X389683459Y-169450000D01*
X389683459Y-169450000D02*
G75*
G02*
X387683459Y-171449959I-1999959J0D01*
G01*
%TO.C,REF\u002A\u002A*%
D11*
X217075000Y-135350000D02*
G75*
G02*
X219075000Y-135350000I1000000J0D01*
G01*
X219075000Y-131350000D02*
G75*
G02*
X217075000Y-131350000I-1000000J0D01*
G01*
X217075000Y-152018750D02*
G75*
G02*
X219075000Y-152018750I1000000J0D01*
G01*
X219075000Y-148018750D02*
G75*
G02*
X217075000Y-148018750I-1000000J0D01*
G01*
X217075000Y-102012500D02*
G75*
G02*
X219075000Y-102012500I1000000J0D01*
G01*
X219075000Y-98012500D02*
G75*
G02*
X217075000Y-98012500I-1000000J0D01*
G01*
X217075000Y-86193750D02*
G75*
G02*
X219075000Y-86193750I1000000J0D01*
G01*
X219075000Y-82193750D02*
G75*
G02*
X217075000Y-82193750I-1000000J0D01*
G01*
X217075000Y-118681250D02*
G75*
G02*
X219075000Y-118681250I1000000J0D01*
G01*
X219075000Y-114681250D02*
G75*
G02*
X217075000Y-114681250I-1000000J0D01*
G01*
X217075000Y-166306250D02*
G75*
G02*
X219075000Y-166306250I1000000J0D01*
G01*
X219075000Y-162306250D02*
G75*
G02*
X217075000Y-162306250I-1000000J0D01*
G01*
%TO.C,D50*%
D12*
X148636250Y-107156250D02*
X148636250Y-106455897D01*
X148636250Y-107156250D02*
X148636250Y-107856603D01*
X150336250Y-105656250D02*
X149435897Y-105656250D01*
X150336250Y-105656250D02*
X151236603Y-105656250D01*
X150336250Y-108656250D02*
X149435897Y-108656250D01*
X150336250Y-108656250D02*
X151236603Y-108656250D01*
X152036250Y-107156250D02*
X152036250Y-106455897D01*
X152036250Y-107156250D02*
X152036250Y-107856603D01*
X148592316Y-106299595D02*
G75*
G02*
X148636226Y-106455897I-256066J-156255D01*
G01*
X148592316Y-106299595D02*
G75*
G02*
X149279595Y-105612316I426774J260505D01*
G01*
X148636250Y-107856603D02*
G75*
G02*
X148592315Y-108012904I-299680J-87D01*
G01*
X149279595Y-108700184D02*
G75*
G02*
X148592316Y-108012905I-260505J426774D01*
G01*
X149279595Y-108700184D02*
G75*
G02*
X149435897Y-108656274I156255J-256066D01*
G01*
X149435897Y-105656250D02*
G75*
G02*
X149279594Y-105612317I3J300020D01*
G01*
X151236603Y-108656250D02*
G75*
G02*
X151392905Y-108700184I3J-299992D01*
G01*
X151392905Y-105612316D02*
G75*
G02*
X151236603Y-105656250I-156299J256058D01*
G01*
X151392905Y-105612316D02*
G75*
G02*
X152080184Y-106299595I260503J-426776D01*
G01*
X152036250Y-106455897D02*
G75*
G02*
X152080184Y-106299595I299992J3D01*
G01*
X152080184Y-108012905D02*
G75*
G02*
X151392905Y-108700184I-426776J-260503D01*
G01*
X152080184Y-108012905D02*
G75*
G02*
X152036250Y-107856603I256058J156299D01*
G01*
%TO.C,D127*%
X265317500Y-145256250D02*
X265317500Y-144555897D01*
X265317500Y-145256250D02*
X265317500Y-145956603D01*
X267017500Y-143756250D02*
X266117147Y-143756250D01*
X267017500Y-143756250D02*
X267917853Y-143756250D01*
X267017500Y-146756250D02*
X266117147Y-146756250D01*
X267017500Y-146756250D02*
X267917853Y-146756250D01*
X268717500Y-145256250D02*
X268717500Y-144555897D01*
X268717500Y-145256250D02*
X268717500Y-145956603D01*
X265273566Y-144399595D02*
G75*
G02*
X265317476Y-144555897I-256066J-156255D01*
G01*
X265273566Y-144399595D02*
G75*
G02*
X265960845Y-143712316I426774J260505D01*
G01*
X265317500Y-145956603D02*
G75*
G02*
X265273565Y-146112904I-299680J-87D01*
G01*
X265960845Y-146800184D02*
G75*
G02*
X265273566Y-146112905I-260505J426774D01*
G01*
X265960845Y-146800184D02*
G75*
G02*
X266117147Y-146756274I156255J-256066D01*
G01*
X266117147Y-143756250D02*
G75*
G02*
X265960844Y-143712317I3J300020D01*
G01*
X267917853Y-146756250D02*
G75*
G02*
X268074155Y-146800184I3J-299992D01*
G01*
X268074155Y-143712316D02*
G75*
G02*
X267917853Y-143756250I-156299J256058D01*
G01*
X268074155Y-143712316D02*
G75*
G02*
X268761434Y-144399595I260503J-426776D01*
G01*
X268717500Y-144555897D02*
G75*
G02*
X268761434Y-144399595I299992J3D01*
G01*
X268761434Y-146112905D02*
G75*
G02*
X268074155Y-146800184I-426776J-260503D01*
G01*
X268761434Y-146112905D02*
G75*
G02*
X268717500Y-145956603I256058J156299D01*
G01*
%TO.C,D71*%
X148636250Y-164500000D02*
X148636250Y-163799647D01*
X148636250Y-164500000D02*
X148636250Y-165200353D01*
X150336250Y-163000000D02*
X149435897Y-163000000D01*
X150336250Y-163000000D02*
X151236603Y-163000000D01*
X150336250Y-166000000D02*
X149435897Y-166000000D01*
X150336250Y-166000000D02*
X151236603Y-166000000D01*
X152036250Y-164500000D02*
X152036250Y-163799647D01*
X152036250Y-164500000D02*
X152036250Y-165200353D01*
X148592316Y-163643345D02*
G75*
G02*
X148636226Y-163799647I-256066J-156255D01*
G01*
X148592316Y-163643345D02*
G75*
G02*
X149279595Y-162956066I426774J260505D01*
G01*
X148636250Y-165200353D02*
G75*
G02*
X148592315Y-165356654I-299680J-87D01*
G01*
X149279595Y-166043934D02*
G75*
G02*
X148592316Y-165356655I-260505J426774D01*
G01*
X149279595Y-166043934D02*
G75*
G02*
X149435897Y-166000024I156255J-256066D01*
G01*
X149435897Y-163000000D02*
G75*
G02*
X149279594Y-162956067I3J300020D01*
G01*
X151236603Y-166000000D02*
G75*
G02*
X151392905Y-166043934I3J-299992D01*
G01*
X151392905Y-162956066D02*
G75*
G02*
X151236603Y-163000000I-156299J256058D01*
G01*
X151392905Y-162956066D02*
G75*
G02*
X152080184Y-163643345I260503J-426776D01*
G01*
X152036250Y-163799647D02*
G75*
G02*
X152080184Y-163643345I299992J3D01*
G01*
X152080184Y-165356655D02*
G75*
G02*
X151392905Y-166043934I-426776J-260503D01*
G01*
X152080184Y-165356655D02*
G75*
G02*
X152036250Y-165200353I256058J156299D01*
G01*
%TO.C,D40*%
X124823750Y-88106250D02*
X124823750Y-87405897D01*
X124823750Y-88106250D02*
X124823750Y-88806603D01*
X126523750Y-86606250D02*
X125623397Y-86606250D01*
X126523750Y-86606250D02*
X127424103Y-86606250D01*
X126523750Y-89606250D02*
X125623397Y-89606250D01*
X126523750Y-89606250D02*
X127424103Y-89606250D01*
X128223750Y-88106250D02*
X128223750Y-87405897D01*
X128223750Y-88106250D02*
X128223750Y-88806603D01*
X124779816Y-87249595D02*
G75*
G02*
X124823726Y-87405897I-256066J-156255D01*
G01*
X124779816Y-87249595D02*
G75*
G02*
X125467095Y-86562316I426774J260505D01*
G01*
X124823750Y-88806603D02*
G75*
G02*
X124779815Y-88962904I-299680J-87D01*
G01*
X125467095Y-89650184D02*
G75*
G02*
X124779816Y-88962905I-260505J426774D01*
G01*
X125467095Y-89650184D02*
G75*
G02*
X125623397Y-89606274I156255J-256066D01*
G01*
X125623397Y-86606250D02*
G75*
G02*
X125467094Y-86562317I3J300020D01*
G01*
X127424103Y-89606250D02*
G75*
G02*
X127580405Y-89650184I3J-299992D01*
G01*
X127580405Y-86562316D02*
G75*
G02*
X127424103Y-86606250I-156299J256058D01*
G01*
X127580405Y-86562316D02*
G75*
G02*
X128267684Y-87249595I260503J-426776D01*
G01*
X128223750Y-87405897D02*
G75*
G02*
X128267684Y-87249595I299992J3D01*
G01*
X128267684Y-88962905D02*
G75*
G02*
X127580405Y-89650184I-426776J-260503D01*
G01*
X128267684Y-88962905D02*
G75*
G02*
X128223750Y-88806603I256058J156299D01*
G01*
%TO.C,D119*%
X353423750Y-107156250D02*
X353423750Y-106455897D01*
X353423750Y-107156250D02*
X353423750Y-107856603D01*
X355123750Y-105656250D02*
X354223397Y-105656250D01*
X355123750Y-105656250D02*
X356024103Y-105656250D01*
X355123750Y-108656250D02*
X354223397Y-108656250D01*
X355123750Y-108656250D02*
X356024103Y-108656250D01*
X356823750Y-107156250D02*
X356823750Y-106455897D01*
X356823750Y-107156250D02*
X356823750Y-107856603D01*
X353379816Y-106299595D02*
G75*
G02*
X353423726Y-106455897I-256066J-156255D01*
G01*
X353379816Y-106299595D02*
G75*
G02*
X354067095Y-105612316I426774J260505D01*
G01*
X353423750Y-107856603D02*
G75*
G02*
X353379815Y-108012904I-299680J-87D01*
G01*
X354067095Y-108700184D02*
G75*
G02*
X353379816Y-108012905I-260505J426774D01*
G01*
X354067095Y-108700184D02*
G75*
G02*
X354223397Y-108656274I156255J-256066D01*
G01*
X354223397Y-105656250D02*
G75*
G02*
X354067094Y-105612317I3J300020D01*
G01*
X356024103Y-108656250D02*
G75*
G02*
X356180405Y-108700184I3J-299992D01*
G01*
X356180405Y-105612316D02*
G75*
G02*
X356024103Y-105656250I-156299J256058D01*
G01*
X356180405Y-105612316D02*
G75*
G02*
X356867684Y-106299595I260503J-426776D01*
G01*
X356823750Y-106455897D02*
G75*
G02*
X356867684Y-106299595I299992J3D01*
G01*
X356867684Y-108012905D02*
G75*
G02*
X356180405Y-108700184I-426776J-260503D01*
G01*
X356867684Y-108012905D02*
G75*
G02*
X356823750Y-107856603I256058J156299D01*
G01*
%TO.C,D41*%
X143873750Y-88106250D02*
X143873750Y-87405897D01*
X143873750Y-88106250D02*
X143873750Y-88806603D01*
X145573750Y-86606250D02*
X144673397Y-86606250D01*
X145573750Y-86606250D02*
X146474103Y-86606250D01*
X145573750Y-89606250D02*
X144673397Y-89606250D01*
X145573750Y-89606250D02*
X146474103Y-89606250D01*
X147273750Y-88106250D02*
X147273750Y-87405897D01*
X147273750Y-88106250D02*
X147273750Y-88806603D01*
X143829816Y-87249595D02*
G75*
G02*
X143873726Y-87405897I-256066J-156255D01*
G01*
X143829816Y-87249595D02*
G75*
G02*
X144517095Y-86562316I426774J260505D01*
G01*
X143873750Y-88806603D02*
G75*
G02*
X143829815Y-88962904I-299680J-87D01*
G01*
X144517095Y-89650184D02*
G75*
G02*
X143829816Y-88962905I-260505J426774D01*
G01*
X144517095Y-89650184D02*
G75*
G02*
X144673397Y-89606274I156255J-256066D01*
G01*
X144673397Y-86606250D02*
G75*
G02*
X144517094Y-86562317I3J300020D01*
G01*
X146474103Y-89606250D02*
G75*
G02*
X146630405Y-89650184I3J-299992D01*
G01*
X146630405Y-86562316D02*
G75*
G02*
X146474103Y-86606250I-156299J256058D01*
G01*
X146630405Y-86562316D02*
G75*
G02*
X147317684Y-87249595I260503J-426776D01*
G01*
X147273750Y-87405897D02*
G75*
G02*
X147317684Y-87249595I299992J3D01*
G01*
X147317684Y-88962905D02*
G75*
G02*
X146630405Y-89650184I-426776J-260503D01*
G01*
X147317684Y-88962905D02*
G75*
G02*
X147273750Y-88806603I256058J156299D01*
G01*
%TO.C,D42*%
X162923750Y-88106250D02*
X162923750Y-87405897D01*
X162923750Y-88106250D02*
X162923750Y-88806603D01*
X164623750Y-86606250D02*
X163723397Y-86606250D01*
X164623750Y-86606250D02*
X165524103Y-86606250D01*
X164623750Y-89606250D02*
X163723397Y-89606250D01*
X164623750Y-89606250D02*
X165524103Y-89606250D01*
X166323750Y-88106250D02*
X166323750Y-87405897D01*
X166323750Y-88106250D02*
X166323750Y-88806603D01*
X162879816Y-87249595D02*
G75*
G02*
X162923726Y-87405897I-256066J-156255D01*
G01*
X162879816Y-87249595D02*
G75*
G02*
X163567095Y-86562316I426774J260505D01*
G01*
X162923750Y-88806603D02*
G75*
G02*
X162879815Y-88962904I-299680J-87D01*
G01*
X163567095Y-89650184D02*
G75*
G02*
X162879816Y-88962905I-260505J426774D01*
G01*
X163567095Y-89650184D02*
G75*
G02*
X163723397Y-89606274I156255J-256066D01*
G01*
X163723397Y-86606250D02*
G75*
G02*
X163567094Y-86562317I3J300020D01*
G01*
X165524103Y-89606250D02*
G75*
G02*
X165680405Y-89650184I3J-299992D01*
G01*
X165680405Y-86562316D02*
G75*
G02*
X165524103Y-86606250I-156299J256058D01*
G01*
X165680405Y-86562316D02*
G75*
G02*
X166367684Y-87249595I260503J-426776D01*
G01*
X166323750Y-87405897D02*
G75*
G02*
X166367684Y-87249595I299992J3D01*
G01*
X166367684Y-88962905D02*
G75*
G02*
X165680405Y-89650184I-426776J-260503D01*
G01*
X166367684Y-88962905D02*
G75*
G02*
X166323750Y-88806603I256058J156299D01*
G01*
%TO.C,D134*%
X284367500Y-164306250D02*
X284367500Y-163605897D01*
X284367500Y-164306250D02*
X284367500Y-165006603D01*
X286067500Y-162806250D02*
X285167147Y-162806250D01*
X286067500Y-162806250D02*
X286967853Y-162806250D01*
X286067500Y-165806250D02*
X285167147Y-165806250D01*
X286067500Y-165806250D02*
X286967853Y-165806250D01*
X287767500Y-164306250D02*
X287767500Y-163605897D01*
X287767500Y-164306250D02*
X287767500Y-165006603D01*
X284323566Y-163449595D02*
G75*
G02*
X284367476Y-163605897I-256066J-156255D01*
G01*
X284323566Y-163449595D02*
G75*
G02*
X285010845Y-162762316I426774J260505D01*
G01*
X284367500Y-165006603D02*
G75*
G02*
X284323565Y-165162904I-299680J-87D01*
G01*
X285010845Y-165850184D02*
G75*
G02*
X284323566Y-165162905I-260505J426774D01*
G01*
X285010845Y-165850184D02*
G75*
G02*
X285167147Y-165806274I156255J-256066D01*
G01*
X285167147Y-162806250D02*
G75*
G02*
X285010844Y-162762317I3J300020D01*
G01*
X286967853Y-165806250D02*
G75*
G02*
X287124155Y-165850184I3J-299992D01*
G01*
X287124155Y-162762316D02*
G75*
G02*
X286967853Y-162806250I-156299J256058D01*
G01*
X287124155Y-162762316D02*
G75*
G02*
X287811434Y-163449595I260503J-426776D01*
G01*
X287767500Y-163605897D02*
G75*
G02*
X287811434Y-163449595I299992J3D01*
G01*
X287811434Y-165162905D02*
G75*
G02*
X287124155Y-165850184I-426776J-260503D01*
G01*
X287811434Y-165162905D02*
G75*
G02*
X287767500Y-165006603I256058J156299D01*
G01*
%TO.C,D137*%
X355805000Y-164306250D02*
X355805000Y-163605897D01*
X355805000Y-164306250D02*
X355805000Y-165006603D01*
X357505000Y-162806250D02*
X356604647Y-162806250D01*
X357505000Y-162806250D02*
X358405353Y-162806250D01*
X357505000Y-165806250D02*
X356604647Y-165806250D01*
X357505000Y-165806250D02*
X358405353Y-165806250D01*
X359205000Y-164306250D02*
X359205000Y-163605897D01*
X359205000Y-164306250D02*
X359205000Y-165006603D01*
X355761066Y-163449595D02*
G75*
G02*
X355804976Y-163605897I-256066J-156255D01*
G01*
X355761066Y-163449595D02*
G75*
G02*
X356448345Y-162762316I426774J260505D01*
G01*
X355805000Y-165006603D02*
G75*
G02*
X355761065Y-165162904I-299680J-87D01*
G01*
X356448345Y-165850184D02*
G75*
G02*
X355761066Y-165162905I-260505J426774D01*
G01*
X356448345Y-165850184D02*
G75*
G02*
X356604647Y-165806274I156255J-256066D01*
G01*
X356604647Y-162806250D02*
G75*
G02*
X356448344Y-162762317I3J300020D01*
G01*
X358405353Y-165806250D02*
G75*
G02*
X358561655Y-165850184I3J-299992D01*
G01*
X358561655Y-162762316D02*
G75*
G02*
X358405353Y-162806250I-156299J256058D01*
G01*
X358561655Y-162762316D02*
G75*
G02*
X359248934Y-163449595I260503J-426776D01*
G01*
X359205000Y-163605897D02*
G75*
G02*
X359248934Y-163449595I299992J3D01*
G01*
X359248934Y-165162905D02*
G75*
G02*
X358561655Y-165850184I-426776J-260503D01*
G01*
X359248934Y-165162905D02*
G75*
G02*
X359205000Y-165006603I256058J156299D01*
G01*
%TO.C,D37*%
X67673750Y-88106250D02*
X67673750Y-87405897D01*
X67673750Y-88106250D02*
X67673750Y-88806603D01*
X69373750Y-86606250D02*
X68473397Y-86606250D01*
X69373750Y-86606250D02*
X70274103Y-86606250D01*
X69373750Y-89606250D02*
X68473397Y-89606250D01*
X69373750Y-89606250D02*
X70274103Y-89606250D01*
X71073750Y-88106250D02*
X71073750Y-87405897D01*
X71073750Y-88106250D02*
X71073750Y-88806603D01*
X67629816Y-87249595D02*
G75*
G02*
X67673726Y-87405897I-256066J-156255D01*
G01*
X67629816Y-87249595D02*
G75*
G02*
X68317095Y-86562316I426774J260505D01*
G01*
X67673750Y-88806603D02*
G75*
G02*
X67629815Y-88962904I-299680J-87D01*
G01*
X68317095Y-89650184D02*
G75*
G02*
X67629816Y-88962905I-260505J426774D01*
G01*
X68317095Y-89650184D02*
G75*
G02*
X68473397Y-89606274I156255J-256066D01*
G01*
X68473397Y-86606250D02*
G75*
G02*
X68317094Y-86562317I3J300020D01*
G01*
X70274103Y-89606250D02*
G75*
G02*
X70430405Y-89650184I3J-299992D01*
G01*
X70430405Y-86562316D02*
G75*
G02*
X70274103Y-86606250I-156299J256058D01*
G01*
X70430405Y-86562316D02*
G75*
G02*
X71117684Y-87249595I260503J-426776D01*
G01*
X71073750Y-87405897D02*
G75*
G02*
X71117684Y-87249595I299992J3D01*
G01*
X71117684Y-88962905D02*
G75*
G02*
X70430405Y-89650184I-426776J-260503D01*
G01*
X71117684Y-88962905D02*
G75*
G02*
X71073750Y-88806603I256058J156299D01*
G01*
%TO.C,D63*%
X101011250Y-145256250D02*
X101011250Y-144555897D01*
X101011250Y-145256250D02*
X101011250Y-145956603D01*
X102711250Y-143756250D02*
X101810897Y-143756250D01*
X102711250Y-143756250D02*
X103611603Y-143756250D01*
X102711250Y-146756250D02*
X101810897Y-146756250D01*
X102711250Y-146756250D02*
X103611603Y-146756250D01*
X104411250Y-145256250D02*
X104411250Y-144555897D01*
X104411250Y-145256250D02*
X104411250Y-145956603D01*
X100967316Y-144399595D02*
G75*
G02*
X101011226Y-144555897I-256066J-156255D01*
G01*
X100967316Y-144399595D02*
G75*
G02*
X101654595Y-143712316I426774J260505D01*
G01*
X101011250Y-145956603D02*
G75*
G02*
X100967315Y-146112904I-299680J-87D01*
G01*
X101654595Y-146800184D02*
G75*
G02*
X100967316Y-146112905I-260505J426774D01*
G01*
X101654595Y-146800184D02*
G75*
G02*
X101810897Y-146756274I156255J-256066D01*
G01*
X101810897Y-143756250D02*
G75*
G02*
X101654594Y-143712317I3J300020D01*
G01*
X103611603Y-146756250D02*
G75*
G02*
X103767905Y-146800184I3J-299992D01*
G01*
X103767905Y-143712316D02*
G75*
G02*
X103611603Y-143756250I-156299J256058D01*
G01*
X103767905Y-143712316D02*
G75*
G02*
X104455184Y-144399595I260503J-426776D01*
G01*
X104411250Y-144555897D02*
G75*
G02*
X104455184Y-144399595I299992J3D01*
G01*
X104455184Y-146112905D02*
G75*
G02*
X103767905Y-146800184I-426776J-260503D01*
G01*
X104455184Y-146112905D02*
G75*
G02*
X104411250Y-145956603I256058J156299D01*
G01*
%TO.C,D67*%
X177211250Y-145256250D02*
X177211250Y-144555897D01*
X177211250Y-145256250D02*
X177211250Y-145956603D01*
X178911250Y-143756250D02*
X178010897Y-143756250D01*
X178911250Y-143756250D02*
X179811603Y-143756250D01*
X178911250Y-146756250D02*
X178010897Y-146756250D01*
X178911250Y-146756250D02*
X179811603Y-146756250D01*
X180611250Y-145256250D02*
X180611250Y-144555897D01*
X180611250Y-145256250D02*
X180611250Y-145956603D01*
X177167316Y-144399595D02*
G75*
G02*
X177211226Y-144555897I-256066J-156255D01*
G01*
X177167316Y-144399595D02*
G75*
G02*
X177854595Y-143712316I426774J260505D01*
G01*
X177211250Y-145956603D02*
G75*
G02*
X177167315Y-146112904I-299680J-87D01*
G01*
X177854595Y-146800184D02*
G75*
G02*
X177167316Y-146112905I-260505J426774D01*
G01*
X177854595Y-146800184D02*
G75*
G02*
X178010897Y-146756274I156255J-256066D01*
G01*
X178010897Y-143756250D02*
G75*
G02*
X177854594Y-143712317I3J300020D01*
G01*
X179811603Y-146756250D02*
G75*
G02*
X179967905Y-146800184I3J-299992D01*
G01*
X179967905Y-143712316D02*
G75*
G02*
X179811603Y-143756250I-156299J256058D01*
G01*
X179967905Y-143712316D02*
G75*
G02*
X180655184Y-144399595I260503J-426776D01*
G01*
X180611250Y-144555897D02*
G75*
G02*
X180655184Y-144399595I299992J3D01*
G01*
X180655184Y-146112905D02*
G75*
G02*
X179967905Y-146800184I-426776J-260503D01*
G01*
X180655184Y-146112905D02*
G75*
G02*
X180611250Y-145956603I256058J156299D01*
G01*
%TO.C,D128*%
X284367500Y-145256250D02*
X284367500Y-144555897D01*
X284367500Y-145256250D02*
X284367500Y-145956603D01*
X286067500Y-143756250D02*
X285167147Y-143756250D01*
X286067500Y-143756250D02*
X286967853Y-143756250D01*
X286067500Y-146756250D02*
X285167147Y-146756250D01*
X286067500Y-146756250D02*
X286967853Y-146756250D01*
X287767500Y-145256250D02*
X287767500Y-144555897D01*
X287767500Y-145256250D02*
X287767500Y-145956603D01*
X284323566Y-144399595D02*
G75*
G02*
X284367476Y-144555897I-256066J-156255D01*
G01*
X284323566Y-144399595D02*
G75*
G02*
X285010845Y-143712316I426774J260505D01*
G01*
X284367500Y-145956603D02*
G75*
G02*
X284323565Y-146112904I-299680J-87D01*
G01*
X285010845Y-146800184D02*
G75*
G02*
X284323566Y-146112905I-260505J426774D01*
G01*
X285010845Y-146800184D02*
G75*
G02*
X285167147Y-146756274I156255J-256066D01*
G01*
X285167147Y-143756250D02*
G75*
G02*
X285010844Y-143712317I3J300020D01*
G01*
X286967853Y-146756250D02*
G75*
G02*
X287124155Y-146800184I3J-299992D01*
G01*
X287124155Y-143712316D02*
G75*
G02*
X286967853Y-143756250I-156299J256058D01*
G01*
X287124155Y-143712316D02*
G75*
G02*
X287811434Y-144399595I260503J-426776D01*
G01*
X287767500Y-144555897D02*
G75*
G02*
X287811434Y-144399595I299992J3D01*
G01*
X287811434Y-146112905D02*
G75*
G02*
X287124155Y-146800184I-426776J-260503D01*
G01*
X287811434Y-146112905D02*
G75*
G02*
X287767500Y-145956603I256058J156299D01*
G01*
%TO.C,D122*%
X284367500Y-126206250D02*
X284367500Y-125505897D01*
X284367500Y-126206250D02*
X284367500Y-126906603D01*
X286067500Y-124706250D02*
X285167147Y-124706250D01*
X286067500Y-124706250D02*
X286967853Y-124706250D01*
X286067500Y-127706250D02*
X285167147Y-127706250D01*
X286067500Y-127706250D02*
X286967853Y-127706250D01*
X287767500Y-126206250D02*
X287767500Y-125505897D01*
X287767500Y-126206250D02*
X287767500Y-126906603D01*
X284323566Y-125349595D02*
G75*
G02*
X284367476Y-125505897I-256066J-156255D01*
G01*
X284323566Y-125349595D02*
G75*
G02*
X285010845Y-124662316I426774J260505D01*
G01*
X284367500Y-126906603D02*
G75*
G02*
X284323565Y-127062904I-299680J-87D01*
G01*
X285010845Y-127750184D02*
G75*
G02*
X284323566Y-127062905I-260505J426774D01*
G01*
X285010845Y-127750184D02*
G75*
G02*
X285167147Y-127706274I156255J-256066D01*
G01*
X285167147Y-124706250D02*
G75*
G02*
X285010844Y-124662317I3J300020D01*
G01*
X286967853Y-127706250D02*
G75*
G02*
X287124155Y-127750184I3J-299992D01*
G01*
X287124155Y-124662316D02*
G75*
G02*
X286967853Y-124706250I-156299J256058D01*
G01*
X287124155Y-124662316D02*
G75*
G02*
X287811434Y-125349595I260503J-426776D01*
G01*
X287767500Y-125505897D02*
G75*
G02*
X287811434Y-125349595I299992J3D01*
G01*
X287811434Y-127062905D02*
G75*
G02*
X287124155Y-127750184I-426776J-260503D01*
G01*
X287811434Y-127062905D02*
G75*
G02*
X287767500Y-126906603I256058J156299D01*
G01*
%TO.C,D112*%
X351042500Y-88106250D02*
X351042500Y-87405897D01*
X351042500Y-88106250D02*
X351042500Y-88806603D01*
X352742500Y-86606250D02*
X351842147Y-86606250D01*
X352742500Y-86606250D02*
X353642853Y-86606250D01*
X352742500Y-89606250D02*
X351842147Y-89606250D01*
X352742500Y-89606250D02*
X353642853Y-89606250D01*
X354442500Y-88106250D02*
X354442500Y-87405897D01*
X354442500Y-88106250D02*
X354442500Y-88806603D01*
X350998566Y-87249595D02*
G75*
G02*
X351042476Y-87405897I-256066J-156255D01*
G01*
X350998566Y-87249595D02*
G75*
G02*
X351685845Y-86562316I426774J260505D01*
G01*
X351042500Y-88806603D02*
G75*
G02*
X350998565Y-88962904I-299680J-87D01*
G01*
X351685845Y-89650184D02*
G75*
G02*
X350998566Y-88962905I-260505J426774D01*
G01*
X351685845Y-89650184D02*
G75*
G02*
X351842147Y-89606274I156255J-256066D01*
G01*
X351842147Y-86606250D02*
G75*
G02*
X351685844Y-86562317I3J300020D01*
G01*
X353642853Y-89606250D02*
G75*
G02*
X353799155Y-89650184I3J-299992D01*
G01*
X353799155Y-86562316D02*
G75*
G02*
X353642853Y-86606250I-156299J256058D01*
G01*
X353799155Y-86562316D02*
G75*
G02*
X354486434Y-87249595I260503J-426776D01*
G01*
X354442500Y-87405897D02*
G75*
G02*
X354486434Y-87249595I299992J3D01*
G01*
X354486434Y-88962905D02*
G75*
G02*
X353799155Y-89650184I-426776J-260503D01*
G01*
X354486434Y-88962905D02*
G75*
G02*
X354442500Y-88806603I256058J156299D01*
G01*
%TO.C,D45*%
X53386250Y-97631250D02*
X53386250Y-96930897D01*
X53386250Y-97631250D02*
X53386250Y-98331603D01*
X55086250Y-96131250D02*
X54185897Y-96131250D01*
X55086250Y-96131250D02*
X55986603Y-96131250D01*
X55086250Y-99131250D02*
X54185897Y-99131250D01*
X55086250Y-99131250D02*
X55986603Y-99131250D01*
X56786250Y-97631250D02*
X56786250Y-96930897D01*
X56786250Y-97631250D02*
X56786250Y-98331603D01*
X53342316Y-96774595D02*
G75*
G02*
X53386226Y-96930897I-256066J-156255D01*
G01*
X53342316Y-96774595D02*
G75*
G02*
X54029595Y-96087316I426774J260505D01*
G01*
X53386250Y-98331603D02*
G75*
G02*
X53342315Y-98487904I-299680J-87D01*
G01*
X54029595Y-99175184D02*
G75*
G02*
X53342316Y-98487905I-260505J426774D01*
G01*
X54029595Y-99175184D02*
G75*
G02*
X54185897Y-99131274I156255J-256066D01*
G01*
X54185897Y-96131250D02*
G75*
G02*
X54029594Y-96087317I3J300020D01*
G01*
X55986603Y-99131250D02*
G75*
G02*
X56142905Y-99175184I3J-299992D01*
G01*
X56142905Y-96087316D02*
G75*
G02*
X55986603Y-96131250I-156299J256058D01*
G01*
X56142905Y-96087316D02*
G75*
G02*
X56830184Y-96774595I260503J-426776D01*
G01*
X56786250Y-96930897D02*
G75*
G02*
X56830184Y-96774595I299992J3D01*
G01*
X56830184Y-98487905D02*
G75*
G02*
X56142905Y-99175184I-426776J-260503D01*
G01*
X56830184Y-98487905D02*
G75*
G02*
X56786250Y-98331603I256058J156299D01*
G01*
%TO.C,D138*%
X369007467Y-121609843D02*
X369007467Y-120709490D01*
X369007467Y-121609843D02*
X369007467Y-122510196D01*
X370507467Y-119909843D02*
X369807114Y-119909843D01*
X370507467Y-119909843D02*
X371207820Y-119909843D01*
X370507467Y-123309843D02*
X369807114Y-123309843D01*
X370507467Y-123309843D02*
X371207820Y-123309843D01*
X372007467Y-121609843D02*
X372007467Y-120709490D01*
X372007467Y-121609843D02*
X372007467Y-122510196D01*
X368963533Y-120553188D02*
G75*
G02*
X369007443Y-120709490I-256066J-156255D01*
G01*
X368963533Y-120553188D02*
G75*
G02*
X369650812Y-119865909I426774J260505D01*
G01*
X369007467Y-122510196D02*
G75*
G02*
X368963533Y-122666498I-299992J-3D01*
G01*
X369650812Y-123353777D02*
G75*
G02*
X368963533Y-122666498I-260503J426776D01*
G01*
X369650812Y-123353777D02*
G75*
G02*
X369807114Y-123309843I156299J-256058D01*
G01*
X369807114Y-119909843D02*
G75*
G02*
X369650813Y-119865908I-87J299680D01*
G01*
X371207820Y-123309843D02*
G75*
G02*
X371364122Y-123353777I3J-299992D01*
G01*
X371364122Y-119865909D02*
G75*
G02*
X371207820Y-119909819I-156255J256066D01*
G01*
X371364122Y-119865909D02*
G75*
G02*
X372051401Y-120553188I260505J-426774D01*
G01*
X372007467Y-120709490D02*
G75*
G02*
X372051400Y-120553187I300020J-3D01*
G01*
X372051401Y-122666498D02*
G75*
G02*
X371364122Y-123353777I-426776J-260503D01*
G01*
X372051401Y-122666498D02*
G75*
G02*
X372007467Y-122510196I256058J156299D01*
G01*
%TO.C,D61*%
X46242500Y-164306250D02*
X46242500Y-163605897D01*
X46242500Y-164306250D02*
X46242500Y-165006603D01*
X47942500Y-162806250D02*
X47042147Y-162806250D01*
X47942500Y-162806250D02*
X48842853Y-162806250D01*
X47942500Y-165806250D02*
X47042147Y-165806250D01*
X47942500Y-165806250D02*
X48842853Y-165806250D01*
X49642500Y-164306250D02*
X49642500Y-163605897D01*
X49642500Y-164306250D02*
X49642500Y-165006603D01*
X46198566Y-163449595D02*
G75*
G02*
X46242476Y-163605897I-256066J-156255D01*
G01*
X46198566Y-163449595D02*
G75*
G02*
X46885845Y-162762316I426774J260505D01*
G01*
X46242500Y-165006603D02*
G75*
G02*
X46198565Y-165162904I-299680J-87D01*
G01*
X46885845Y-165850184D02*
G75*
G02*
X46198566Y-165162905I-260505J426774D01*
G01*
X46885845Y-165850184D02*
G75*
G02*
X47042147Y-165806274I156255J-256066D01*
G01*
X47042147Y-162806250D02*
G75*
G02*
X46885844Y-162762317I3J300020D01*
G01*
X48842853Y-165806250D02*
G75*
G02*
X48999155Y-165850184I3J-299992D01*
G01*
X48999155Y-162762316D02*
G75*
G02*
X48842853Y-162806250I-156299J256058D01*
G01*
X48999155Y-162762316D02*
G75*
G02*
X49686434Y-163449595I260503J-426776D01*
G01*
X49642500Y-163605897D02*
G75*
G02*
X49686434Y-163449595I299992J3D01*
G01*
X49686434Y-165162905D02*
G75*
G02*
X48999155Y-165850184I-426776J-260503D01*
G01*
X49686434Y-165162905D02*
G75*
G02*
X49642500Y-165006603I256058J156299D01*
G01*
%TO.C,D69*%
X110536250Y-164306250D02*
X110536250Y-163605897D01*
X110536250Y-164306250D02*
X110536250Y-165006603D01*
X112236250Y-162806250D02*
X111335897Y-162806250D01*
X112236250Y-162806250D02*
X113136603Y-162806250D01*
X112236250Y-165806250D02*
X111335897Y-165806250D01*
X112236250Y-165806250D02*
X113136603Y-165806250D01*
X113936250Y-164306250D02*
X113936250Y-163605897D01*
X113936250Y-164306250D02*
X113936250Y-165006603D01*
X110492316Y-163449595D02*
G75*
G02*
X110536226Y-163605897I-256066J-156255D01*
G01*
X110492316Y-163449595D02*
G75*
G02*
X111179595Y-162762316I426774J260505D01*
G01*
X110536250Y-165006603D02*
G75*
G02*
X110492315Y-165162904I-299680J-87D01*
G01*
X111179595Y-165850184D02*
G75*
G02*
X110492316Y-165162905I-260505J426774D01*
G01*
X111179595Y-165850184D02*
G75*
G02*
X111335897Y-165806274I156255J-256066D01*
G01*
X111335897Y-162806250D02*
G75*
G02*
X111179594Y-162762317I3J300020D01*
G01*
X113136603Y-165806250D02*
G75*
G02*
X113292905Y-165850184I3J-299992D01*
G01*
X113292905Y-162762316D02*
G75*
G02*
X113136603Y-162806250I-156299J256058D01*
G01*
X113292905Y-162762316D02*
G75*
G02*
X113980184Y-163449595I260503J-426776D01*
G01*
X113936250Y-163605897D02*
G75*
G02*
X113980184Y-163449595I299992J3D01*
G01*
X113980184Y-165162905D02*
G75*
G02*
X113292905Y-165850184I-426776J-260503D01*
G01*
X113980184Y-165162905D02*
G75*
G02*
X113936250Y-165006603I256058J156299D01*
G01*
%TO.C,D109*%
X289130000Y-88106250D02*
X289130000Y-87405897D01*
X289130000Y-88106250D02*
X289130000Y-88806603D01*
X290830000Y-86606250D02*
X289929647Y-86606250D01*
X290830000Y-86606250D02*
X291730353Y-86606250D01*
X290830000Y-89606250D02*
X289929647Y-89606250D01*
X290830000Y-89606250D02*
X291730353Y-89606250D01*
X292530000Y-88106250D02*
X292530000Y-87405897D01*
X292530000Y-88106250D02*
X292530000Y-88806603D01*
X289086066Y-87249595D02*
G75*
G02*
X289129976Y-87405897I-256066J-156255D01*
G01*
X289086066Y-87249595D02*
G75*
G02*
X289773345Y-86562316I426774J260505D01*
G01*
X289130000Y-88806603D02*
G75*
G02*
X289086065Y-88962904I-299680J-87D01*
G01*
X289773345Y-89650184D02*
G75*
G02*
X289086066Y-88962905I-260505J426774D01*
G01*
X289773345Y-89650184D02*
G75*
G02*
X289929647Y-89606274I156255J-256066D01*
G01*
X289929647Y-86606250D02*
G75*
G02*
X289773344Y-86562317I3J300020D01*
G01*
X291730353Y-89606250D02*
G75*
G02*
X291886655Y-89650184I3J-299992D01*
G01*
X291886655Y-86562316D02*
G75*
G02*
X291730353Y-86606250I-156299J256058D01*
G01*
X291886655Y-86562316D02*
G75*
G02*
X292573934Y-87249595I260503J-426776D01*
G01*
X292530000Y-87405897D02*
G75*
G02*
X292573934Y-87249595I299992J3D01*
G01*
X292573934Y-88962905D02*
G75*
G02*
X291886655Y-89650184I-426776J-260503D01*
G01*
X292573934Y-88962905D02*
G75*
G02*
X292530000Y-88806603I256058J156299D01*
G01*
%TO.C,D52*%
X186736250Y-107156250D02*
X186736250Y-106455897D01*
X186736250Y-107156250D02*
X186736250Y-107856603D01*
X188436250Y-105656250D02*
X187535897Y-105656250D01*
X188436250Y-105656250D02*
X189336603Y-105656250D01*
X188436250Y-108656250D02*
X187535897Y-108656250D01*
X188436250Y-108656250D02*
X189336603Y-108656250D01*
X190136250Y-107156250D02*
X190136250Y-106455897D01*
X190136250Y-107156250D02*
X190136250Y-107856603D01*
X186692316Y-106299595D02*
G75*
G02*
X186736226Y-106455897I-256066J-156255D01*
G01*
X186692316Y-106299595D02*
G75*
G02*
X187379595Y-105612316I426774J260505D01*
G01*
X186736250Y-107856603D02*
G75*
G02*
X186692315Y-108012904I-299680J-87D01*
G01*
X187379595Y-108700184D02*
G75*
G02*
X186692316Y-108012905I-260505J426774D01*
G01*
X187379595Y-108700184D02*
G75*
G02*
X187535897Y-108656274I156255J-256066D01*
G01*
X187535897Y-105656250D02*
G75*
G02*
X187379594Y-105612317I3J300020D01*
G01*
X189336603Y-108656250D02*
G75*
G02*
X189492905Y-108700184I3J-299992D01*
G01*
X189492905Y-105612316D02*
G75*
G02*
X189336603Y-105656250I-156299J256058D01*
G01*
X189492905Y-105612316D02*
G75*
G02*
X190180184Y-106299595I260503J-426776D01*
G01*
X190136250Y-106455897D02*
G75*
G02*
X190180184Y-106299595I299992J3D01*
G01*
X190180184Y-108012905D02*
G75*
G02*
X189492905Y-108700184I-426776J-260503D01*
G01*
X190180184Y-108012905D02*
G75*
G02*
X190136250Y-107856603I256058J156299D01*
G01*
%TO.C,D133*%
X265317500Y-164306250D02*
X265317500Y-163605897D01*
X265317500Y-164306250D02*
X265317500Y-165006603D01*
X267017500Y-162806250D02*
X266117147Y-162806250D01*
X267017500Y-162806250D02*
X267917853Y-162806250D01*
X267017500Y-165806250D02*
X266117147Y-165806250D01*
X267017500Y-165806250D02*
X267917853Y-165806250D01*
X268717500Y-164306250D02*
X268717500Y-163605897D01*
X268717500Y-164306250D02*
X268717500Y-165006603D01*
X265273566Y-163449595D02*
G75*
G02*
X265317476Y-163605897I-256066J-156255D01*
G01*
X265273566Y-163449595D02*
G75*
G02*
X265960845Y-162762316I426774J260505D01*
G01*
X265317500Y-165006603D02*
G75*
G02*
X265273565Y-165162904I-299680J-87D01*
G01*
X265960845Y-165850184D02*
G75*
G02*
X265273566Y-165162905I-260505J426774D01*
G01*
X265960845Y-165850184D02*
G75*
G02*
X266117147Y-165806274I156255J-256066D01*
G01*
X266117147Y-162806250D02*
G75*
G02*
X265960844Y-162762317I3J300020D01*
G01*
X267917853Y-165806250D02*
G75*
G02*
X268074155Y-165850184I3J-299992D01*
G01*
X268074155Y-162762316D02*
G75*
G02*
X267917853Y-162806250I-156299J256058D01*
G01*
X268074155Y-162762316D02*
G75*
G02*
X268761434Y-163449595I260503J-426776D01*
G01*
X268717500Y-163605897D02*
G75*
G02*
X268761434Y-163449595I299992J3D01*
G01*
X268761434Y-165162905D02*
G75*
G02*
X268074155Y-165850184I-426776J-260503D01*
G01*
X268761434Y-165162905D02*
G75*
G02*
X268717500Y-165006603I256058J156299D01*
G01*
%TO.C,D57*%
X134348750Y-126206250D02*
X134348750Y-125505897D01*
X134348750Y-126206250D02*
X134348750Y-126906603D01*
X136048750Y-124706250D02*
X135148397Y-124706250D01*
X136048750Y-124706250D02*
X136949103Y-124706250D01*
X136048750Y-127706250D02*
X135148397Y-127706250D01*
X136048750Y-127706250D02*
X136949103Y-127706250D01*
X137748750Y-126206250D02*
X137748750Y-125505897D01*
X137748750Y-126206250D02*
X137748750Y-126906603D01*
X134304816Y-125349595D02*
G75*
G02*
X134348726Y-125505897I-256066J-156255D01*
G01*
X134304816Y-125349595D02*
G75*
G02*
X134992095Y-124662316I426774J260505D01*
G01*
X134348750Y-126906603D02*
G75*
G02*
X134304815Y-127062904I-299680J-87D01*
G01*
X134992095Y-127750184D02*
G75*
G02*
X134304816Y-127062905I-260505J426774D01*
G01*
X134992095Y-127750184D02*
G75*
G02*
X135148397Y-127706274I156255J-256066D01*
G01*
X135148397Y-124706250D02*
G75*
G02*
X134992094Y-124662317I3J300020D01*
G01*
X136949103Y-127706250D02*
G75*
G02*
X137105405Y-127750184I3J-299992D01*
G01*
X137105405Y-124662316D02*
G75*
G02*
X136949103Y-124706250I-156299J256058D01*
G01*
X137105405Y-124662316D02*
G75*
G02*
X137792684Y-125349595I260503J-426776D01*
G01*
X137748750Y-125505897D02*
G75*
G02*
X137792684Y-125349595I299992J3D01*
G01*
X137792684Y-127062905D02*
G75*
G02*
X137105405Y-127750184I-426776J-260503D01*
G01*
X137792684Y-127062905D02*
G75*
G02*
X137748750Y-126906603I256058J156299D01*
G01*
%TO.C,D117*%
X312942500Y-107156250D02*
X312942500Y-106455897D01*
X312942500Y-107156250D02*
X312942500Y-107856603D01*
X314642500Y-105656250D02*
X313742147Y-105656250D01*
X314642500Y-105656250D02*
X315542853Y-105656250D01*
X314642500Y-108656250D02*
X313742147Y-108656250D01*
X314642500Y-108656250D02*
X315542853Y-108656250D01*
X316342500Y-107156250D02*
X316342500Y-106455897D01*
X316342500Y-107156250D02*
X316342500Y-107856603D01*
X312898566Y-106299595D02*
G75*
G02*
X312942476Y-106455897I-256066J-156255D01*
G01*
X312898566Y-106299595D02*
G75*
G02*
X313585845Y-105612316I426774J260505D01*
G01*
X312942500Y-107856603D02*
G75*
G02*
X312898565Y-108012904I-299680J-87D01*
G01*
X313585845Y-108700184D02*
G75*
G02*
X312898566Y-108012905I-260505J426774D01*
G01*
X313585845Y-108700184D02*
G75*
G02*
X313742147Y-108656274I156255J-256066D01*
G01*
X313742147Y-105656250D02*
G75*
G02*
X313585844Y-105612317I3J300020D01*
G01*
X315542853Y-108656250D02*
G75*
G02*
X315699155Y-108700184I3J-299992D01*
G01*
X315699155Y-105612316D02*
G75*
G02*
X315542853Y-105656250I-156299J256058D01*
G01*
X315699155Y-105612316D02*
G75*
G02*
X316386434Y-106299595I260503J-426776D01*
G01*
X316342500Y-106455897D02*
G75*
G02*
X316386434Y-106299595I299992J3D01*
G01*
X316386434Y-108012905D02*
G75*
G02*
X315699155Y-108700184I-426776J-260503D01*
G01*
X316386434Y-108012905D02*
G75*
G02*
X316342500Y-107856603I256058J156299D01*
G01*
%TO.C,D47*%
X91486250Y-107156250D02*
X91486250Y-106455897D01*
X91486250Y-107156250D02*
X91486250Y-107856603D01*
X93186250Y-105656250D02*
X92285897Y-105656250D01*
X93186250Y-105656250D02*
X94086603Y-105656250D01*
X93186250Y-108656250D02*
X92285897Y-108656250D01*
X93186250Y-108656250D02*
X94086603Y-108656250D01*
X94886250Y-107156250D02*
X94886250Y-106455897D01*
X94886250Y-107156250D02*
X94886250Y-107856603D01*
X91442316Y-106299595D02*
G75*
G02*
X91486226Y-106455897I-256066J-156255D01*
G01*
X91442316Y-106299595D02*
G75*
G02*
X92129595Y-105612316I426774J260505D01*
G01*
X91486250Y-107856603D02*
G75*
G02*
X91442315Y-108012904I-299680J-87D01*
G01*
X92129595Y-108700184D02*
G75*
G02*
X91442316Y-108012905I-260505J426774D01*
G01*
X92129595Y-108700184D02*
G75*
G02*
X92285897Y-108656274I156255J-256066D01*
G01*
X92285897Y-105656250D02*
G75*
G02*
X92129594Y-105612317I3J300020D01*
G01*
X94086603Y-108656250D02*
G75*
G02*
X94242905Y-108700184I3J-299992D01*
G01*
X94242905Y-105612316D02*
G75*
G02*
X94086603Y-105656250I-156299J256058D01*
G01*
X94242905Y-105612316D02*
G75*
G02*
X94930184Y-106299595I260503J-426776D01*
G01*
X94886250Y-106455897D02*
G75*
G02*
X94930184Y-106299595I299992J3D01*
G01*
X94930184Y-108012905D02*
G75*
G02*
X94242905Y-108700184I-426776J-260503D01*
G01*
X94930184Y-108012905D02*
G75*
G02*
X94886250Y-107856603I256058J156299D01*
G01*
%TO.C,D111*%
X327230000Y-88106250D02*
X327230000Y-87405897D01*
X327230000Y-88106250D02*
X327230000Y-88806603D01*
X328930000Y-86606250D02*
X328029647Y-86606250D01*
X328930000Y-86606250D02*
X329830353Y-86606250D01*
X328930000Y-89606250D02*
X328029647Y-89606250D01*
X328930000Y-89606250D02*
X329830353Y-89606250D01*
X330630000Y-88106250D02*
X330630000Y-87405897D01*
X330630000Y-88106250D02*
X330630000Y-88806603D01*
X327186066Y-87249595D02*
G75*
G02*
X327229976Y-87405897I-256066J-156255D01*
G01*
X327186066Y-87249595D02*
G75*
G02*
X327873345Y-86562316I426774J260505D01*
G01*
X327230000Y-88806603D02*
G75*
G02*
X327186065Y-88962904I-299680J-87D01*
G01*
X327873345Y-89650184D02*
G75*
G02*
X327186066Y-88962905I-260505J426774D01*
G01*
X327873345Y-89650184D02*
G75*
G02*
X328029647Y-89606274I156255J-256066D01*
G01*
X328029647Y-86606250D02*
G75*
G02*
X327873344Y-86562317I3J300020D01*
G01*
X329830353Y-89606250D02*
G75*
G02*
X329986655Y-89650184I3J-299992D01*
G01*
X329986655Y-86562316D02*
G75*
G02*
X329830353Y-86606250I-156299J256058D01*
G01*
X329986655Y-86562316D02*
G75*
G02*
X330673934Y-87249595I260503J-426776D01*
G01*
X330630000Y-87405897D02*
G75*
G02*
X330673934Y-87249595I299992J3D01*
G01*
X330673934Y-88962905D02*
G75*
G02*
X329986655Y-89650184I-426776J-260503D01*
G01*
X330673934Y-88962905D02*
G75*
G02*
X330630000Y-88806603I256058J156299D01*
G01*
%TO.C,D43*%
X181973750Y-88106250D02*
X181973750Y-87405897D01*
X181973750Y-88106250D02*
X181973750Y-88806603D01*
X183673750Y-86606250D02*
X182773397Y-86606250D01*
X183673750Y-86606250D02*
X184574103Y-86606250D01*
X183673750Y-89606250D02*
X182773397Y-89606250D01*
X183673750Y-89606250D02*
X184574103Y-89606250D01*
X185373750Y-88106250D02*
X185373750Y-87405897D01*
X185373750Y-88106250D02*
X185373750Y-88806603D01*
X181929816Y-87249595D02*
G75*
G02*
X181973726Y-87405897I-256066J-156255D01*
G01*
X181929816Y-87249595D02*
G75*
G02*
X182617095Y-86562316I426774J260505D01*
G01*
X181973750Y-88806603D02*
G75*
G02*
X181929815Y-88962904I-299680J-87D01*
G01*
X182617095Y-89650184D02*
G75*
G02*
X181929816Y-88962905I-260505J426774D01*
G01*
X182617095Y-89650184D02*
G75*
G02*
X182773397Y-89606274I156255J-256066D01*
G01*
X182773397Y-86606250D02*
G75*
G02*
X182617094Y-86562317I3J300020D01*
G01*
X184574103Y-89606250D02*
G75*
G02*
X184730405Y-89650184I3J-299992D01*
G01*
X184730405Y-86562316D02*
G75*
G02*
X184574103Y-86606250I-156299J256058D01*
G01*
X184730405Y-86562316D02*
G75*
G02*
X185417684Y-87249595I260503J-426776D01*
G01*
X185373750Y-87405897D02*
G75*
G02*
X185417684Y-87249595I299992J3D01*
G01*
X185417684Y-88962905D02*
G75*
G02*
X184730405Y-89650184I-426776J-260503D01*
G01*
X185417684Y-88962905D02*
G75*
G02*
X185373750Y-88806603I256058J156299D01*
G01*
%TO.C,D107*%
X251373750Y-88106250D02*
X251373750Y-87405897D01*
X251373750Y-88106250D02*
X251373750Y-88806603D01*
X253073750Y-86606250D02*
X252173397Y-86606250D01*
X253073750Y-86606250D02*
X253974103Y-86606250D01*
X253073750Y-89606250D02*
X252173397Y-89606250D01*
X253073750Y-89606250D02*
X253974103Y-89606250D01*
X254773750Y-88106250D02*
X254773750Y-87405897D01*
X254773750Y-88106250D02*
X254773750Y-88806603D01*
X251329816Y-87249595D02*
G75*
G02*
X251373726Y-87405897I-256066J-156255D01*
G01*
X251329816Y-87249595D02*
G75*
G02*
X252017095Y-86562316I426774J260505D01*
G01*
X251373750Y-88806603D02*
G75*
G02*
X251329815Y-88962904I-299680J-87D01*
G01*
X252017095Y-89650184D02*
G75*
G02*
X251329816Y-88962905I-260505J426774D01*
G01*
X252017095Y-89650184D02*
G75*
G02*
X252173397Y-89606274I156255J-256066D01*
G01*
X252173397Y-86606250D02*
G75*
G02*
X252017094Y-86562317I3J300020D01*
G01*
X253974103Y-89606250D02*
G75*
G02*
X254130405Y-89650184I3J-299992D01*
G01*
X254130405Y-86562316D02*
G75*
G02*
X253974103Y-86606250I-156299J256058D01*
G01*
X254130405Y-86562316D02*
G75*
G02*
X254817684Y-87249595I260503J-426776D01*
G01*
X254773750Y-87405897D02*
G75*
G02*
X254817684Y-87249595I299992J3D01*
G01*
X254817684Y-88962905D02*
G75*
G02*
X254130405Y-89650184I-426776J-260503D01*
G01*
X254817684Y-88962905D02*
G75*
G02*
X254773750Y-88806603I256058J156299D01*
G01*
%TO.C,D60*%
X191498750Y-126206250D02*
X191498750Y-125505897D01*
X191498750Y-126206250D02*
X191498750Y-126906603D01*
X193198750Y-124706250D02*
X192298397Y-124706250D01*
X193198750Y-124706250D02*
X194099103Y-124706250D01*
X193198750Y-127706250D02*
X192298397Y-127706250D01*
X193198750Y-127706250D02*
X194099103Y-127706250D01*
X194898750Y-126206250D02*
X194898750Y-125505897D01*
X194898750Y-126206250D02*
X194898750Y-126906603D01*
X191454816Y-125349595D02*
G75*
G02*
X191498726Y-125505897I-256066J-156255D01*
G01*
X191454816Y-125349595D02*
G75*
G02*
X192142095Y-124662316I426774J260505D01*
G01*
X191498750Y-126906603D02*
G75*
G02*
X191454815Y-127062904I-299680J-87D01*
G01*
X192142095Y-127750184D02*
G75*
G02*
X191454816Y-127062905I-260505J426774D01*
G01*
X192142095Y-127750184D02*
G75*
G02*
X192298397Y-127706274I156255J-256066D01*
G01*
X192298397Y-124706250D02*
G75*
G02*
X192142094Y-124662317I3J300020D01*
G01*
X194099103Y-127706250D02*
G75*
G02*
X194255405Y-127750184I3J-299992D01*
G01*
X194255405Y-124662316D02*
G75*
G02*
X194099103Y-124706250I-156299J256058D01*
G01*
X194255405Y-124662316D02*
G75*
G02*
X194942684Y-125349595I260503J-426776D01*
G01*
X194898750Y-125505897D02*
G75*
G02*
X194942684Y-125349595I299992J3D01*
G01*
X194942684Y-127062905D02*
G75*
G02*
X194255405Y-127750184I-426776J-260503D01*
G01*
X194942684Y-127062905D02*
G75*
G02*
X194898750Y-126906603I256058J156299D01*
G01*
%TO.C,D58*%
X153398750Y-126206250D02*
X153398750Y-125505897D01*
X153398750Y-126206250D02*
X153398750Y-126906603D01*
X155098750Y-124706250D02*
X154198397Y-124706250D01*
X155098750Y-124706250D02*
X155999103Y-124706250D01*
X155098750Y-127706250D02*
X154198397Y-127706250D01*
X155098750Y-127706250D02*
X155999103Y-127706250D01*
X156798750Y-126206250D02*
X156798750Y-125505897D01*
X156798750Y-126206250D02*
X156798750Y-126906603D01*
X153354816Y-125349595D02*
G75*
G02*
X153398726Y-125505897I-256066J-156255D01*
G01*
X153354816Y-125349595D02*
G75*
G02*
X154042095Y-124662316I426774J260505D01*
G01*
X153398750Y-126906603D02*
G75*
G02*
X153354815Y-127062904I-299680J-87D01*
G01*
X154042095Y-127750184D02*
G75*
G02*
X153354816Y-127062905I-260505J426774D01*
G01*
X154042095Y-127750184D02*
G75*
G02*
X154198397Y-127706274I156255J-256066D01*
G01*
X154198397Y-124706250D02*
G75*
G02*
X154042094Y-124662317I3J300020D01*
G01*
X155999103Y-127706250D02*
G75*
G02*
X156155405Y-127750184I3J-299992D01*
G01*
X156155405Y-124662316D02*
G75*
G02*
X155999103Y-124706250I-156299J256058D01*
G01*
X156155405Y-124662316D02*
G75*
G02*
X156842684Y-125349595I260503J-426776D01*
G01*
X156798750Y-125505897D02*
G75*
G02*
X156842684Y-125349595I299992J3D01*
G01*
X156842684Y-127062905D02*
G75*
G02*
X156155405Y-127750184I-426776J-260503D01*
G01*
X156842684Y-127062905D02*
G75*
G02*
X156798750Y-126906603I256058J156299D01*
G01*
%TO.C,D113*%
X236742500Y-107156250D02*
X236742500Y-106455897D01*
X236742500Y-107156250D02*
X236742500Y-107856603D01*
X238442500Y-105656250D02*
X237542147Y-105656250D01*
X238442500Y-105656250D02*
X239342853Y-105656250D01*
X238442500Y-108656250D02*
X237542147Y-108656250D01*
X238442500Y-108656250D02*
X239342853Y-108656250D01*
X240142500Y-107156250D02*
X240142500Y-106455897D01*
X240142500Y-107156250D02*
X240142500Y-107856603D01*
X236698566Y-106299595D02*
G75*
G02*
X236742476Y-106455897I-256066J-156255D01*
G01*
X236698566Y-106299595D02*
G75*
G02*
X237385845Y-105612316I426774J260505D01*
G01*
X236742500Y-107856603D02*
G75*
G02*
X236698565Y-108012904I-299680J-87D01*
G01*
X237385845Y-108700184D02*
G75*
G02*
X236698566Y-108012905I-260505J426774D01*
G01*
X237385845Y-108700184D02*
G75*
G02*
X237542147Y-108656274I156255J-256066D01*
G01*
X237542147Y-105656250D02*
G75*
G02*
X237385844Y-105612317I3J300020D01*
G01*
X239342853Y-108656250D02*
G75*
G02*
X239499155Y-108700184I3J-299992D01*
G01*
X239499155Y-105612316D02*
G75*
G02*
X239342853Y-105656250I-156299J256058D01*
G01*
X239499155Y-105612316D02*
G75*
G02*
X240186434Y-106299595I260503J-426776D01*
G01*
X240142500Y-106455897D02*
G75*
G02*
X240186434Y-106299595I299992J3D01*
G01*
X240186434Y-108012905D02*
G75*
G02*
X239499155Y-108700184I-426776J-260503D01*
G01*
X240186434Y-108012905D02*
G75*
G02*
X240142500Y-107856603I256058J156299D01*
G01*
%TO.C,D54*%
X72436250Y-126206250D02*
X72436250Y-125505897D01*
X72436250Y-126206250D02*
X72436250Y-126906603D01*
X74136250Y-124706250D02*
X73235897Y-124706250D01*
X74136250Y-124706250D02*
X75036603Y-124706250D01*
X74136250Y-127706250D02*
X73235897Y-127706250D01*
X74136250Y-127706250D02*
X75036603Y-127706250D01*
X75836250Y-126206250D02*
X75836250Y-125505897D01*
X75836250Y-126206250D02*
X75836250Y-126906603D01*
X72392316Y-125349595D02*
G75*
G02*
X72436226Y-125505897I-256066J-156255D01*
G01*
X72392316Y-125349595D02*
G75*
G02*
X73079595Y-124662316I426774J260505D01*
G01*
X72436250Y-126906603D02*
G75*
G02*
X72392315Y-127062904I-299680J-87D01*
G01*
X73079595Y-127750184D02*
G75*
G02*
X72392316Y-127062905I-260505J426774D01*
G01*
X73079595Y-127750184D02*
G75*
G02*
X73235897Y-127706274I156255J-256066D01*
G01*
X73235897Y-124706250D02*
G75*
G02*
X73079594Y-124662317I3J300020D01*
G01*
X75036603Y-127706250D02*
G75*
G02*
X75192905Y-127750184I3J-299992D01*
G01*
X75192905Y-124662316D02*
G75*
G02*
X75036603Y-124706250I-156299J256058D01*
G01*
X75192905Y-124662316D02*
G75*
G02*
X75880184Y-125349595I260503J-426776D01*
G01*
X75836250Y-125505897D02*
G75*
G02*
X75880184Y-125349595I299992J3D01*
G01*
X75880184Y-127062905D02*
G75*
G02*
X75192905Y-127750184I-426776J-260503D01*
G01*
X75880184Y-127062905D02*
G75*
G02*
X75836250Y-126906603I256058J156299D01*
G01*
%TO.C,D62*%
X74817500Y-145256250D02*
X74817500Y-144555897D01*
X74817500Y-145256250D02*
X74817500Y-145956603D01*
X76517500Y-143756250D02*
X75617147Y-143756250D01*
X76517500Y-143756250D02*
X77417853Y-143756250D01*
X76517500Y-146756250D02*
X75617147Y-146756250D01*
X76517500Y-146756250D02*
X77417853Y-146756250D01*
X78217500Y-145256250D02*
X78217500Y-144555897D01*
X78217500Y-145256250D02*
X78217500Y-145956603D01*
X74773566Y-144399595D02*
G75*
G02*
X74817476Y-144555897I-256066J-156255D01*
G01*
X74773566Y-144399595D02*
G75*
G02*
X75460845Y-143712316I426774J260505D01*
G01*
X74817500Y-145956603D02*
G75*
G02*
X74773565Y-146112904I-299680J-87D01*
G01*
X75460845Y-146800184D02*
G75*
G02*
X74773566Y-146112905I-260505J426774D01*
G01*
X75460845Y-146800184D02*
G75*
G02*
X75617147Y-146756274I156255J-256066D01*
G01*
X75617147Y-143756250D02*
G75*
G02*
X75460844Y-143712317I3J300020D01*
G01*
X77417853Y-146756250D02*
G75*
G02*
X77574155Y-146800184I3J-299992D01*
G01*
X77574155Y-143712316D02*
G75*
G02*
X77417853Y-143756250I-156299J256058D01*
G01*
X77574155Y-143712316D02*
G75*
G02*
X78261434Y-144399595I260503J-426776D01*
G01*
X78217500Y-144555897D02*
G75*
G02*
X78261434Y-144399595I299992J3D01*
G01*
X78261434Y-146112905D02*
G75*
G02*
X77574155Y-146800184I-426776J-260503D01*
G01*
X78261434Y-146112905D02*
G75*
G02*
X78217500Y-145956603I256058J156299D01*
G01*
%TO.C,D65*%
X139111250Y-145256250D02*
X139111250Y-144555897D01*
X139111250Y-145256250D02*
X139111250Y-145956603D01*
X140811250Y-143756250D02*
X139910897Y-143756250D01*
X140811250Y-143756250D02*
X141711603Y-143756250D01*
X140811250Y-146756250D02*
X139910897Y-146756250D01*
X140811250Y-146756250D02*
X141711603Y-146756250D01*
X142511250Y-145256250D02*
X142511250Y-144555897D01*
X142511250Y-145256250D02*
X142511250Y-145956603D01*
X139067316Y-144399595D02*
G75*
G02*
X139111226Y-144555897I-256066J-156255D01*
G01*
X139067316Y-144399595D02*
G75*
G02*
X139754595Y-143712316I426774J260505D01*
G01*
X139111250Y-145956603D02*
G75*
G02*
X139067315Y-146112904I-299680J-87D01*
G01*
X139754595Y-146800184D02*
G75*
G02*
X139067316Y-146112905I-260505J426774D01*
G01*
X139754595Y-146800184D02*
G75*
G02*
X139910897Y-146756274I156255J-256066D01*
G01*
X139910897Y-143756250D02*
G75*
G02*
X139754594Y-143712317I3J300020D01*
G01*
X141711603Y-146756250D02*
G75*
G02*
X141867905Y-146800184I3J-299992D01*
G01*
X141867905Y-143712316D02*
G75*
G02*
X141711603Y-143756250I-156299J256058D01*
G01*
X141867905Y-143712316D02*
G75*
G02*
X142555184Y-144399595I260503J-426776D01*
G01*
X142511250Y-144555897D02*
G75*
G02*
X142555184Y-144399595I299992J3D01*
G01*
X142555184Y-146112905D02*
G75*
G02*
X141867905Y-146800184I-426776J-260503D01*
G01*
X142555184Y-146112905D02*
G75*
G02*
X142511250Y-145956603I256058J156299D01*
G01*
%TO.C,D73*%
X193880000Y-164306250D02*
X193880000Y-163605897D01*
X193880000Y-164306250D02*
X193880000Y-165006603D01*
X195580000Y-162806250D02*
X194679647Y-162806250D01*
X195580000Y-162806250D02*
X196480353Y-162806250D01*
X195580000Y-165806250D02*
X194679647Y-165806250D01*
X195580000Y-165806250D02*
X196480353Y-165806250D01*
X197280000Y-164306250D02*
X197280000Y-163605897D01*
X197280000Y-164306250D02*
X197280000Y-165006603D01*
X193836066Y-163449595D02*
G75*
G02*
X193879976Y-163605897I-256066J-156255D01*
G01*
X193836066Y-163449595D02*
G75*
G02*
X194523345Y-162762316I426774J260505D01*
G01*
X193880000Y-165006603D02*
G75*
G02*
X193836065Y-165162904I-299680J-87D01*
G01*
X194523345Y-165850184D02*
G75*
G02*
X193836066Y-165162905I-260505J426774D01*
G01*
X194523345Y-165850184D02*
G75*
G02*
X194679647Y-165806274I156255J-256066D01*
G01*
X194679647Y-162806250D02*
G75*
G02*
X194523344Y-162762317I3J300020D01*
G01*
X196480353Y-165806250D02*
G75*
G02*
X196636655Y-165850184I3J-299992D01*
G01*
X196636655Y-162762316D02*
G75*
G02*
X196480353Y-162806250I-156299J256058D01*
G01*
X196636655Y-162762316D02*
G75*
G02*
X197323934Y-163449595I260503J-426776D01*
G01*
X197280000Y-163605897D02*
G75*
G02*
X197323934Y-163449595I299992J3D01*
G01*
X197323934Y-165162905D02*
G75*
G02*
X196636655Y-165850184I-426776J-260503D01*
G01*
X197323934Y-165162905D02*
G75*
G02*
X197280000Y-165006603I256058J156299D01*
G01*
%TO.C,D135*%
X317705000Y-164306250D02*
X317705000Y-163605897D01*
X317705000Y-164306250D02*
X317705000Y-165006603D01*
X319405000Y-162806250D02*
X318504647Y-162806250D01*
X319405000Y-162806250D02*
X320305353Y-162806250D01*
X319405000Y-165806250D02*
X318504647Y-165806250D01*
X319405000Y-165806250D02*
X320305353Y-165806250D01*
X321105000Y-164306250D02*
X321105000Y-163605897D01*
X321105000Y-164306250D02*
X321105000Y-165006603D01*
X317661066Y-163449595D02*
G75*
G02*
X317704976Y-163605897I-256066J-156255D01*
G01*
X317661066Y-163449595D02*
G75*
G02*
X318348345Y-162762316I426774J260505D01*
G01*
X317705000Y-165006603D02*
G75*
G02*
X317661065Y-165162904I-299680J-87D01*
G01*
X318348345Y-165850184D02*
G75*
G02*
X317661066Y-165162905I-260505J426774D01*
G01*
X318348345Y-165850184D02*
G75*
G02*
X318504647Y-165806274I156255J-256066D01*
G01*
X318504647Y-162806250D02*
G75*
G02*
X318348344Y-162762317I3J300020D01*
G01*
X320305353Y-165806250D02*
G75*
G02*
X320461655Y-165850184I3J-299992D01*
G01*
X320461655Y-162762316D02*
G75*
G02*
X320305353Y-162806250I-156299J256058D01*
G01*
X320461655Y-162762316D02*
G75*
G02*
X321148934Y-163449595I260503J-426776D01*
G01*
X321105000Y-163605897D02*
G75*
G02*
X321148934Y-163449595I299992J3D01*
G01*
X321148934Y-165162905D02*
G75*
G02*
X320461655Y-165850184I-426776J-260503D01*
G01*
X321148934Y-165162905D02*
G75*
G02*
X321105000Y-165006603I256058J156299D01*
G01*
%TO.C,D39*%
X105773750Y-88106250D02*
X105773750Y-87405897D01*
X105773750Y-88106250D02*
X105773750Y-88806603D01*
X107473750Y-86606250D02*
X106573397Y-86606250D01*
X107473750Y-86606250D02*
X108374103Y-86606250D01*
X107473750Y-89606250D02*
X106573397Y-89606250D01*
X107473750Y-89606250D02*
X108374103Y-89606250D01*
X109173750Y-88106250D02*
X109173750Y-87405897D01*
X109173750Y-88106250D02*
X109173750Y-88806603D01*
X105729816Y-87249595D02*
G75*
G02*
X105773726Y-87405897I-256066J-156255D01*
G01*
X105729816Y-87249595D02*
G75*
G02*
X106417095Y-86562316I426774J260505D01*
G01*
X105773750Y-88806603D02*
G75*
G02*
X105729815Y-88962904I-299680J-87D01*
G01*
X106417095Y-89650184D02*
G75*
G02*
X105729816Y-88962905I-260505J426774D01*
G01*
X106417095Y-89650184D02*
G75*
G02*
X106573397Y-89606274I156255J-256066D01*
G01*
X106573397Y-86606250D02*
G75*
G02*
X106417094Y-86562317I3J300020D01*
G01*
X108374103Y-89606250D02*
G75*
G02*
X108530405Y-89650184I3J-299992D01*
G01*
X108530405Y-86562316D02*
G75*
G02*
X108374103Y-86606250I-156299J256058D01*
G01*
X108530405Y-86562316D02*
G75*
G02*
X109217684Y-87249595I260503J-426776D01*
G01*
X109173750Y-87405897D02*
G75*
G02*
X109217684Y-87249595I299992J3D01*
G01*
X109217684Y-88962905D02*
G75*
G02*
X108530405Y-89650184I-426776J-260503D01*
G01*
X109217684Y-88962905D02*
G75*
G02*
X109173750Y-88806603I256058J156299D01*
G01*
%TO.C,D56*%
X115298750Y-126206250D02*
X115298750Y-125505897D01*
X115298750Y-126206250D02*
X115298750Y-126906603D01*
X116998750Y-124706250D02*
X116098397Y-124706250D01*
X116998750Y-124706250D02*
X117899103Y-124706250D01*
X116998750Y-127706250D02*
X116098397Y-127706250D01*
X116998750Y-127706250D02*
X117899103Y-127706250D01*
X118698750Y-126206250D02*
X118698750Y-125505897D01*
X118698750Y-126206250D02*
X118698750Y-126906603D01*
X115254816Y-125349595D02*
G75*
G02*
X115298726Y-125505897I-256066J-156255D01*
G01*
X115254816Y-125349595D02*
G75*
G02*
X115942095Y-124662316I426774J260505D01*
G01*
X115298750Y-126906603D02*
G75*
G02*
X115254815Y-127062904I-299680J-87D01*
G01*
X115942095Y-127750184D02*
G75*
G02*
X115254816Y-127062905I-260505J426774D01*
G01*
X115942095Y-127750184D02*
G75*
G02*
X116098397Y-127706274I156255J-256066D01*
G01*
X116098397Y-124706250D02*
G75*
G02*
X115942094Y-124662317I3J300020D01*
G01*
X117899103Y-127706250D02*
G75*
G02*
X118055405Y-127750184I3J-299992D01*
G01*
X118055405Y-124662316D02*
G75*
G02*
X117899103Y-124706250I-156299J256058D01*
G01*
X118055405Y-124662316D02*
G75*
G02*
X118742684Y-125349595I260503J-426776D01*
G01*
X118698750Y-125505897D02*
G75*
G02*
X118742684Y-125349595I299992J3D01*
G01*
X118742684Y-127062905D02*
G75*
G02*
X118055405Y-127750184I-426776J-260503D01*
G01*
X118742684Y-127062905D02*
G75*
G02*
X118698750Y-126906603I256058J156299D01*
G01*
%TO.C,D132*%
X239123750Y-164306250D02*
X239123750Y-163605897D01*
X239123750Y-164306250D02*
X239123750Y-165006603D01*
X240823750Y-162806250D02*
X239923397Y-162806250D01*
X240823750Y-162806250D02*
X241724103Y-162806250D01*
X240823750Y-165806250D02*
X239923397Y-165806250D01*
X240823750Y-165806250D02*
X241724103Y-165806250D01*
X242523750Y-164306250D02*
X242523750Y-163605897D01*
X242523750Y-164306250D02*
X242523750Y-165006603D01*
X239079816Y-163449595D02*
G75*
G02*
X239123726Y-163605897I-256066J-156255D01*
G01*
X239079816Y-163449595D02*
G75*
G02*
X239767095Y-162762316I426774J260505D01*
G01*
X239123750Y-165006603D02*
G75*
G02*
X239079815Y-165162904I-299680J-87D01*
G01*
X239767095Y-165850184D02*
G75*
G02*
X239079816Y-165162905I-260505J426774D01*
G01*
X239767095Y-165850184D02*
G75*
G02*
X239923397Y-165806274I156255J-256066D01*
G01*
X239923397Y-162806250D02*
G75*
G02*
X239767094Y-162762317I3J300020D01*
G01*
X241724103Y-165806250D02*
G75*
G02*
X241880405Y-165850184I3J-299992D01*
G01*
X241880405Y-162762316D02*
G75*
G02*
X241724103Y-162806250I-156299J256058D01*
G01*
X241880405Y-162762316D02*
G75*
G02*
X242567684Y-163449595I260503J-426776D01*
G01*
X242523750Y-163605897D02*
G75*
G02*
X242567684Y-163449595I299992J3D01*
G01*
X242567684Y-165162905D02*
G75*
G02*
X241880405Y-165850184I-426776J-260503D01*
G01*
X242567684Y-165162905D02*
G75*
G02*
X242523750Y-165006603I256058J156299D01*
G01*
%TO.C,D70*%
X129586250Y-164306250D02*
X129586250Y-163605897D01*
X129586250Y-164306250D02*
X129586250Y-165006603D01*
X131286250Y-162806250D02*
X130385897Y-162806250D01*
X131286250Y-162806250D02*
X132186603Y-162806250D01*
X131286250Y-165806250D02*
X130385897Y-165806250D01*
X131286250Y-165806250D02*
X132186603Y-165806250D01*
X132986250Y-164306250D02*
X132986250Y-163605897D01*
X132986250Y-164306250D02*
X132986250Y-165006603D01*
X129542316Y-163449595D02*
G75*
G02*
X129586226Y-163605897I-256066J-156255D01*
G01*
X129542316Y-163449595D02*
G75*
G02*
X130229595Y-162762316I426774J260505D01*
G01*
X129586250Y-165006603D02*
G75*
G02*
X129542315Y-165162904I-299680J-87D01*
G01*
X130229595Y-165850184D02*
G75*
G02*
X129542316Y-165162905I-260505J426774D01*
G01*
X130229595Y-165850184D02*
G75*
G02*
X130385897Y-165806274I156255J-256066D01*
G01*
X130385897Y-162806250D02*
G75*
G02*
X130229594Y-162762317I3J300020D01*
G01*
X132186603Y-165806250D02*
G75*
G02*
X132342905Y-165850184I3J-299992D01*
G01*
X132342905Y-162762316D02*
G75*
G02*
X132186603Y-162806250I-156299J256058D01*
G01*
X132342905Y-162762316D02*
G75*
G02*
X133030184Y-163449595I260503J-426776D01*
G01*
X132986250Y-163605897D02*
G75*
G02*
X133030184Y-163449595I299992J3D01*
G01*
X133030184Y-165162905D02*
G75*
G02*
X132342905Y-165850184I-426776J-260503D01*
G01*
X133030184Y-165162905D02*
G75*
G02*
X132986250Y-165006603I256058J156299D01*
G01*
%TO.C,D51*%
X167686250Y-107156250D02*
X167686250Y-106455897D01*
X167686250Y-107156250D02*
X167686250Y-107856603D01*
X169386250Y-105656250D02*
X168485897Y-105656250D01*
X169386250Y-105656250D02*
X170286603Y-105656250D01*
X169386250Y-108656250D02*
X168485897Y-108656250D01*
X169386250Y-108656250D02*
X170286603Y-108656250D01*
X171086250Y-107156250D02*
X171086250Y-106455897D01*
X171086250Y-107156250D02*
X171086250Y-107856603D01*
X167642316Y-106299595D02*
G75*
G02*
X167686226Y-106455897I-256066J-156255D01*
G01*
X167642316Y-106299595D02*
G75*
G02*
X168329595Y-105612316I426774J260505D01*
G01*
X167686250Y-107856603D02*
G75*
G02*
X167642315Y-108012904I-299680J-87D01*
G01*
X168329595Y-108700184D02*
G75*
G02*
X167642316Y-108012905I-260505J426774D01*
G01*
X168329595Y-108700184D02*
G75*
G02*
X168485897Y-108656274I156255J-256066D01*
G01*
X168485897Y-105656250D02*
G75*
G02*
X168329594Y-105612317I3J300020D01*
G01*
X170286603Y-108656250D02*
G75*
G02*
X170442905Y-108700184I3J-299992D01*
G01*
X170442905Y-105612316D02*
G75*
G02*
X170286603Y-105656250I-156299J256058D01*
G01*
X170442905Y-105612316D02*
G75*
G02*
X171130184Y-106299595I260503J-426776D01*
G01*
X171086250Y-106455897D02*
G75*
G02*
X171130184Y-106299595I299992J3D01*
G01*
X171130184Y-108012905D02*
G75*
G02*
X170442905Y-108700184I-426776J-260503D01*
G01*
X171130184Y-108012905D02*
G75*
G02*
X171086250Y-107856603I256058J156299D01*
G01*
%TO.C,D38*%
X86723750Y-88106250D02*
X86723750Y-87405897D01*
X86723750Y-88106250D02*
X86723750Y-88806603D01*
X88423750Y-86606250D02*
X87523397Y-86606250D01*
X88423750Y-86606250D02*
X89324103Y-86606250D01*
X88423750Y-89606250D02*
X87523397Y-89606250D01*
X88423750Y-89606250D02*
X89324103Y-89606250D01*
X90123750Y-88106250D02*
X90123750Y-87405897D01*
X90123750Y-88106250D02*
X90123750Y-88806603D01*
X86679816Y-87249595D02*
G75*
G02*
X86723726Y-87405897I-256066J-156255D01*
G01*
X86679816Y-87249595D02*
G75*
G02*
X87367095Y-86562316I426774J260505D01*
G01*
X86723750Y-88806603D02*
G75*
G02*
X86679815Y-88962904I-299680J-87D01*
G01*
X87367095Y-89650184D02*
G75*
G02*
X86679816Y-88962905I-260505J426774D01*
G01*
X87367095Y-89650184D02*
G75*
G02*
X87523397Y-89606274I156255J-256066D01*
G01*
X87523397Y-86606250D02*
G75*
G02*
X87367094Y-86562317I3J300020D01*
G01*
X89324103Y-89606250D02*
G75*
G02*
X89480405Y-89650184I3J-299992D01*
G01*
X89480405Y-86562316D02*
G75*
G02*
X89324103Y-86606250I-156299J256058D01*
G01*
X89480405Y-86562316D02*
G75*
G02*
X90167684Y-87249595I260503J-426776D01*
G01*
X90123750Y-87405897D02*
G75*
G02*
X90167684Y-87249595I299992J3D01*
G01*
X90167684Y-88962905D02*
G75*
G02*
X89480405Y-89650184I-426776J-260503D01*
G01*
X90167684Y-88962905D02*
G75*
G02*
X90123750Y-88806603I256058J156299D01*
G01*
%TO.C,D44*%
X201023750Y-88106250D02*
X201023750Y-87405897D01*
X201023750Y-88106250D02*
X201023750Y-88806603D01*
X202723750Y-86606250D02*
X201823397Y-86606250D01*
X202723750Y-86606250D02*
X203624103Y-86606250D01*
X202723750Y-89606250D02*
X201823397Y-89606250D01*
X202723750Y-89606250D02*
X203624103Y-89606250D01*
X204423750Y-88106250D02*
X204423750Y-87405897D01*
X204423750Y-88106250D02*
X204423750Y-88806603D01*
X200979816Y-87249595D02*
G75*
G02*
X201023726Y-87405897I-256066J-156255D01*
G01*
X200979816Y-87249595D02*
G75*
G02*
X201667095Y-86562316I426774J260505D01*
G01*
X201023750Y-88806603D02*
G75*
G02*
X200979815Y-88962904I-299680J-87D01*
G01*
X201667095Y-89650184D02*
G75*
G02*
X200979816Y-88962905I-260505J426774D01*
G01*
X201667095Y-89650184D02*
G75*
G02*
X201823397Y-89606274I156255J-256066D01*
G01*
X201823397Y-86606250D02*
G75*
G02*
X201667094Y-86562317I3J300020D01*
G01*
X203624103Y-89606250D02*
G75*
G02*
X203780405Y-89650184I3J-299992D01*
G01*
X203780405Y-86562316D02*
G75*
G02*
X203624103Y-86606250I-156299J256058D01*
G01*
X203780405Y-86562316D02*
G75*
G02*
X204467684Y-87249595I260503J-426776D01*
G01*
X204423750Y-87405897D02*
G75*
G02*
X204467684Y-87249595I299992J3D01*
G01*
X204467684Y-88962905D02*
G75*
G02*
X203780405Y-89650184I-426776J-260503D01*
G01*
X204467684Y-88962905D02*
G75*
G02*
X204423750Y-88806603I256058J156299D01*
G01*
%TO.C,D59*%
X172448750Y-126206250D02*
X172448750Y-125505897D01*
X172448750Y-126206250D02*
X172448750Y-126906603D01*
X174148750Y-124706250D02*
X173248397Y-124706250D01*
X174148750Y-124706250D02*
X175049103Y-124706250D01*
X174148750Y-127706250D02*
X173248397Y-127706250D01*
X174148750Y-127706250D02*
X175049103Y-127706250D01*
X175848750Y-126206250D02*
X175848750Y-125505897D01*
X175848750Y-126206250D02*
X175848750Y-126906603D01*
X172404816Y-125349595D02*
G75*
G02*
X172448726Y-125505897I-256066J-156255D01*
G01*
X172404816Y-125349595D02*
G75*
G02*
X173092095Y-124662316I426774J260505D01*
G01*
X172448750Y-126906603D02*
G75*
G02*
X172404815Y-127062904I-299680J-87D01*
G01*
X173092095Y-127750184D02*
G75*
G02*
X172404816Y-127062905I-260505J426774D01*
G01*
X173092095Y-127750184D02*
G75*
G02*
X173248397Y-127706274I156255J-256066D01*
G01*
X173248397Y-124706250D02*
G75*
G02*
X173092094Y-124662317I3J300020D01*
G01*
X175049103Y-127706250D02*
G75*
G02*
X175205405Y-127750184I3J-299992D01*
G01*
X175205405Y-124662316D02*
G75*
G02*
X175049103Y-124706250I-156299J256058D01*
G01*
X175205405Y-124662316D02*
G75*
G02*
X175892684Y-125349595I260503J-426776D01*
G01*
X175848750Y-125505897D02*
G75*
G02*
X175892684Y-125349595I299992J3D01*
G01*
X175892684Y-127062905D02*
G75*
G02*
X175205405Y-127750184I-426776J-260503D01*
G01*
X175892684Y-127062905D02*
G75*
G02*
X175848750Y-126906603I256058J156299D01*
G01*
%TO.C,D130*%
X322467500Y-145256250D02*
X322467500Y-144555897D01*
X322467500Y-145256250D02*
X322467500Y-145956603D01*
X324167500Y-143756250D02*
X323267147Y-143756250D01*
X324167500Y-143756250D02*
X325067853Y-143756250D01*
X324167500Y-146756250D02*
X323267147Y-146756250D01*
X324167500Y-146756250D02*
X325067853Y-146756250D01*
X325867500Y-145256250D02*
X325867500Y-144555897D01*
X325867500Y-145256250D02*
X325867500Y-145956603D01*
X322423566Y-144399595D02*
G75*
G02*
X322467476Y-144555897I-256066J-156255D01*
G01*
X322423566Y-144399595D02*
G75*
G02*
X323110845Y-143712316I426774J260505D01*
G01*
X322467500Y-145956603D02*
G75*
G02*
X322423565Y-146112904I-299680J-87D01*
G01*
X323110845Y-146800184D02*
G75*
G02*
X322423566Y-146112905I-260505J426774D01*
G01*
X323110845Y-146800184D02*
G75*
G02*
X323267147Y-146756274I156255J-256066D01*
G01*
X323267147Y-143756250D02*
G75*
G02*
X323110844Y-143712317I3J300020D01*
G01*
X325067853Y-146756250D02*
G75*
G02*
X325224155Y-146800184I3J-299992D01*
G01*
X325224155Y-143712316D02*
G75*
G02*
X325067853Y-143756250I-156299J256058D01*
G01*
X325224155Y-143712316D02*
G75*
G02*
X325911434Y-144399595I260503J-426776D01*
G01*
X325867500Y-144555897D02*
G75*
G02*
X325911434Y-144399595I299992J3D01*
G01*
X325911434Y-146112905D02*
G75*
G02*
X325224155Y-146800184I-426776J-260503D01*
G01*
X325911434Y-146112905D02*
G75*
G02*
X325867500Y-145956603I256058J156299D01*
G01*
%TO.C,D136*%
X336755000Y-164306250D02*
X336755000Y-163605897D01*
X336755000Y-164306250D02*
X336755000Y-165006603D01*
X338455000Y-162806250D02*
X337554647Y-162806250D01*
X338455000Y-162806250D02*
X339355353Y-162806250D01*
X338455000Y-165806250D02*
X337554647Y-165806250D01*
X338455000Y-165806250D02*
X339355353Y-165806250D01*
X340155000Y-164306250D02*
X340155000Y-163605897D01*
X340155000Y-164306250D02*
X340155000Y-165006603D01*
X336711066Y-163449595D02*
G75*
G02*
X336754976Y-163605897I-256066J-156255D01*
G01*
X336711066Y-163449595D02*
G75*
G02*
X337398345Y-162762316I426774J260505D01*
G01*
X336755000Y-165006603D02*
G75*
G02*
X336711065Y-165162904I-299680J-87D01*
G01*
X337398345Y-165850184D02*
G75*
G02*
X336711066Y-165162905I-260505J426774D01*
G01*
X337398345Y-165850184D02*
G75*
G02*
X337554647Y-165806274I156255J-256066D01*
G01*
X337554647Y-162806250D02*
G75*
G02*
X337398344Y-162762317I3J300020D01*
G01*
X339355353Y-165806250D02*
G75*
G02*
X339511655Y-165850184I3J-299992D01*
G01*
X339511655Y-162762316D02*
G75*
G02*
X339355353Y-162806250I-156299J256058D01*
G01*
X339511655Y-162762316D02*
G75*
G02*
X340198934Y-163449595I260503J-426776D01*
G01*
X340155000Y-163605897D02*
G75*
G02*
X340198934Y-163449595I299992J3D01*
G01*
X340198934Y-165162905D02*
G75*
G02*
X339511655Y-165850184I-426776J-260503D01*
G01*
X340198934Y-165162905D02*
G75*
G02*
X340155000Y-165006603I256058J156299D01*
G01*
%TO.C,D125*%
X348661250Y-126206250D02*
X348661250Y-125505897D01*
X348661250Y-126206250D02*
X348661250Y-126906603D01*
X350361250Y-124706250D02*
X349460897Y-124706250D01*
X350361250Y-124706250D02*
X351261603Y-124706250D01*
X350361250Y-127706250D02*
X349460897Y-127706250D01*
X350361250Y-127706250D02*
X351261603Y-127706250D01*
X352061250Y-126206250D02*
X352061250Y-125505897D01*
X352061250Y-126206250D02*
X352061250Y-126906603D01*
X348617316Y-125349595D02*
G75*
G02*
X348661226Y-125505897I-256066J-156255D01*
G01*
X348617316Y-125349595D02*
G75*
G02*
X349304595Y-124662316I426774J260505D01*
G01*
X348661250Y-126906603D02*
G75*
G02*
X348617315Y-127062904I-299680J-87D01*
G01*
X349304595Y-127750184D02*
G75*
G02*
X348617316Y-127062905I-260505J426774D01*
G01*
X349304595Y-127750184D02*
G75*
G02*
X349460897Y-127706274I156255J-256066D01*
G01*
X349460897Y-124706250D02*
G75*
G02*
X349304594Y-124662317I3J300020D01*
G01*
X351261603Y-127706250D02*
G75*
G02*
X351417905Y-127750184I3J-299992D01*
G01*
X351417905Y-124662316D02*
G75*
G02*
X351261603Y-124706250I-156299J256058D01*
G01*
X351417905Y-124662316D02*
G75*
G02*
X352105184Y-125349595I260503J-426776D01*
G01*
X352061250Y-125505897D02*
G75*
G02*
X352105184Y-125349595I299992J3D01*
G01*
X352105184Y-127062905D02*
G75*
G02*
X351417905Y-127750184I-426776J-260503D01*
G01*
X352105184Y-127062905D02*
G75*
G02*
X352061250Y-126906603I256058J156299D01*
G01*
%TO.C,D131*%
X341517500Y-145256250D02*
X341517500Y-144555897D01*
X341517500Y-145256250D02*
X341517500Y-145956603D01*
X343217500Y-143756250D02*
X342317147Y-143756250D01*
X343217500Y-143756250D02*
X344117853Y-143756250D01*
X343217500Y-146756250D02*
X342317147Y-146756250D01*
X343217500Y-146756250D02*
X344117853Y-146756250D01*
X344917500Y-145256250D02*
X344917500Y-144555897D01*
X344917500Y-145256250D02*
X344917500Y-145956603D01*
X341473566Y-144399595D02*
G75*
G02*
X341517476Y-144555897I-256066J-156255D01*
G01*
X341473566Y-144399595D02*
G75*
G02*
X342160845Y-143712316I426774J260505D01*
G01*
X341517500Y-145956603D02*
G75*
G02*
X341473565Y-146112904I-299680J-87D01*
G01*
X342160845Y-146800184D02*
G75*
G02*
X341473566Y-146112905I-260505J426774D01*
G01*
X342160845Y-146800184D02*
G75*
G02*
X342317147Y-146756274I156255J-256066D01*
G01*
X342317147Y-143756250D02*
G75*
G02*
X342160844Y-143712317I3J300020D01*
G01*
X344117853Y-146756250D02*
G75*
G02*
X344274155Y-146800184I3J-299992D01*
G01*
X344274155Y-143712316D02*
G75*
G02*
X344117853Y-143756250I-156299J256058D01*
G01*
X344274155Y-143712316D02*
G75*
G02*
X344961434Y-144399595I260503J-426776D01*
G01*
X344917500Y-144555897D02*
G75*
G02*
X344961434Y-144399595I299992J3D01*
G01*
X344961434Y-146112905D02*
G75*
G02*
X344274155Y-146800184I-426776J-260503D01*
G01*
X344961434Y-146112905D02*
G75*
G02*
X344917500Y-145956603I256058J156299D01*
G01*
%TO.C,D129*%
X303417500Y-145256250D02*
X303417500Y-144555897D01*
X303417500Y-145256250D02*
X303417500Y-145956603D01*
X305117500Y-143756250D02*
X304217147Y-143756250D01*
X305117500Y-143756250D02*
X306017853Y-143756250D01*
X305117500Y-146756250D02*
X304217147Y-146756250D01*
X305117500Y-146756250D02*
X306017853Y-146756250D01*
X306817500Y-145256250D02*
X306817500Y-144555897D01*
X306817500Y-145256250D02*
X306817500Y-145956603D01*
X303373566Y-144399595D02*
G75*
G02*
X303417476Y-144555897I-256066J-156255D01*
G01*
X303373566Y-144399595D02*
G75*
G02*
X304060845Y-143712316I426774J260505D01*
G01*
X303417500Y-145956603D02*
G75*
G02*
X303373565Y-146112904I-299680J-87D01*
G01*
X304060845Y-146800184D02*
G75*
G02*
X303373566Y-146112905I-260505J426774D01*
G01*
X304060845Y-146800184D02*
G75*
G02*
X304217147Y-146756274I156255J-256066D01*
G01*
X304217147Y-143756250D02*
G75*
G02*
X304060844Y-143712317I3J300020D01*
G01*
X306017853Y-146756250D02*
G75*
G02*
X306174155Y-146800184I3J-299992D01*
G01*
X306174155Y-143712316D02*
G75*
G02*
X306017853Y-143756250I-156299J256058D01*
G01*
X306174155Y-143712316D02*
G75*
G02*
X306861434Y-144399595I260503J-426776D01*
G01*
X306817500Y-144555897D02*
G75*
G02*
X306861434Y-144399595I299992J3D01*
G01*
X306861434Y-146112905D02*
G75*
G02*
X306174155Y-146800184I-426776J-260503D01*
G01*
X306861434Y-146112905D02*
G75*
G02*
X306817500Y-145956603I256058J156299D01*
G01*
%TO.C,D126*%
X246267500Y-145256250D02*
X246267500Y-144555897D01*
X246267500Y-145256250D02*
X246267500Y-145956603D01*
X247967500Y-143756250D02*
X247067147Y-143756250D01*
X247967500Y-143756250D02*
X248867853Y-143756250D01*
X247967500Y-146756250D02*
X247067147Y-146756250D01*
X247967500Y-146756250D02*
X248867853Y-146756250D01*
X249667500Y-145256250D02*
X249667500Y-144555897D01*
X249667500Y-145256250D02*
X249667500Y-145956603D01*
X246223566Y-144399595D02*
G75*
G02*
X246267476Y-144555897I-256066J-156255D01*
G01*
X246223566Y-144399595D02*
G75*
G02*
X246910845Y-143712316I426774J260505D01*
G01*
X246267500Y-145956603D02*
G75*
G02*
X246223565Y-146112904I-299680J-87D01*
G01*
X246910845Y-146800184D02*
G75*
G02*
X246223566Y-146112905I-260505J426774D01*
G01*
X246910845Y-146800184D02*
G75*
G02*
X247067147Y-146756274I156255J-256066D01*
G01*
X247067147Y-143756250D02*
G75*
G02*
X246910844Y-143712317I3J300020D01*
G01*
X248867853Y-146756250D02*
G75*
G02*
X249024155Y-146800184I3J-299992D01*
G01*
X249024155Y-143712316D02*
G75*
G02*
X248867853Y-143756250I-156299J256058D01*
G01*
X249024155Y-143712316D02*
G75*
G02*
X249711434Y-144399595I260503J-426776D01*
G01*
X249667500Y-144555897D02*
G75*
G02*
X249711434Y-144399595I299992J3D01*
G01*
X249711434Y-146112905D02*
G75*
G02*
X249024155Y-146800184I-426776J-260503D01*
G01*
X249711434Y-146112905D02*
G75*
G02*
X249667500Y-145956603I256058J156299D01*
G01*
%TO.C,D124*%
X322467500Y-126206250D02*
X322467500Y-125505897D01*
X322467500Y-126206250D02*
X322467500Y-126906603D01*
X324167500Y-124706250D02*
X323267147Y-124706250D01*
X324167500Y-124706250D02*
X325067853Y-124706250D01*
X324167500Y-127706250D02*
X323267147Y-127706250D01*
X324167500Y-127706250D02*
X325067853Y-127706250D01*
X325867500Y-126206250D02*
X325867500Y-125505897D01*
X325867500Y-126206250D02*
X325867500Y-126906603D01*
X322423566Y-125349595D02*
G75*
G02*
X322467476Y-125505897I-256066J-156255D01*
G01*
X322423566Y-125349595D02*
G75*
G02*
X323110845Y-124662316I426774J260505D01*
G01*
X322467500Y-126906603D02*
G75*
G02*
X322423565Y-127062904I-299680J-87D01*
G01*
X323110845Y-127750184D02*
G75*
G02*
X322423566Y-127062905I-260505J426774D01*
G01*
X323110845Y-127750184D02*
G75*
G02*
X323267147Y-127706274I156255J-256066D01*
G01*
X323267147Y-124706250D02*
G75*
G02*
X323110844Y-124662317I3J300020D01*
G01*
X325067853Y-127706250D02*
G75*
G02*
X325224155Y-127750184I3J-299992D01*
G01*
X325224155Y-124662316D02*
G75*
G02*
X325067853Y-124706250I-156299J256058D01*
G01*
X325224155Y-124662316D02*
G75*
G02*
X325911434Y-125349595I260503J-426776D01*
G01*
X325867500Y-125505897D02*
G75*
G02*
X325911434Y-125349595I299992J3D01*
G01*
X325911434Y-127062905D02*
G75*
G02*
X325224155Y-127750184I-426776J-260503D01*
G01*
X325911434Y-127062905D02*
G75*
G02*
X325867500Y-126906603I256058J156299D01*
G01*
%TO.C,D110*%
X308180000Y-88106250D02*
X308180000Y-87405897D01*
X308180000Y-88106250D02*
X308180000Y-88806603D01*
X309880000Y-86606250D02*
X308979647Y-86606250D01*
X309880000Y-86606250D02*
X310780353Y-86606250D01*
X309880000Y-89606250D02*
X308979647Y-89606250D01*
X309880000Y-89606250D02*
X310780353Y-89606250D01*
X311580000Y-88106250D02*
X311580000Y-87405897D01*
X311580000Y-88106250D02*
X311580000Y-88806603D01*
X308136066Y-87249595D02*
G75*
G02*
X308179976Y-87405897I-256066J-156255D01*
G01*
X308136066Y-87249595D02*
G75*
G02*
X308823345Y-86562316I426774J260505D01*
G01*
X308180000Y-88806603D02*
G75*
G02*
X308136065Y-88962904I-299680J-87D01*
G01*
X308823345Y-89650184D02*
G75*
G02*
X308136066Y-88962905I-260505J426774D01*
G01*
X308823345Y-89650184D02*
G75*
G02*
X308979647Y-89606274I156255J-256066D01*
G01*
X308979647Y-86606250D02*
G75*
G02*
X308823344Y-86562317I3J300020D01*
G01*
X310780353Y-89606250D02*
G75*
G02*
X310936655Y-89650184I3J-299992D01*
G01*
X310936655Y-86562316D02*
G75*
G02*
X310780353Y-86606250I-156299J256058D01*
G01*
X310936655Y-86562316D02*
G75*
G02*
X311623934Y-87249595I260503J-426776D01*
G01*
X311580000Y-87405897D02*
G75*
G02*
X311623934Y-87249595I299992J3D01*
G01*
X311623934Y-88962905D02*
G75*
G02*
X310936655Y-89650184I-426776J-260503D01*
G01*
X311623934Y-88962905D02*
G75*
G02*
X311580000Y-88806603I256058J156299D01*
G01*
%TO.C,D118*%
X331992500Y-107156250D02*
X331992500Y-106455897D01*
X331992500Y-107156250D02*
X331992500Y-107856603D01*
X333692500Y-105656250D02*
X332792147Y-105656250D01*
X333692500Y-105656250D02*
X334592853Y-105656250D01*
X333692500Y-108656250D02*
X332792147Y-108656250D01*
X333692500Y-108656250D02*
X334592853Y-108656250D01*
X335392500Y-107156250D02*
X335392500Y-106455897D01*
X335392500Y-107156250D02*
X335392500Y-107856603D01*
X331948566Y-106299595D02*
G75*
G02*
X331992476Y-106455897I-256066J-156255D01*
G01*
X331948566Y-106299595D02*
G75*
G02*
X332635845Y-105612316I426774J260505D01*
G01*
X331992500Y-107856603D02*
G75*
G02*
X331948565Y-108012904I-299680J-87D01*
G01*
X332635845Y-108700184D02*
G75*
G02*
X331948566Y-108012905I-260505J426774D01*
G01*
X332635845Y-108700184D02*
G75*
G02*
X332792147Y-108656274I156255J-256066D01*
G01*
X332792147Y-105656250D02*
G75*
G02*
X332635844Y-105612317I3J300020D01*
G01*
X334592853Y-108656250D02*
G75*
G02*
X334749155Y-108700184I3J-299992D01*
G01*
X334749155Y-105612316D02*
G75*
G02*
X334592853Y-105656250I-156299J256058D01*
G01*
X334749155Y-105612316D02*
G75*
G02*
X335436434Y-106299595I260503J-426776D01*
G01*
X335392500Y-106455897D02*
G75*
G02*
X335436434Y-106299595I299992J3D01*
G01*
X335436434Y-108012905D02*
G75*
G02*
X334749155Y-108700184I-426776J-260503D01*
G01*
X335436434Y-108012905D02*
G75*
G02*
X335392500Y-107856603I256058J156299D01*
G01*
%TO.C,D114*%
X255792500Y-107156250D02*
X255792500Y-106455897D01*
X255792500Y-107156250D02*
X255792500Y-107856603D01*
X257492500Y-105656250D02*
X256592147Y-105656250D01*
X257492500Y-105656250D02*
X258392853Y-105656250D01*
X257492500Y-108656250D02*
X256592147Y-108656250D01*
X257492500Y-108656250D02*
X258392853Y-108656250D01*
X259192500Y-107156250D02*
X259192500Y-106455897D01*
X259192500Y-107156250D02*
X259192500Y-107856603D01*
X255748566Y-106299595D02*
G75*
G02*
X255792476Y-106455897I-256066J-156255D01*
G01*
X255748566Y-106299595D02*
G75*
G02*
X256435845Y-105612316I426774J260505D01*
G01*
X255792500Y-107856603D02*
G75*
G02*
X255748565Y-108012904I-299680J-87D01*
G01*
X256435845Y-108700184D02*
G75*
G02*
X255748566Y-108012905I-260505J426774D01*
G01*
X256435845Y-108700184D02*
G75*
G02*
X256592147Y-108656274I156255J-256066D01*
G01*
X256592147Y-105656250D02*
G75*
G02*
X256435844Y-105612317I3J300020D01*
G01*
X258392853Y-108656250D02*
G75*
G02*
X258549155Y-108700184I3J-299992D01*
G01*
X258549155Y-105612316D02*
G75*
G02*
X258392853Y-105656250I-156299J256058D01*
G01*
X258549155Y-105612316D02*
G75*
G02*
X259236434Y-106299595I260503J-426776D01*
G01*
X259192500Y-106455897D02*
G75*
G02*
X259236434Y-106299595I299992J3D01*
G01*
X259236434Y-108012905D02*
G75*
G02*
X258549155Y-108700184I-426776J-260503D01*
G01*
X259236434Y-108012905D02*
G75*
G02*
X259192500Y-107856603I256058J156299D01*
G01*
%TO.C,D115*%
X274842500Y-107156250D02*
X274842500Y-106455897D01*
X274842500Y-107156250D02*
X274842500Y-107856603D01*
X276542500Y-105656250D02*
X275642147Y-105656250D01*
X276542500Y-105656250D02*
X277442853Y-105656250D01*
X276542500Y-108656250D02*
X275642147Y-108656250D01*
X276542500Y-108656250D02*
X277442853Y-108656250D01*
X278242500Y-107156250D02*
X278242500Y-106455897D01*
X278242500Y-107156250D02*
X278242500Y-107856603D01*
X274798566Y-106299595D02*
G75*
G02*
X274842476Y-106455897I-256066J-156255D01*
G01*
X274798566Y-106299595D02*
G75*
G02*
X275485845Y-105612316I426774J260505D01*
G01*
X274842500Y-107856603D02*
G75*
G02*
X274798565Y-108012904I-299680J-87D01*
G01*
X275485845Y-108700184D02*
G75*
G02*
X274798566Y-108012905I-260505J426774D01*
G01*
X275485845Y-108700184D02*
G75*
G02*
X275642147Y-108656274I156255J-256066D01*
G01*
X275642147Y-105656250D02*
G75*
G02*
X275485844Y-105612317I3J300020D01*
G01*
X277442853Y-108656250D02*
G75*
G02*
X277599155Y-108700184I3J-299992D01*
G01*
X277599155Y-105612316D02*
G75*
G02*
X277442853Y-105656250I-156299J256058D01*
G01*
X277599155Y-105612316D02*
G75*
G02*
X278286434Y-106299595I260503J-426776D01*
G01*
X278242500Y-106455897D02*
G75*
G02*
X278286434Y-106299595I299992J3D01*
G01*
X278286434Y-108012905D02*
G75*
G02*
X277599155Y-108700184I-426776J-260503D01*
G01*
X278286434Y-108012905D02*
G75*
G02*
X278242500Y-107856603I256058J156299D01*
G01*
%TO.C,D72*%
X167686250Y-164306250D02*
X167686250Y-163605897D01*
X167686250Y-164306250D02*
X167686250Y-165006603D01*
X169386250Y-162806250D02*
X168485897Y-162806250D01*
X169386250Y-162806250D02*
X170286603Y-162806250D01*
X169386250Y-165806250D02*
X168485897Y-165806250D01*
X169386250Y-165806250D02*
X170286603Y-165806250D01*
X171086250Y-164306250D02*
X171086250Y-163605897D01*
X171086250Y-164306250D02*
X171086250Y-165006603D01*
X167642316Y-163449595D02*
G75*
G02*
X167686226Y-163605897I-256066J-156255D01*
G01*
X167642316Y-163449595D02*
G75*
G02*
X168329595Y-162762316I426774J260505D01*
G01*
X167686250Y-165006603D02*
G75*
G02*
X167642315Y-165162904I-299680J-87D01*
G01*
X168329595Y-165850184D02*
G75*
G02*
X167642316Y-165162905I-260505J426774D01*
G01*
X168329595Y-165850184D02*
G75*
G02*
X168485897Y-165806274I156255J-256066D01*
G01*
X168485897Y-162806250D02*
G75*
G02*
X168329594Y-162762317I3J300020D01*
G01*
X170286603Y-165806250D02*
G75*
G02*
X170442905Y-165850184I3J-299992D01*
G01*
X170442905Y-162762316D02*
G75*
G02*
X170286603Y-162806250I-156299J256058D01*
G01*
X170442905Y-162762316D02*
G75*
G02*
X171130184Y-163449595I260503J-426776D01*
G01*
X171086250Y-163605897D02*
G75*
G02*
X171130184Y-163449595I299992J3D01*
G01*
X171130184Y-165162905D02*
G75*
G02*
X170442905Y-165850184I-426776J-260503D01*
G01*
X171130184Y-165162905D02*
G75*
G02*
X171086250Y-165006603I256058J156299D01*
G01*
%TO.C,D48*%
X110536250Y-107156250D02*
X110536250Y-106455897D01*
X110536250Y-107156250D02*
X110536250Y-107856603D01*
X112236250Y-105656250D02*
X111335897Y-105656250D01*
X112236250Y-105656250D02*
X113136603Y-105656250D01*
X112236250Y-108656250D02*
X111335897Y-108656250D01*
X112236250Y-108656250D02*
X113136603Y-108656250D01*
X113936250Y-107156250D02*
X113936250Y-106455897D01*
X113936250Y-107156250D02*
X113936250Y-107856603D01*
X110492316Y-106299595D02*
G75*
G02*
X110536226Y-106455897I-256066J-156255D01*
G01*
X110492316Y-106299595D02*
G75*
G02*
X111179595Y-105612316I426774J260505D01*
G01*
X110536250Y-107856603D02*
G75*
G02*
X110492315Y-108012904I-299680J-87D01*
G01*
X111179595Y-108700184D02*
G75*
G02*
X110492316Y-108012905I-260505J426774D01*
G01*
X111179595Y-108700184D02*
G75*
G02*
X111335897Y-108656274I156255J-256066D01*
G01*
X111335897Y-105656250D02*
G75*
G02*
X111179594Y-105612317I3J300020D01*
G01*
X113136603Y-108656250D02*
G75*
G02*
X113292905Y-108700184I3J-299992D01*
G01*
X113292905Y-105612316D02*
G75*
G02*
X113136603Y-105656250I-156299J256058D01*
G01*
X113292905Y-105612316D02*
G75*
G02*
X113980184Y-106299595I260503J-426776D01*
G01*
X113936250Y-106455897D02*
G75*
G02*
X113980184Y-106299595I299992J3D01*
G01*
X113980184Y-108012905D02*
G75*
G02*
X113292905Y-108700184I-426776J-260503D01*
G01*
X113980184Y-108012905D02*
G75*
G02*
X113936250Y-107856603I256058J156299D01*
G01*
%TO.C,D123*%
X303417500Y-126206250D02*
X303417500Y-125505897D01*
X303417500Y-126206250D02*
X303417500Y-126906603D01*
X305117500Y-124706250D02*
X304217147Y-124706250D01*
X305117500Y-124706250D02*
X306017853Y-124706250D01*
X305117500Y-127706250D02*
X304217147Y-127706250D01*
X305117500Y-127706250D02*
X306017853Y-127706250D01*
X306817500Y-126206250D02*
X306817500Y-125505897D01*
X306817500Y-126206250D02*
X306817500Y-126906603D01*
X303373566Y-125349595D02*
G75*
G02*
X303417476Y-125505897I-256066J-156255D01*
G01*
X303373566Y-125349595D02*
G75*
G02*
X304060845Y-124662316I426774J260505D01*
G01*
X303417500Y-126906603D02*
G75*
G02*
X303373565Y-127062904I-299680J-87D01*
G01*
X304060845Y-127750184D02*
G75*
G02*
X303373566Y-127062905I-260505J426774D01*
G01*
X304060845Y-127750184D02*
G75*
G02*
X304217147Y-127706274I156255J-256066D01*
G01*
X304217147Y-124706250D02*
G75*
G02*
X304060844Y-124662317I3J300020D01*
G01*
X306017853Y-127706250D02*
G75*
G02*
X306174155Y-127750184I3J-299992D01*
G01*
X306174155Y-124662316D02*
G75*
G02*
X306017853Y-124706250I-156299J256058D01*
G01*
X306174155Y-124662316D02*
G75*
G02*
X306861434Y-125349595I260503J-426776D01*
G01*
X306817500Y-125505897D02*
G75*
G02*
X306861434Y-125349595I299992J3D01*
G01*
X306861434Y-127062905D02*
G75*
G02*
X306174155Y-127750184I-426776J-260503D01*
G01*
X306861434Y-127062905D02*
G75*
G02*
X306817500Y-126906603I256058J156299D01*
G01*
%TO.C,D46*%
X70055000Y-107156250D02*
X70055000Y-106455897D01*
X70055000Y-107156250D02*
X70055000Y-107856603D01*
X71755000Y-105656250D02*
X70854647Y-105656250D01*
X71755000Y-105656250D02*
X72655353Y-105656250D01*
X71755000Y-108656250D02*
X70854647Y-108656250D01*
X71755000Y-108656250D02*
X72655353Y-108656250D01*
X73455000Y-107156250D02*
X73455000Y-106455897D01*
X73455000Y-107156250D02*
X73455000Y-107856603D01*
X70011066Y-106299595D02*
G75*
G02*
X70054976Y-106455897I-256066J-156255D01*
G01*
X70011066Y-106299595D02*
G75*
G02*
X70698345Y-105612316I426774J260505D01*
G01*
X70055000Y-107856603D02*
G75*
G02*
X70011065Y-108012904I-299680J-87D01*
G01*
X70698345Y-108700184D02*
G75*
G02*
X70011066Y-108012905I-260505J426774D01*
G01*
X70698345Y-108700184D02*
G75*
G02*
X70854647Y-108656274I156255J-256066D01*
G01*
X70854647Y-105656250D02*
G75*
G02*
X70698344Y-105612317I3J300020D01*
G01*
X72655353Y-108656250D02*
G75*
G02*
X72811655Y-108700184I3J-299992D01*
G01*
X72811655Y-105612316D02*
G75*
G02*
X72655353Y-105656250I-156299J256058D01*
G01*
X72811655Y-105612316D02*
G75*
G02*
X73498934Y-106299595I260503J-426776D01*
G01*
X73455000Y-106455897D02*
G75*
G02*
X73498934Y-106299595I299992J3D01*
G01*
X73498934Y-108012905D02*
G75*
G02*
X72811655Y-108700184I-426776J-260503D01*
G01*
X73498934Y-108012905D02*
G75*
G02*
X73455000Y-107856603I256058J156299D01*
G01*
%TO.C,D116*%
X293892500Y-107156250D02*
X293892500Y-106455897D01*
X293892500Y-107156250D02*
X293892500Y-107856603D01*
X295592500Y-105656250D02*
X294692147Y-105656250D01*
X295592500Y-105656250D02*
X296492853Y-105656250D01*
X295592500Y-108656250D02*
X294692147Y-108656250D01*
X295592500Y-108656250D02*
X296492853Y-108656250D01*
X297292500Y-107156250D02*
X297292500Y-106455897D01*
X297292500Y-107156250D02*
X297292500Y-107856603D01*
X293848566Y-106299595D02*
G75*
G02*
X293892476Y-106455897I-256066J-156255D01*
G01*
X293848566Y-106299595D02*
G75*
G02*
X294535845Y-105612316I426774J260505D01*
G01*
X293892500Y-107856603D02*
G75*
G02*
X293848565Y-108012904I-299680J-87D01*
G01*
X294535845Y-108700184D02*
G75*
G02*
X293848566Y-108012905I-260505J426774D01*
G01*
X294535845Y-108700184D02*
G75*
G02*
X294692147Y-108656274I156255J-256066D01*
G01*
X294692147Y-105656250D02*
G75*
G02*
X294535844Y-105612317I3J300020D01*
G01*
X296492853Y-108656250D02*
G75*
G02*
X296649155Y-108700184I3J-299992D01*
G01*
X296649155Y-105612316D02*
G75*
G02*
X296492853Y-105656250I-156299J256058D01*
G01*
X296649155Y-105612316D02*
G75*
G02*
X297336434Y-106299595I260503J-426776D01*
G01*
X297292500Y-106455897D02*
G75*
G02*
X297336434Y-106299595I299992J3D01*
G01*
X297336434Y-108012905D02*
G75*
G02*
X296649155Y-108700184I-426776J-260503D01*
G01*
X297336434Y-108012905D02*
G75*
G02*
X297292500Y-107856603I256058J156299D01*
G01*
%TO.C,D66*%
X158161250Y-145256250D02*
X158161250Y-144555897D01*
X158161250Y-145256250D02*
X158161250Y-145956603D01*
X159861250Y-143756250D02*
X158960897Y-143756250D01*
X159861250Y-143756250D02*
X160761603Y-143756250D01*
X159861250Y-146756250D02*
X158960897Y-146756250D01*
X159861250Y-146756250D02*
X160761603Y-146756250D01*
X161561250Y-145256250D02*
X161561250Y-144555897D01*
X161561250Y-145256250D02*
X161561250Y-145956603D01*
X158117316Y-144399595D02*
G75*
G02*
X158161226Y-144555897I-256066J-156255D01*
G01*
X158117316Y-144399595D02*
G75*
G02*
X158804595Y-143712316I426774J260505D01*
G01*
X158161250Y-145956603D02*
G75*
G02*
X158117315Y-146112904I-299680J-87D01*
G01*
X158804595Y-146800184D02*
G75*
G02*
X158117316Y-146112905I-260505J426774D01*
G01*
X158804595Y-146800184D02*
G75*
G02*
X158960897Y-146756274I156255J-256066D01*
G01*
X158960897Y-143756250D02*
G75*
G02*
X158804594Y-143712317I3J300020D01*
G01*
X160761603Y-146756250D02*
G75*
G02*
X160917905Y-146800184I3J-299992D01*
G01*
X160917905Y-143712316D02*
G75*
G02*
X160761603Y-143756250I-156299J256058D01*
G01*
X160917905Y-143712316D02*
G75*
G02*
X161605184Y-144399595I260503J-426776D01*
G01*
X161561250Y-144555897D02*
G75*
G02*
X161605184Y-144399595I299992J3D01*
G01*
X161605184Y-146112905D02*
G75*
G02*
X160917905Y-146800184I-426776J-260503D01*
G01*
X161605184Y-146112905D02*
G75*
G02*
X161561250Y-145956603I256058J156299D01*
G01*
%TO.C,D68*%
X46242500Y-145256250D02*
X46242500Y-144555897D01*
X46242500Y-145256250D02*
X46242500Y-145956603D01*
X47942500Y-143756250D02*
X47042147Y-143756250D01*
X47942500Y-143756250D02*
X48842853Y-143756250D01*
X47942500Y-146756250D02*
X47042147Y-146756250D01*
X47942500Y-146756250D02*
X48842853Y-146756250D01*
X49642500Y-145256250D02*
X49642500Y-144555897D01*
X49642500Y-145256250D02*
X49642500Y-145956603D01*
X46198566Y-144399595D02*
G75*
G02*
X46242476Y-144555897I-256066J-156255D01*
G01*
X46198566Y-144399595D02*
G75*
G02*
X46885845Y-143712316I426774J260505D01*
G01*
X46242500Y-145956603D02*
G75*
G02*
X46198565Y-146112904I-299680J-87D01*
G01*
X46885845Y-146800184D02*
G75*
G02*
X46198566Y-146112905I-260505J426774D01*
G01*
X46885845Y-146800184D02*
G75*
G02*
X47042147Y-146756274I156255J-256066D01*
G01*
X47042147Y-143756250D02*
G75*
G02*
X46885844Y-143712317I3J300020D01*
G01*
X48842853Y-146756250D02*
G75*
G02*
X48999155Y-146800184I3J-299992D01*
G01*
X48999155Y-143712316D02*
G75*
G02*
X48842853Y-143756250I-156299J256058D01*
G01*
X48999155Y-143712316D02*
G75*
G02*
X49686434Y-144399595I260503J-426776D01*
G01*
X49642500Y-144555897D02*
G75*
G02*
X49686434Y-144399595I299992J3D01*
G01*
X49686434Y-146112905D02*
G75*
G02*
X48999155Y-146800184I-426776J-260503D01*
G01*
X49686434Y-146112905D02*
G75*
G02*
X49642500Y-145956603I256058J156299D01*
G01*
%TO.C,D64*%
X120061250Y-145256250D02*
X120061250Y-144555897D01*
X120061250Y-145256250D02*
X120061250Y-145956603D01*
X121761250Y-143756250D02*
X120860897Y-143756250D01*
X121761250Y-143756250D02*
X122661603Y-143756250D01*
X121761250Y-146756250D02*
X120860897Y-146756250D01*
X121761250Y-146756250D02*
X122661603Y-146756250D01*
X123461250Y-145256250D02*
X123461250Y-144555897D01*
X123461250Y-145256250D02*
X123461250Y-145956603D01*
X120017316Y-144399595D02*
G75*
G02*
X120061226Y-144555897I-256066J-156255D01*
G01*
X120017316Y-144399595D02*
G75*
G02*
X120704595Y-143712316I426774J260505D01*
G01*
X120061250Y-145956603D02*
G75*
G02*
X120017315Y-146112904I-299680J-87D01*
G01*
X120704595Y-146800184D02*
G75*
G02*
X120017316Y-146112905I-260505J426774D01*
G01*
X120704595Y-146800184D02*
G75*
G02*
X120860897Y-146756274I156255J-256066D01*
G01*
X120860897Y-143756250D02*
G75*
G02*
X120704594Y-143712317I3J300020D01*
G01*
X122661603Y-146756250D02*
G75*
G02*
X122817905Y-146800184I3J-299992D01*
G01*
X122817905Y-143712316D02*
G75*
G02*
X122661603Y-143756250I-156299J256058D01*
G01*
X122817905Y-143712316D02*
G75*
G02*
X123505184Y-144399595I260503J-426776D01*
G01*
X123461250Y-144555897D02*
G75*
G02*
X123505184Y-144399595I299992J3D01*
G01*
X123505184Y-146112905D02*
G75*
G02*
X122817905Y-146800184I-426776J-260503D01*
G01*
X123505184Y-146112905D02*
G75*
G02*
X123461250Y-145956603I256058J156299D01*
G01*
%TO.C,D120*%
X246267500Y-126206250D02*
X246267500Y-125505897D01*
X246267500Y-126206250D02*
X246267500Y-126906603D01*
X247967500Y-124706250D02*
X247067147Y-124706250D01*
X247967500Y-124706250D02*
X248867853Y-124706250D01*
X247967500Y-127706250D02*
X247067147Y-127706250D01*
X247967500Y-127706250D02*
X248867853Y-127706250D01*
X249667500Y-126206250D02*
X249667500Y-125505897D01*
X249667500Y-126206250D02*
X249667500Y-126906603D01*
X246223566Y-125349595D02*
G75*
G02*
X246267476Y-125505897I-256066J-156255D01*
G01*
X246223566Y-125349595D02*
G75*
G02*
X246910845Y-124662316I426774J260505D01*
G01*
X246267500Y-126906603D02*
G75*
G02*
X246223565Y-127062904I-299680J-87D01*
G01*
X246910845Y-127750184D02*
G75*
G02*
X246223566Y-127062905I-260505J426774D01*
G01*
X246910845Y-127750184D02*
G75*
G02*
X247067147Y-127706274I156255J-256066D01*
G01*
X247067147Y-124706250D02*
G75*
G02*
X246910844Y-124662317I3J300020D01*
G01*
X248867853Y-127706250D02*
G75*
G02*
X249024155Y-127750184I3J-299992D01*
G01*
X249024155Y-124662316D02*
G75*
G02*
X248867853Y-124706250I-156299J256058D01*
G01*
X249024155Y-124662316D02*
G75*
G02*
X249711434Y-125349595I260503J-426776D01*
G01*
X249667500Y-125505897D02*
G75*
G02*
X249711434Y-125349595I299992J3D01*
G01*
X249711434Y-127062905D02*
G75*
G02*
X249024155Y-127750184I-426776J-260503D01*
G01*
X249711434Y-127062905D02*
G75*
G02*
X249667500Y-126906603I256058J156299D01*
G01*
%TO.C,D121*%
X265317500Y-126206250D02*
X265317500Y-125505897D01*
X265317500Y-126206250D02*
X265317500Y-126906603D01*
X267017500Y-124706250D02*
X266117147Y-124706250D01*
X267017500Y-124706250D02*
X267917853Y-124706250D01*
X267017500Y-127706250D02*
X266117147Y-127706250D01*
X267017500Y-127706250D02*
X267917853Y-127706250D01*
X268717500Y-126206250D02*
X268717500Y-125505897D01*
X268717500Y-126206250D02*
X268717500Y-126906603D01*
X265273566Y-125349595D02*
G75*
G02*
X265317476Y-125505897I-256066J-156255D01*
G01*
X265273566Y-125349595D02*
G75*
G02*
X265960845Y-124662316I426774J260505D01*
G01*
X265317500Y-126906603D02*
G75*
G02*
X265273565Y-127062904I-299680J-87D01*
G01*
X265960845Y-127750184D02*
G75*
G02*
X265273566Y-127062905I-260505J426774D01*
G01*
X265960845Y-127750184D02*
G75*
G02*
X266117147Y-127706274I156255J-256066D01*
G01*
X266117147Y-124706250D02*
G75*
G02*
X265960844Y-124662317I3J300020D01*
G01*
X267917853Y-127706250D02*
G75*
G02*
X268074155Y-127750184I3J-299992D01*
G01*
X268074155Y-124662316D02*
G75*
G02*
X267917853Y-124706250I-156299J256058D01*
G01*
X268074155Y-124662316D02*
G75*
G02*
X268761434Y-125349595I260503J-426776D01*
G01*
X268717500Y-125505897D02*
G75*
G02*
X268761434Y-125349595I299992J3D01*
G01*
X268761434Y-127062905D02*
G75*
G02*
X268074155Y-127750184I-426776J-260503D01*
G01*
X268761434Y-127062905D02*
G75*
G02*
X268717500Y-126906603I256058J156299D01*
G01*
%TO.C,D49*%
X129586250Y-107156250D02*
X129586250Y-106455897D01*
X129586250Y-107156250D02*
X129586250Y-107856603D01*
X131286250Y-105656250D02*
X130385897Y-105656250D01*
X131286250Y-105656250D02*
X132186603Y-105656250D01*
X131286250Y-108656250D02*
X130385897Y-108656250D01*
X131286250Y-108656250D02*
X132186603Y-108656250D01*
X132986250Y-107156250D02*
X132986250Y-106455897D01*
X132986250Y-107156250D02*
X132986250Y-107856603D01*
X129542316Y-106299595D02*
G75*
G02*
X129586226Y-106455897I-256066J-156255D01*
G01*
X129542316Y-106299595D02*
G75*
G02*
X130229595Y-105612316I426774J260505D01*
G01*
X129586250Y-107856603D02*
G75*
G02*
X129542315Y-108012904I-299680J-87D01*
G01*
X130229595Y-108700184D02*
G75*
G02*
X129542316Y-108012905I-260505J426774D01*
G01*
X130229595Y-108700184D02*
G75*
G02*
X130385897Y-108656274I156255J-256066D01*
G01*
X130385897Y-105656250D02*
G75*
G02*
X130229594Y-105612317I3J300020D01*
G01*
X132186603Y-108656250D02*
G75*
G02*
X132342905Y-108700184I3J-299992D01*
G01*
X132342905Y-105612316D02*
G75*
G02*
X132186603Y-105656250I-156299J256058D01*
G01*
X132342905Y-105612316D02*
G75*
G02*
X133030184Y-106299595I260503J-426776D01*
G01*
X132986250Y-106455897D02*
G75*
G02*
X133030184Y-106299595I299992J3D01*
G01*
X133030184Y-108012905D02*
G75*
G02*
X132342905Y-108700184I-426776J-260503D01*
G01*
X133030184Y-108012905D02*
G75*
G02*
X132986250Y-107856603I256058J156299D01*
G01*
%TO.C,D55*%
X96248750Y-126206250D02*
X96248750Y-125505897D01*
X96248750Y-126206250D02*
X96248750Y-126906603D01*
X97948750Y-124706250D02*
X97048397Y-124706250D01*
X97948750Y-124706250D02*
X98849103Y-124706250D01*
X97948750Y-127706250D02*
X97048397Y-127706250D01*
X97948750Y-127706250D02*
X98849103Y-127706250D01*
X99648750Y-126206250D02*
X99648750Y-125505897D01*
X99648750Y-126206250D02*
X99648750Y-126906603D01*
X96204816Y-125349595D02*
G75*
G02*
X96248726Y-125505897I-256066J-156255D01*
G01*
X96204816Y-125349595D02*
G75*
G02*
X96892095Y-124662316I426774J260505D01*
G01*
X96248750Y-126906603D02*
G75*
G02*
X96204815Y-127062904I-299680J-87D01*
G01*
X96892095Y-127750184D02*
G75*
G02*
X96204816Y-127062905I-260505J426774D01*
G01*
X96892095Y-127750184D02*
G75*
G02*
X97048397Y-127706274I156255J-256066D01*
G01*
X97048397Y-124706250D02*
G75*
G02*
X96892094Y-124662317I3J300020D01*
G01*
X98849103Y-127706250D02*
G75*
G02*
X99005405Y-127750184I3J-299992D01*
G01*
X99005405Y-124662316D02*
G75*
G02*
X98849103Y-124706250I-156299J256058D01*
G01*
X99005405Y-124662316D02*
G75*
G02*
X99692684Y-125349595I260503J-426776D01*
G01*
X99648750Y-125505897D02*
G75*
G02*
X99692684Y-125349595I299992J3D01*
G01*
X99692684Y-127062905D02*
G75*
G02*
X99005405Y-127750184I-426776J-260503D01*
G01*
X99692684Y-127062905D02*
G75*
G02*
X99648750Y-126906603I256058J156299D01*
G01*
%TO.C,D53*%
X46242500Y-126206250D02*
X46242500Y-125505897D01*
X46242500Y-126206250D02*
X46242500Y-126906603D01*
X47942500Y-124706250D02*
X47042147Y-124706250D01*
X47942500Y-124706250D02*
X48842853Y-124706250D01*
X47942500Y-127706250D02*
X47042147Y-127706250D01*
X47942500Y-127706250D02*
X48842853Y-127706250D01*
X49642500Y-126206250D02*
X49642500Y-125505897D01*
X49642500Y-126206250D02*
X49642500Y-126906603D01*
X46198566Y-125349595D02*
G75*
G02*
X46242476Y-125505897I-256066J-156255D01*
G01*
X46198566Y-125349595D02*
G75*
G02*
X46885845Y-124662316I426774J260505D01*
G01*
X46242500Y-126906603D02*
G75*
G02*
X46198565Y-127062904I-299680J-87D01*
G01*
X46885845Y-127750184D02*
G75*
G02*
X46198566Y-127062905I-260505J426774D01*
G01*
X46885845Y-127750184D02*
G75*
G02*
X47042147Y-127706274I156255J-256066D01*
G01*
X47042147Y-124706250D02*
G75*
G02*
X46885844Y-124662317I3J300020D01*
G01*
X48842853Y-127706250D02*
G75*
G02*
X48999155Y-127750184I3J-299992D01*
G01*
X48999155Y-124662316D02*
G75*
G02*
X48842853Y-124706250I-156299J256058D01*
G01*
X48999155Y-124662316D02*
G75*
G02*
X49686434Y-125349595I260503J-426776D01*
G01*
X49642500Y-125505897D02*
G75*
G02*
X49686434Y-125349595I299992J3D01*
G01*
X49686434Y-127062905D02*
G75*
G02*
X48999155Y-127750184I-426776J-260503D01*
G01*
X49686434Y-127062905D02*
G75*
G02*
X49642500Y-126906603I256058J156299D01*
G01*
%TO.C,D108*%
X270080000Y-88106250D02*
X270080000Y-87405897D01*
X270080000Y-88106250D02*
X270080000Y-88806603D01*
X271780000Y-86606250D02*
X270879647Y-86606250D01*
X271780000Y-86606250D02*
X272680353Y-86606250D01*
X271780000Y-89606250D02*
X270879647Y-89606250D01*
X271780000Y-89606250D02*
X272680353Y-89606250D01*
X273480000Y-88106250D02*
X273480000Y-87405897D01*
X273480000Y-88106250D02*
X273480000Y-88806603D01*
X270036066Y-87249595D02*
G75*
G02*
X270079976Y-87405897I-256066J-156255D01*
G01*
X270036066Y-87249595D02*
G75*
G02*
X270723345Y-86562316I426774J260505D01*
G01*
X270080000Y-88806603D02*
G75*
G02*
X270036065Y-88962904I-299680J-87D01*
G01*
X270723345Y-89650184D02*
G75*
G02*
X270036066Y-88962905I-260505J426774D01*
G01*
X270723345Y-89650184D02*
G75*
G02*
X270879647Y-89606274I156255J-256066D01*
G01*
X270879647Y-86606250D02*
G75*
G02*
X270723344Y-86562317I3J300020D01*
G01*
X272680353Y-89606250D02*
G75*
G02*
X272836655Y-89650184I3J-299992D01*
G01*
X272836655Y-86562316D02*
G75*
G02*
X272680353Y-86606250I-156299J256058D01*
G01*
X272836655Y-86562316D02*
G75*
G02*
X273523934Y-87249595I260503J-426776D01*
G01*
X273480000Y-87405897D02*
G75*
G02*
X273523934Y-87249595I299992J3D01*
G01*
X273523934Y-88962905D02*
G75*
G02*
X272836655Y-89650184I-426776J-260503D01*
G01*
X273523934Y-88962905D02*
G75*
G02*
X273480000Y-88806603I256058J156299D01*
G01*
%TO.C,D106*%
X231980000Y-88106250D02*
X231980000Y-87405897D01*
X231980000Y-88106250D02*
X231980000Y-88806603D01*
X233680000Y-86606250D02*
X232779647Y-86606250D01*
X233680000Y-86606250D02*
X234580353Y-86606250D01*
X233680000Y-89606250D02*
X232779647Y-89606250D01*
X233680000Y-89606250D02*
X234580353Y-89606250D01*
X235380000Y-88106250D02*
X235380000Y-87405897D01*
X235380000Y-88106250D02*
X235380000Y-88806603D01*
X231936066Y-87249595D02*
G75*
G02*
X231979976Y-87405897I-256066J-156255D01*
G01*
X231936066Y-87249595D02*
G75*
G02*
X232623345Y-86562316I426774J260505D01*
G01*
X231980000Y-88806603D02*
G75*
G02*
X231936065Y-88962904I-299680J-87D01*
G01*
X232623345Y-89650184D02*
G75*
G02*
X231936066Y-88962905I-260505J426774D01*
G01*
X232623345Y-89650184D02*
G75*
G02*
X232779647Y-89606274I156255J-256066D01*
G01*
X232779647Y-86606250D02*
G75*
G02*
X232623344Y-86562317I3J300020D01*
G01*
X234580353Y-89606250D02*
G75*
G02*
X234736655Y-89650184I3J-299992D01*
G01*
X234736655Y-86562316D02*
G75*
G02*
X234580353Y-86606250I-156299J256058D01*
G01*
X234736655Y-86562316D02*
G75*
G02*
X235423934Y-87249595I260503J-426776D01*
G01*
X235380000Y-87405897D02*
G75*
G02*
X235423934Y-87249595I299992J3D01*
G01*
X235423934Y-88962905D02*
G75*
G02*
X234736655Y-89650184I-426776J-260503D01*
G01*
X235423934Y-88962905D02*
G75*
G02*
X235380000Y-88806603I256058J156299D01*
G01*
%TD*%
M02*
