M48
; DRILL file KiCad 10.0.5 date 2026-08-29T22:56:27
; FORMAT={-:-/ absolute / metric / decimal}
; #@! TF.CreationDate,2026-08-29T22:56:27+05:30
; #@! TF.GenerationSoftware,Kicad,Pcbnew,10.0.5
; #@! TF.FileFunction,Plated,1,2,PTH
FMAT,2
METRIC
; #@! TA.AperFunction,Plated,PTH,ViaDrill
T1C0.300
; #@! TA.AperFunction,Plated,PTH,ComponentDrill
T2C1.000
; #@! TA.AperFunction,Plated,PTH,ComponentDrill
T3C1.200
; #@! TA.AperFunction,Plated,PTH,ComponentDrill
T4C1.500
; #@! TA.AperFunction,Plated,PTH,ComponentDrill
T5C1.700
; #@! TA.AperFunction,Plated,PTH,ComponentDrill
T6C2.500
; #@! TA.AperFunction,Plated,PTH,ComponentDrill
T7C3.000
%
G90
G05
T1
X37.97Y-113.318
X38.902Y-114.083
X39.057Y-96.85
X39.068Y-129.1
X39.17Y-167.398
X39.193Y-101.972
X39.451Y-161.299
X39.701Y-166.799
X40.0Y-113.85
X40.1Y-163.0
X40.857Y-159.857
X41.457Y-157.0
X42.857Y-157.857
X42.862Y-75.234
X43.995Y-162.512
X45.218Y-125.456
X45.218Y-144.506
X45.218Y-146.006
X45.218Y-163.556
X45.402Y-91.399
X45.817Y-149.25
X48.457Y-114.609
X50.75Y-125.5
X51.75Y-163.25
X52.25Y-98.5
X52.352Y-149.25
X52.361Y-96.881
X56.0Y-74.1
X56.864Y-79.15
X57.5Y-112.65
X57.65Y-72.849
X57.65Y-75.25
X57.65Y-79.0
X57.65Y-79.8
X57.906Y-155.156
X58.0Y-115.25
X58.0Y-117.25
X58.0Y-168.25
X58.6Y-99.25
X59.0Y-159.0
X59.6Y-136.75
X59.6Y-139.0
X59.65Y-74.55
X59.85Y-107.75
X60.0Y-162.25
X60.0Y-168.3
X60.141Y-155.543
X60.25Y-75.65
X60.25Y-123.75
X60.25Y-133.5
X60.25Y-136.0
X60.65Y-114.5
X60.65Y-118.75
X60.65Y-121.0
X61.1Y-167.0
X61.25Y-159.0
X62.25Y-158.75
X62.5Y-157.75
X64.25Y-74.0
X64.75Y-119.7
X66.649Y-87.356
X67.15Y-157.4
X67.486Y-156.579
X68.136Y-155.75
X68.15Y-133.5
X68.786Y-155.245
X69.03Y-106.406
X69.75Y-152.85
X71.326Y-153.924
X71.4Y-154.95
X71.4Y-155.75
X71.411Y-125.456
X73.5Y-159.15
X73.792Y-144.506
X74.0Y-151.65
X74.75Y-91.75
X76.75Y-148.75
X77.346Y-123.75
X77.346Y-131.6
X77.75Y-150.85
X78.546Y-130.4
X78.899Y-74.55
X80.15Y-87.0
X82.161Y-95.75
X83.701Y-148.074
X84.25Y-148.75
X84.35Y-111.5
X84.799Y-147.451
X85.25Y-90.15
X85.311Y-108.689
X85.699Y-87.356
X88.424Y-151.076
X88.451Y-152.799
X90.461Y-106.406
X91.141Y-167.543
X91.819Y-131.181
X95.0Y-97.5
X95.224Y-125.456
X96.0Y-106.5
X97.949Y-74.55
X99.986Y-144.506
X100.409Y-106.5
X103.174Y-92.0
X104.749Y-87.356
X105.181Y-147.431
X105.436Y-144.506
X105.974Y-125.5
X106.0Y-80.204
X106.5Y-74.7
X106.65Y-146.65
X107.116Y-168.3
X109.511Y-106.406
X109.511Y-163.556
X110.719Y-131.1
X111.5Y-91.75
X112.236Y-131.7
X114.25Y-127.0
X114.274Y-125.456
X117.25Y-148.75
X119.036Y-144.506
X119.334Y-147.05
X121.371Y-99.254
X121.761Y-150.85
X123.5Y-94.25
X123.5Y-99.254
X123.799Y-87.356
X124.486Y-144.506
X126.462Y-112.712
X126.5Y-111.15
X128.5Y-108.0
X128.561Y-106.406
X128.561Y-163.556
X130.669Y-125.767
X131.15Y-90.15
X131.15Y-92.0
X132.0Y-132.75
X132.75Y-134.4
X132.75Y-137.354
X133.324Y-125.456
X133.324Y-126.956
X134.0Y-106.5
X136.0Y-74.5
X137.15Y-89.75
X137.794Y-90.488
X138.0Y-91.85
X138.086Y-144.506
X138.384Y-147.05
X139.15Y-90.65
X142.5Y-94.65
X142.5Y-99.254
X142.849Y-87.356
X144.074Y-125.5
X144.174Y-109.076
X145.574Y-111.15
X145.574Y-112.65
X146.0Y-74.7
X146.339Y-76.911
X147.611Y-106.406
X147.611Y-163.75
X147.636Y-93.364
X147.75Y-108.0
X148.25Y-110.6
X148.5Y-87.25
X150.036Y-133.024
X152.374Y-125.456
X152.374Y-126.956
X152.651Y-109.4
X155.099Y-74.7
X156.137Y-140.933
X157.136Y-144.506
X158.216Y-138.554
X159.861Y-93.6
X161.5Y-94.65
X161.899Y-87.356
X162.141Y-109.293
X162.586Y-144.506
X163.124Y-125.5
X164.624Y-112.65
X166.25Y-142.4
X166.661Y-106.406
X166.661Y-163.556
X171.0Y-156.404
X171.1Y-99.25
X171.25Y-94.65
X171.424Y-125.456
X171.424Y-126.956
X172.25Y-163.5
X172.5Y-94.25
X173.5Y-109.15
X174.25Y-74.5
X174.5Y-143.6
X176.186Y-144.506
X177.25Y-138.554
X179.703Y-108.547
X180.0Y-132.35
X180.949Y-87.356
X182.174Y-125.5
X182.174Y-131.5
X183.374Y-132.0
X183.374Y-133.75
X183.662Y-112.662
X185.711Y-106.406
X187.799Y-147.701
X188.4Y-143.0
X189.379Y-86.361
X189.951Y-133.549
X190.474Y-125.456
X190.474Y-126.956
X191.051Y-111.1
X191.646Y-105.25
X192.051Y-135.649
X192.855Y-163.556
X196.409Y-126.046
X196.409Y-129.201
X199.25Y-170.5
X199.735Y-169.864
X199.99Y-167.237
X199.99Y-168.037
X199.99Y-168.837
X199.999Y-87.356
X200.0Y-88.75
X201.5Y-93.0
X203.0Y-142.35
X203.0Y-143.6
X205.5Y-130.75
X205.5Y-133.5
X205.5Y-140.35
X205.5Y-141.15
X205.5Y-143.0
X205.9Y-111.0
X227.75Y-87.0
X229.85Y-86.807
X235.718Y-107.906
X235.75Y-104.5
X235.75Y-163.25
X241.167Y-106.406
X242.75Y-144.5
X243.0Y-125.0
X243.205Y-77.85
X245.25Y-88.25
X245.5Y-86.35
X246.25Y-81.404
X246.749Y-86.751
X248.85Y-107.906
X250.692Y-125.456
X250.951Y-112.35
X253.0Y-111.15
X253.5Y-104.75
X254.5Y-112.85
X255.0Y-100.454
X255.5Y-149.85
X256.9Y-140.5
X257.493Y-131.7
X257.493Y-150.75
X257.5Y-138.554
X260.5Y-163.5
X261.0Y-124.25
X262.75Y-143.5
X263.0Y-149.85
X263.1Y-163.5
X263.35Y-124.807
X264.5Y-114.85
X264.5Y-134.064
X264.674Y-119.504
X265.17Y-72.679
X265.451Y-148.201
X265.5Y-149.85
X266.0Y-87.75
X266.657Y-112.75
X267.017Y-96.9
X267.326Y-110.674
X268.034Y-148.233
X268.35Y-87.75
X270.5Y-149.85
X271.451Y-150.701
X272.0Y-105.75
X273.25Y-129.5
X275.75Y-129.5
X276.5Y-123.188
X276.5Y-138.554
X277.801Y-148.65
X278.0Y-119.504
X279.5Y-128.3
X279.5Y-129.75
X281.25Y-163.5
X281.305Y-77.85
X281.75Y-143.75
X282.243Y-129.5
X283.175Y-73.173
X283.5Y-134.064
X283.77Y-72.638
X284.0Y-114.85
X285.4Y-110.0
X286.0Y-108.506
X286.067Y-96.9
X287.0Y-85.0
X288.207Y-86.391
X289.25Y-113.149
X291.25Y-105.75
X291.5Y-114.85
X293.65Y-112.549
X293.65Y-113.5
X295.5Y-119.504
X295.571Y-115.929
X295.592Y-112.65
X295.592Y-150.75
X299.25Y-125.5
X299.65Y-130.75
X300.25Y-127.9
X300.5Y-143.75
X302.35Y-74.036
X302.391Y-73.237
X302.5Y-134.064
X303.02Y-72.638
X305.118Y-96.9
X305.25Y-98.25
X305.25Y-106.75
X305.5Y-132.864
X306.75Y-85.0
X307.057Y-86.35
X310.0Y-106.0
X312.25Y-132.3
X312.75Y-111.35
X314.5Y-166.15
X314.642Y-112.65
X314.642Y-115.95
X316.346Y-99.254
X316.5Y-138.554
X316.68Y-163.556
X318.75Y-143.75
X318.85Y-73.568
X319.405Y-77.85
X319.5Y-125.5
X319.75Y-131.35
X320.85Y-143.75
X321.35Y-73.049
X321.35Y-73.849
X321.35Y-75.5
X321.35Y-76.3
X321.442Y-126.956
X321.75Y-134.064
X322.168Y-76.435
X322.53Y-74.932
X322.55Y-75.732
X323.25Y-89.9
X323.5Y-132.3
X324.167Y-96.9
X324.167Y-98.25
X325.35Y-88.061
X326.292Y-143.0
X327.65Y-109.5
X328.85Y-108.0
X328.93Y-150.75
X329.867Y-130.034
X331.455Y-85.607
X331.75Y-131.1
X333.25Y-91.05
X333.35Y-86.0
X333.692Y-115.95
X333.692Y-135.0
X333.75Y-163.25
X335.75Y-130.634
X336.5Y-104.25
X336.75Y-129.35
X338.25Y-144.5
X338.85Y-106.0
X339.0Y-130.634
X339.25Y-105.0
X339.503Y-104.241
X340.1Y-148.5
X340.25Y-110.75
X341.0Y-76.0
X341.0Y-77.2
X341.05Y-110.75
X343.109Y-96.792
X343.75Y-87.5
X344.424Y-76.023
X344.849Y-74.75
X345.15Y-90.6
X345.15Y-91.4
X345.15Y-92.2
X345.15Y-93.0
X345.414Y-75.316
X345.942Y-144.506
X345.98Y-75.881
X346.25Y-124.0
X346.35Y-87.356
X346.35Y-90.0
X346.35Y-94.4
X347.98Y-150.75
X350.802Y-75.573
X350.826Y-74.773
X351.106Y-76.313
X351.5Y-103.75
X352.307Y-105.35
X352.584Y-94.4
X352.743Y-131.7
X352.75Y-130.634
X352.75Y-163.0
X353.571Y-123.5
X353.571Y-137.777
X354.731Y-151.269
X355.763Y-90.388
X357.75Y-94.4
X358.5Y-91.2
X360.23Y-163.556
X360.75Y-91.2
X360.75Y-134.5
X361.0Y-127.5
X362.0Y-137.0
X362.505Y-130.996
X364.589Y-112.661
X365.249Y-73.9
X366.451Y-80.549
X367.03Y-77.85
X367.03Y-96.9
X367.212Y-91.559
X369.75Y-94.4
X370.5Y-134.5
X370.549Y-72.237
X371.257Y-124.335
X372.083Y-72.667
X372.75Y-118.0
X373.51Y-96.24
X374.856Y-93.901
X381.0Y-77.75
X386.116Y-140.048
X386.867Y-72.237
T2
X40.692Y-102.275
X40.692Y-104.775
X40.692Y-107.275
X55.192Y-102.275
X55.192Y-107.275
T3
X377.186Y-102.457
X377.186Y-135.457
X380.686Y-135.457
T5
X374.736Y-107.557
X374.736Y-130.357
X383.136Y-106.358
X383.136Y-131.558
T6
X44.942Y-78.844
X48.343Y-78.844
X378.536Y-87.844
X381.936Y-87.844
T7
X45.402Y-116.364
X45.402Y-135.414
X45.402Y-154.464
X51.752Y-118.904
X51.752Y-137.954
X51.752Y-157.004
X66.834Y-78.264
X69.215Y-97.314
X71.596Y-116.364
X73.184Y-80.804
X73.977Y-135.414
X75.565Y-99.854
X77.946Y-118.904
X80.328Y-137.954
X85.884Y-78.264
X90.646Y-97.314
X92.234Y-80.804
X95.409Y-116.364
X96.996Y-99.854
X100.171Y-135.414
X101.759Y-118.904
X104.934Y-78.264
X106.521Y-137.954
X109.696Y-97.314
X109.696Y-154.464
X111.284Y-80.804
X114.459Y-116.364
X116.046Y-99.854
X116.046Y-157.004
X119.221Y-135.414
X120.809Y-118.904
X123.984Y-78.264
X125.571Y-137.954
X128.746Y-97.314
X128.746Y-154.464
X130.334Y-80.804
X133.509Y-116.364
X135.096Y-99.854
X135.096Y-157.004
X138.271Y-135.414
X139.859Y-118.904
X143.034Y-78.264
X144.621Y-137.954
X147.796Y-97.314
X147.796Y-154.464
X149.384Y-80.804
X152.559Y-116.364
X154.146Y-99.854
X154.146Y-157.004
X157.321Y-135.414
X158.909Y-118.904
X162.084Y-78.264
X163.671Y-137.954
X166.846Y-97.314
X166.846Y-154.464
X168.434Y-80.804
X171.609Y-116.364
X173.196Y-99.854
X173.196Y-157.004
X176.371Y-135.414
X177.959Y-118.904
X181.134Y-78.264
X182.721Y-137.954
X185.896Y-97.314
X187.484Y-80.804
X190.659Y-116.364
X192.246Y-99.854
X193.04Y-154.464
X197.009Y-118.904
X199.39Y-157.004
X200.184Y-78.264
X206.534Y-80.804
X231.14Y-78.264
X235.903Y-97.314
X237.49Y-80.804
X238.284Y-154.464
X242.252Y-99.854
X244.634Y-157.004
X245.427Y-116.364
X245.427Y-135.414
X250.19Y-78.264
X251.777Y-118.904
X251.777Y-137.954
X254.952Y-97.314
X256.54Y-80.804
X261.303Y-99.854
X264.477Y-116.364
X264.477Y-135.414
X264.477Y-154.464
X269.24Y-78.264
X270.827Y-118.904
X270.827Y-137.954
X270.827Y-157.004
X274.002Y-97.314
X275.59Y-80.804
X280.352Y-99.854
X283.527Y-116.364
X283.527Y-135.414
X283.527Y-154.464
X288.29Y-78.264
X289.877Y-118.904
X289.877Y-137.954
X289.877Y-157.004
X293.053Y-97.314
X294.64Y-80.804
X299.402Y-99.854
X302.577Y-116.364
X302.577Y-135.414
X307.34Y-78.264
X308.928Y-118.904
X308.928Y-137.954
X312.102Y-97.314
X313.69Y-80.804
X316.865Y-154.464
X318.452Y-99.854
X321.627Y-116.364
X321.627Y-135.414
X323.215Y-157.004
X326.39Y-78.264
X327.977Y-118.904
X327.977Y-137.954
X331.152Y-97.314
X332.74Y-80.804
X335.915Y-154.464
X337.502Y-99.854
X340.678Y-135.414
X342.265Y-157.004
X347.027Y-137.954
X347.821Y-116.364
X350.202Y-78.264
X352.584Y-97.314
X354.171Y-118.904
X354.965Y-154.464
X356.553Y-80.804
X358.934Y-99.854
X361.315Y-157.004
T4
G00X47.542Y-99.175
M15
G01X48.843Y-99.175
M16
G05
G00X47.542Y-110.375
M15
G01X48.843Y-110.375
M16
G05
M30
