%TF.GenerationSoftware,KiCad,Pcbnew,10.0.5*%
%TF.CreationDate,2026-08-29T22:56:13+05:30*%
%TF.ProjectId,kicad,6b696361-642e-46b6-9963-61645f706362,rev?*%
%TF.SameCoordinates,Original*%
%TF.FileFunction,Soldermask,Bot*%
%TF.FilePolarity,Negative*%
%FSLAX46Y46*%
G04 Gerber Fmt 4.6, Leading zero omitted, Abs format (unit mm)*
G04 Created by KiCad (PCBNEW 10.0.5) date 2026-08-29 22:56:13*
%MOMM*%
%LPD*%
G01*
G04 APERTURE LIST*
G04 Aperture macros list*
%AMRoundRect*
0 Rectangle with rounded corners*
0 $1 Rounding radius*
0 $2 $3 $4 $5 $6 $7 $8 $9 X,Y pos of 4 corners*
0 Add a 4 corners polygon primitive as box body*
4,1,4,$2,$3,$4,$5,$6,$7,$8,$9,$2,$3,0*
0 Add four circle primitives for the rounded corners*
1,1,$1+$1,$2,$3*
1,1,$1+$1,$4,$5*
1,1,$1+$1,$6,$7*
1,1,$1+$1,$8,$9*
0 Add four rect primitives between the rounded corners*
20,1,$1+$1,$2,$3,$4,$5,0*
20,1,$1+$1,$4,$5,$6,$7,0*
20,1,$1+$1,$6,$7,$8,$9,0*
20,1,$1+$1,$8,$9,$2,$3,0*%
G04 Aperture macros list end*
%ADD10C,1.750000*%
%ADD11C,3.987800*%
%ADD12C,3.300000*%
%ADD13RoundRect,0.250000X-1.025000X-1.000000X1.025000X-1.000000X1.025000X1.000000X-1.025000X1.000000X0*%
%ADD14C,0.500000*%
%ADD15R,1.750000X1.750000*%
%ADD16C,2.700000*%
%ADD17R,2.000000X2.000000*%
%ADD18C,2.000000*%
%ADD19R,3.200000X2.000000*%
%ADD20RoundRect,0.205000X0.470000X0.205000X-0.470000X0.205000X-0.470000X-0.205000X0.470000X-0.205000X0*%
%ADD21RoundRect,0.250000X0.450000X-0.262500X0.450000X0.262500X-0.450000X0.262500X-0.450000X-0.262500X0*%
%ADD22RoundRect,0.225000X0.375000X-0.225000X0.375000X0.225000X-0.375000X0.225000X-0.375000X-0.225000X0*%
%ADD23RoundRect,0.225000X-0.375000X0.225000X-0.375000X-0.225000X0.375000X-0.225000X0.375000X0.225000X0*%
%ADD24RoundRect,0.550800X0.500000X-0.875000X0.500000X0.875000X-0.500000X0.875000X-0.500000X-0.875000X0*%
%ADD25RoundRect,0.800800X-0.750000X0.750000X-0.750000X-0.750000X0.750000X-0.750000X0.750000X0.750000X0*%
%ADD26RoundRect,0.325800X0.975000X0.275000X-0.975000X0.275000X-0.975000X-0.275000X0.975000X-0.275000X0*%
%ADD27C,1.700000*%
%ADD28RoundRect,0.100000X0.100000X-0.850000X0.100000X0.850000X-0.100000X0.850000X-0.100000X-0.850000X0*%
%ADD29RoundRect,0.205000X0.205000X-0.470000X0.205000X0.470000X-0.205000X0.470000X-0.205000X-0.470000X0*%
%ADD30RoundRect,0.550800X-0.500000X0.875000X-0.500000X-0.875000X0.500000X-0.875000X0.500000X0.875000X0*%
%ADD31RoundRect,0.800800X0.750000X-0.750000X0.750000X0.750000X-0.750000X0.750000X-0.750000X-0.750000X0*%
%ADD32RoundRect,0.325800X-0.975000X-0.275000X0.975000X-0.275000X0.975000X0.275000X-0.975000X0.275000X0*%
G04 APERTURE END LIST*
D10*
%TO.C,SW37*%
X190500000Y-159543750D03*
D11*
X195580000Y-159543750D03*
D10*
X200660000Y-159543750D03*
D12*
X199390000Y-157003750D03*
D13*
X202940000Y-157003750D03*
X189490000Y-154463750D03*
D12*
X193040000Y-154463750D03*
%TD*%
D10*
%TO.C,SW31*%
X42862500Y-121443750D03*
D11*
X47942500Y-121443750D03*
D10*
X53022500Y-121443750D03*
D12*
X51752500Y-118903750D03*
D13*
X55302500Y-118903750D03*
X41852500Y-116363750D03*
D12*
X45402500Y-116363750D03*
%TD*%
D10*
%TO.C,SW54*%
X319087500Y-121443750D03*
D11*
X324167500Y-121443750D03*
D10*
X329247500Y-121443750D03*
D12*
X327977500Y-118903750D03*
D13*
X331527500Y-118903750D03*
X318077500Y-116363750D03*
D12*
X321627500Y-116363750D03*
%TD*%
D10*
%TO.C,SW2*%
X64293750Y-83343750D03*
D11*
X69373750Y-83343750D03*
D10*
X74453750Y-83343750D03*
D12*
X73183750Y-80803750D03*
D13*
X76733750Y-80803750D03*
X63283750Y-78263750D03*
D12*
X66833750Y-78263750D03*
%TD*%
D10*
%TO.C,SW38*%
X228600000Y-83343750D03*
D11*
X233680000Y-83343750D03*
D10*
X238760000Y-83343750D03*
D12*
X237490000Y-80803750D03*
D13*
X241040000Y-80803750D03*
X227590000Y-78263750D03*
D12*
X231140000Y-78263750D03*
%TD*%
D10*
%TO.C,SW8*%
X178593750Y-83343750D03*
D11*
X183673750Y-83343750D03*
D10*
X188753750Y-83343750D03*
D12*
X187483750Y-80803750D03*
D13*
X191033750Y-80803750D03*
X177583750Y-78263750D03*
D12*
X181133750Y-78263750D03*
%TD*%
D10*
%TO.C,SW19*%
X150018750Y-121443750D03*
D11*
X155098750Y-121443750D03*
D10*
X160178750Y-121443750D03*
D12*
X158908750Y-118903750D03*
D13*
X162458750Y-118903750D03*
X149008750Y-116363750D03*
D12*
X152558750Y-116363750D03*
%TD*%
D10*
%TO.C,SW67*%
X235743750Y-159543750D03*
D11*
X240823750Y-159543750D03*
D10*
X245903750Y-159543750D03*
D12*
X244633750Y-157003750D03*
D13*
X248183750Y-157003750D03*
X234733750Y-154463750D03*
D12*
X238283750Y-154463750D03*
%TD*%
D10*
%TO.C,SW46*%
X271462500Y-102393750D03*
D11*
X276542500Y-102393750D03*
D10*
X281622500Y-102393750D03*
D12*
X280352500Y-99853750D03*
D13*
X283902500Y-99853750D03*
X270452500Y-97313750D03*
D12*
X274002500Y-97313750D03*
%TD*%
D10*
%TO.C,SW68*%
X347662500Y-83343750D03*
D11*
X352742500Y-83343750D03*
D10*
X357822500Y-83343750D03*
D12*
X356552500Y-80803750D03*
D13*
X360102500Y-80803750D03*
X346652500Y-78263750D03*
D12*
X350202500Y-78263750D03*
%TD*%
D10*
%TO.C,SW55*%
X242887500Y-140493750D03*
D11*
X247967500Y-140493750D03*
D10*
X253047500Y-140493750D03*
D12*
X251777500Y-137953750D03*
D13*
X255327500Y-137953750D03*
X241877500Y-135413750D03*
D12*
X245427500Y-135413750D03*
%TD*%
D10*
%TO.C,SW26*%
X173831250Y-140493750D03*
D11*
X178911250Y-140493750D03*
D10*
X183991250Y-140493750D03*
D12*
X182721250Y-137953750D03*
D13*
X186271250Y-137953750D03*
X172821250Y-135413750D03*
D12*
X176371250Y-135413750D03*
%TD*%
D10*
%TO.C,SW12*%
X126206250Y-102393750D03*
D11*
X131286250Y-102393750D03*
D10*
X136366250Y-102393750D03*
D12*
X135096250Y-99853750D03*
D13*
X138646250Y-99853750D03*
X125196250Y-97313750D03*
D12*
X128746250Y-97313750D03*
%TD*%
D10*
%TO.C,SW5*%
X121443750Y-83343750D03*
D11*
X126523750Y-83343750D03*
D10*
X131603750Y-83343750D03*
D12*
X130333750Y-80803750D03*
D13*
X133883750Y-80803750D03*
X120433750Y-78263750D03*
D12*
X123983750Y-78263750D03*
%TD*%
D10*
%TO.C,SW48*%
X309562500Y-102393750D03*
D11*
X314642500Y-102393750D03*
D10*
X319722500Y-102393750D03*
D12*
X318452500Y-99853750D03*
D13*
X322002500Y-99853750D03*
X308552500Y-97313750D03*
D12*
X312102500Y-97313750D03*
%TD*%
D14*
%TO.C,REF\u002A\u002A*%
X217325000Y-134200000D03*
X218825000Y-134200000D03*
X217325000Y-133350000D03*
X218825000Y-133350000D03*
X217325000Y-132500000D03*
X218825000Y-132500000D03*
%TD*%
D10*
%TO.C,SW40*%
X266700000Y-83343750D03*
D11*
X271780000Y-83343750D03*
D10*
X276860000Y-83343750D03*
D12*
X275590000Y-80803750D03*
D13*
X279140000Y-80803750D03*
X265690000Y-78263750D03*
D12*
X269240000Y-78263750D03*
%TD*%
D10*
%TO.C,SW36*%
X69056250Y-121443750D03*
D11*
X74136250Y-121443750D03*
D10*
X79216250Y-121443750D03*
D12*
X77946250Y-118903750D03*
D13*
X81496250Y-118903750D03*
X68046250Y-116363750D03*
D12*
X71596250Y-116363750D03*
%TD*%
D14*
%TO.C,REF\u002A\u002A*%
X217325000Y-150868750D03*
X218825000Y-150868750D03*
X217325000Y-150018750D03*
X218825000Y-150018750D03*
X217325000Y-149168750D03*
X218825000Y-149168750D03*
%TD*%
D10*
%TO.C,SW42*%
X304800000Y-83343750D03*
D11*
X309880000Y-83343750D03*
D10*
X314960000Y-83343750D03*
D12*
X313690000Y-80803750D03*
D13*
X317240000Y-80803750D03*
X303790000Y-78263750D03*
D12*
X307340000Y-78263750D03*
%TD*%
D10*
%TO.C,SW6*%
X140493750Y-83343750D03*
D11*
X145573750Y-83343750D03*
D10*
X150653750Y-83343750D03*
D12*
X149383750Y-80803750D03*
D13*
X152933750Y-80803750D03*
X139483750Y-78263750D03*
D12*
X143033750Y-78263750D03*
%TD*%
D10*
%TO.C,SW29*%
X145256250Y-159543750D03*
D11*
X150336250Y-159543750D03*
D10*
X155416250Y-159543750D03*
D12*
X154146250Y-157003750D03*
D13*
X157696250Y-157003750D03*
X144246250Y-154463750D03*
D12*
X147796250Y-154463750D03*
%TD*%
D10*
%TO.C,SW57*%
X280987500Y-140493750D03*
D11*
X286067500Y-140493750D03*
D10*
X291147500Y-140493750D03*
D12*
X289877500Y-137953750D03*
D13*
X293427500Y-137953750D03*
X279977500Y-135413750D03*
D12*
X283527500Y-135413750D03*
%TD*%
D14*
%TO.C,REF\u002A\u002A*%
X217325000Y-100862500D03*
X218825000Y-100862500D03*
X217325000Y-100012500D03*
X218825000Y-100012500D03*
X217325000Y-99162500D03*
X218825000Y-99162500D03*
%TD*%
D10*
%TO.C,SW32*%
X42862500Y-140493750D03*
D11*
X47942500Y-140493750D03*
D10*
X53022500Y-140493750D03*
D12*
X51752500Y-137953750D03*
D13*
X55302500Y-137953750D03*
X41852500Y-135413750D03*
D12*
X45402500Y-135413750D03*
%TD*%
D10*
%TO.C,SW18*%
X130968750Y-121443750D03*
D11*
X136048750Y-121443750D03*
D10*
X141128750Y-121443750D03*
D12*
X139858750Y-118903750D03*
D13*
X143408750Y-118903750D03*
X129958750Y-116363750D03*
D12*
X133508750Y-116363750D03*
%TD*%
D14*
%TO.C,REF\u002A\u002A*%
X217325000Y-85043750D03*
X218825000Y-85043750D03*
X217325000Y-84193750D03*
X218825000Y-84193750D03*
X217325000Y-83343750D03*
X218825000Y-83343750D03*
%TD*%
D10*
%TO.C,SW44*%
X233362500Y-102393750D03*
D11*
X238442500Y-102393750D03*
D10*
X243522500Y-102393750D03*
D12*
X242252500Y-99853750D03*
D13*
X245802500Y-99853750D03*
X232352500Y-97313750D03*
D12*
X235902500Y-97313750D03*
%TD*%
D10*
%TO.C,SW14*%
X164306250Y-102393750D03*
D11*
X169386250Y-102393750D03*
D10*
X174466250Y-102393750D03*
D12*
X173196250Y-99853750D03*
D13*
X176746250Y-99853750D03*
X163296250Y-97313750D03*
D12*
X166846250Y-97313750D03*
%TD*%
D10*
%TO.C,SW66*%
X345281250Y-121443750D03*
D11*
X350361250Y-121443750D03*
D10*
X355441250Y-121443750D03*
D12*
X354171250Y-118903750D03*
D13*
X357721250Y-118903750D03*
X344271250Y-116363750D03*
D12*
X347821250Y-116363750D03*
%TD*%
D10*
%TO.C,SW52*%
X280987500Y-121443750D03*
D11*
X286067500Y-121443750D03*
D10*
X291147500Y-121443750D03*
D12*
X289877500Y-118903750D03*
D13*
X293427500Y-118903750D03*
X279977500Y-116363750D03*
D12*
X283527500Y-116363750D03*
%TD*%
D10*
%TO.C,SW35*%
X66675000Y-102393750D03*
D11*
X71755000Y-102393750D03*
D10*
X76835000Y-102393750D03*
D12*
X75565000Y-99853750D03*
D13*
X79115000Y-99853750D03*
X65665000Y-97313750D03*
D12*
X69215000Y-97313750D03*
%TD*%
D10*
%TO.C,SW51*%
X261937500Y-121443750D03*
D11*
X267017500Y-121443750D03*
D10*
X272097500Y-121443750D03*
D12*
X270827500Y-118903750D03*
D13*
X274377500Y-118903750D03*
X260927500Y-116363750D03*
D12*
X264477500Y-116363750D03*
%TD*%
D10*
%TO.C,SW33*%
X42862500Y-159543750D03*
D11*
X47942500Y-159543750D03*
D10*
X53022500Y-159543750D03*
D12*
X51752500Y-157003750D03*
D13*
X55302500Y-157003750D03*
X41852500Y-154463750D03*
D12*
X45402500Y-154463750D03*
%TD*%
D10*
%TO.C,SW10*%
X88106250Y-102393750D03*
D11*
X93186250Y-102393750D03*
D10*
X98266250Y-102393750D03*
D12*
X96996250Y-99853750D03*
D13*
X100546250Y-99853750D03*
X87096250Y-97313750D03*
D12*
X90646250Y-97313750D03*
%TD*%
D10*
%TO.C,SW20*%
X169068750Y-121443750D03*
D11*
X174148750Y-121443750D03*
D10*
X179228750Y-121443750D03*
D12*
X177958750Y-118903750D03*
D13*
X181508750Y-118903750D03*
X168058750Y-116363750D03*
D12*
X171608750Y-116363750D03*
%TD*%
D10*
%TO.C,SW9*%
X197643750Y-83343750D03*
D11*
X202723750Y-83343750D03*
D10*
X207803750Y-83343750D03*
D12*
X206533750Y-80803750D03*
D13*
X210083750Y-80803750D03*
X196633750Y-78263750D03*
D12*
X200183750Y-78263750D03*
%TD*%
D10*
%TO.C,SW4*%
X102393750Y-83343750D03*
D11*
X107473750Y-83343750D03*
D10*
X112553750Y-83343750D03*
D12*
X111283750Y-80803750D03*
D13*
X114833750Y-80803750D03*
X101383750Y-78263750D03*
D12*
X104933750Y-78263750D03*
%TD*%
D10*
%TO.C,SW28*%
X126206250Y-159543750D03*
D11*
X131286250Y-159543750D03*
D10*
X136366250Y-159543750D03*
D12*
X135096250Y-157003750D03*
D13*
X138646250Y-157003750D03*
X125196250Y-154463750D03*
D12*
X128746250Y-154463750D03*
%TD*%
D10*
%TO.C,SW23*%
X116681250Y-140493750D03*
D11*
X121761250Y-140493750D03*
D10*
X126841250Y-140493750D03*
D12*
X125571250Y-137953750D03*
D13*
X129121250Y-137953750D03*
X115671250Y-135413750D03*
D12*
X119221250Y-135413750D03*
%TD*%
D10*
%TO.C,SW39*%
X247650000Y-83343750D03*
D11*
X252730000Y-83343750D03*
D10*
X257810000Y-83343750D03*
D12*
X256540000Y-80803750D03*
D13*
X260090000Y-80803750D03*
X246640000Y-78263750D03*
D12*
X250190000Y-78263750D03*
%TD*%
D10*
%TO.C,SW53*%
X300037500Y-121443750D03*
D11*
X305117500Y-121443750D03*
D10*
X310197500Y-121443750D03*
D12*
X308927500Y-118903750D03*
D13*
X312477500Y-118903750D03*
X299027500Y-116363750D03*
D12*
X302577500Y-116363750D03*
%TD*%
D10*
%TO.C,SW50*%
X242887500Y-121443750D03*
D11*
X247967500Y-121443750D03*
D10*
X253047500Y-121443750D03*
D12*
X251777500Y-118903750D03*
D13*
X255327500Y-118903750D03*
X241877500Y-116363750D03*
D12*
X245427500Y-116363750D03*
%TD*%
D10*
%TO.C,SW63*%
X314325000Y-159543750D03*
D11*
X319405000Y-159543750D03*
D10*
X324485000Y-159543750D03*
D12*
X323215000Y-157003750D03*
D13*
X326765000Y-157003750D03*
X313315000Y-154463750D03*
D12*
X316865000Y-154463750D03*
%TD*%
D10*
%TO.C,SW41*%
X285750000Y-83343750D03*
D11*
X290830000Y-83343750D03*
D10*
X295910000Y-83343750D03*
D12*
X294640000Y-80803750D03*
D13*
X298190000Y-80803750D03*
X284740000Y-78263750D03*
D12*
X288290000Y-78263750D03*
%TD*%
D10*
%TO.C,SW59*%
X319087500Y-140493750D03*
D11*
X324167500Y-140493750D03*
D10*
X329247500Y-140493750D03*
D12*
X327977500Y-137953750D03*
D13*
X331527500Y-137953750D03*
X318077500Y-135413750D03*
D12*
X321627500Y-135413750D03*
%TD*%
D10*
%TO.C,SW15*%
X183356250Y-102393750D03*
D11*
X188436250Y-102393750D03*
D10*
X193516250Y-102393750D03*
D12*
X192246250Y-99853750D03*
D13*
X195796250Y-99853750D03*
X182346250Y-97313750D03*
D12*
X185896250Y-97313750D03*
%TD*%
D10*
%TO.C,SW13*%
X145256250Y-102393750D03*
D11*
X150336250Y-102393750D03*
D10*
X155416250Y-102393750D03*
D12*
X154146250Y-99853750D03*
D13*
X157696250Y-99853750D03*
X144246250Y-97313750D03*
D12*
X147796250Y-97313750D03*
%TD*%
D14*
%TO.C,REF\u002A\u002A*%
X217325000Y-117531250D03*
X218825000Y-117531250D03*
X217325000Y-116681250D03*
X218825000Y-116681250D03*
X217325000Y-115831250D03*
X218825000Y-115831250D03*
%TD*%
D10*
%TO.C,SW47*%
X290512500Y-102393750D03*
D11*
X295592500Y-102393750D03*
D10*
X300672500Y-102393750D03*
D12*
X299402500Y-99853750D03*
D13*
X302952500Y-99853750D03*
X289502500Y-97313750D03*
D12*
X293052500Y-97313750D03*
%TD*%
D10*
%TO.C,SW30*%
X164306250Y-159543750D03*
D11*
X169386250Y-159543750D03*
D10*
X174466250Y-159543750D03*
D12*
X173196250Y-157003750D03*
D13*
X176746250Y-157003750D03*
X163296250Y-154463750D03*
D12*
X166846250Y-154463750D03*
%TD*%
D15*
%TO.C,RV1*%
X377186250Y-135457500D03*
D10*
X380686250Y-135457500D03*
X377186250Y-102457500D03*
D16*
X383136250Y-131557500D03*
X374736250Y-130357500D03*
X374736250Y-107557500D03*
X383136250Y-106357500D03*
%TD*%
D10*
%TO.C,SW45*%
X252412500Y-102393750D03*
D11*
X257492500Y-102393750D03*
D10*
X262572500Y-102393750D03*
D12*
X261302500Y-99853750D03*
D13*
X264852500Y-99853750D03*
X251402500Y-97313750D03*
D12*
X254952500Y-97313750D03*
%TD*%
D10*
%TO.C,SW7*%
X159543750Y-83343750D03*
D11*
X164623750Y-83343750D03*
D10*
X169703750Y-83343750D03*
D12*
X168433750Y-80803750D03*
D13*
X171983750Y-80803750D03*
X158533750Y-78263750D03*
D12*
X162083750Y-78263750D03*
%TD*%
D14*
%TO.C,REF\u002A\u002A*%
X217325000Y-165156250D03*
X218825000Y-165156250D03*
X217325000Y-164306250D03*
X218825000Y-164306250D03*
X217325000Y-163456250D03*
X218825000Y-163456250D03*
%TD*%
D10*
%TO.C,SW56*%
X261937500Y-140493750D03*
D11*
X267017500Y-140493750D03*
D10*
X272097500Y-140493750D03*
D12*
X270827500Y-137953750D03*
D13*
X274377500Y-137953750D03*
X260927500Y-135413750D03*
D12*
X264477500Y-135413750D03*
%TD*%
D10*
%TO.C,SW11*%
X107156250Y-102393750D03*
D11*
X112236250Y-102393750D03*
D10*
X117316250Y-102393750D03*
D12*
X116046250Y-99853750D03*
D13*
X119596250Y-99853750D03*
X106146250Y-97313750D03*
D12*
X109696250Y-97313750D03*
%TD*%
D17*
%TO.C,SW1*%
X40692500Y-102275000D03*
D18*
X40692500Y-107275000D03*
X40692500Y-104775000D03*
D19*
X48192500Y-99175000D03*
X48192500Y-110375000D03*
D18*
X55192500Y-107275000D03*
X55192500Y-102275000D03*
%TD*%
D10*
%TO.C,SW65*%
X352425000Y-159543750D03*
D11*
X357505000Y-159543750D03*
D10*
X362585000Y-159543750D03*
D12*
X361315000Y-157003750D03*
D13*
X364865000Y-157003750D03*
X351415000Y-154463750D03*
D12*
X354965000Y-154463750D03*
%TD*%
D10*
%TO.C,SW25*%
X154781250Y-140493750D03*
D11*
X159861250Y-140493750D03*
D10*
X164941250Y-140493750D03*
D12*
X163671250Y-137953750D03*
D13*
X167221250Y-137953750D03*
X153771250Y-135413750D03*
D12*
X157321250Y-135413750D03*
%TD*%
D10*
%TO.C,SW61*%
X261937500Y-159543750D03*
D11*
X267017500Y-159543750D03*
D10*
X272097500Y-159543750D03*
D12*
X270827500Y-157003750D03*
D13*
X274377500Y-157003750D03*
X260927500Y-154463750D03*
D12*
X264477500Y-154463750D03*
%TD*%
D10*
%TO.C,SW27*%
X107156250Y-159543750D03*
D11*
X112236250Y-159543750D03*
D10*
X117316250Y-159543750D03*
D12*
X116046250Y-157003750D03*
D13*
X119596250Y-157003750D03*
X106146250Y-154463750D03*
D12*
X109696250Y-154463750D03*
%TD*%
D10*
%TO.C,SW58*%
X300037500Y-140493750D03*
D11*
X305117500Y-140493750D03*
D10*
X310197500Y-140493750D03*
D12*
X308927500Y-137953750D03*
D13*
X312477500Y-137953750D03*
X299027500Y-135413750D03*
D12*
X302577500Y-135413750D03*
%TD*%
D10*
%TO.C,SW34*%
X71437500Y-140493750D03*
D11*
X76517500Y-140493750D03*
D10*
X81597500Y-140493750D03*
D12*
X80327500Y-137953750D03*
D13*
X83877500Y-137953750D03*
X70427500Y-135413750D03*
D12*
X73977500Y-135413750D03*
%TD*%
D10*
%TO.C,SW22*%
X97631250Y-140493750D03*
D11*
X102711250Y-140493750D03*
D10*
X107791250Y-140493750D03*
D12*
X106521250Y-137953750D03*
D13*
X110071250Y-137953750D03*
X96621250Y-135413750D03*
D12*
X100171250Y-135413750D03*
%TD*%
D10*
%TO.C,SW64*%
X333375000Y-159543750D03*
D11*
X338455000Y-159543750D03*
D10*
X343535000Y-159543750D03*
D12*
X342265000Y-157003750D03*
D13*
X345815000Y-157003750D03*
X332365000Y-154463750D03*
D12*
X335915000Y-154463750D03*
%TD*%
D10*
%TO.C,SW3*%
X83343750Y-83343750D03*
D11*
X88423750Y-83343750D03*
D10*
X93503750Y-83343750D03*
D12*
X92233750Y-80803750D03*
D13*
X95783750Y-80803750D03*
X82333750Y-78263750D03*
D12*
X85883750Y-78263750D03*
%TD*%
D10*
%TO.C,SW60*%
X338137500Y-140493750D03*
D11*
X343217500Y-140493750D03*
D10*
X348297500Y-140493750D03*
D12*
X347027500Y-137953750D03*
D13*
X350577500Y-137953750D03*
X337127500Y-135413750D03*
D12*
X340677500Y-135413750D03*
%TD*%
D10*
%TO.C,SW43*%
X323850000Y-83343750D03*
D11*
X328930000Y-83343750D03*
D10*
X334010000Y-83343750D03*
D12*
X332740000Y-80803750D03*
D13*
X336290000Y-80803750D03*
X322840000Y-78263750D03*
D12*
X326390000Y-78263750D03*
%TD*%
D10*
%TO.C,SW16*%
X92868750Y-121443750D03*
D11*
X97948750Y-121443750D03*
D10*
X103028750Y-121443750D03*
D12*
X101758750Y-118903750D03*
D13*
X105308750Y-118903750D03*
X91858750Y-116363750D03*
D12*
X95408750Y-116363750D03*
%TD*%
D10*
%TO.C,SW24*%
X135731250Y-140493750D03*
D11*
X140811250Y-140493750D03*
D10*
X145891250Y-140493750D03*
D12*
X144621250Y-137953750D03*
D13*
X148171250Y-137953750D03*
X134721250Y-135413750D03*
D12*
X138271250Y-135413750D03*
%TD*%
D10*
%TO.C,SW17*%
X111918750Y-121443750D03*
D11*
X116998750Y-121443750D03*
D10*
X122078750Y-121443750D03*
D12*
X120808750Y-118903750D03*
D13*
X124358750Y-118903750D03*
X110908750Y-116363750D03*
D12*
X114458750Y-116363750D03*
%TD*%
D10*
%TO.C,SW21*%
X188118750Y-121443750D03*
D11*
X193198750Y-121443750D03*
D10*
X198278750Y-121443750D03*
D12*
X197008750Y-118903750D03*
D13*
X200558750Y-118903750D03*
X187108750Y-116363750D03*
D12*
X190658750Y-116363750D03*
%TD*%
D10*
%TO.C,SW69*%
X350043750Y-102393750D03*
D11*
X355123750Y-102393750D03*
D10*
X360203750Y-102393750D03*
D12*
X358933750Y-99853750D03*
D13*
X362483750Y-99853750D03*
X349033750Y-97313750D03*
D12*
X352583750Y-97313750D03*
%TD*%
D10*
%TO.C,SW49*%
X328612500Y-102393750D03*
D11*
X333692500Y-102393750D03*
D10*
X338772500Y-102393750D03*
D12*
X337502500Y-99853750D03*
D13*
X341052500Y-99853750D03*
X327602500Y-97313750D03*
D12*
X331152500Y-97313750D03*
%TD*%
D10*
%TO.C,SW62*%
X280987500Y-159543750D03*
D11*
X286067500Y-159543750D03*
D10*
X291147500Y-159543750D03*
D12*
X289877500Y-157003750D03*
D13*
X293427500Y-157003750D03*
X279977500Y-154463750D03*
D12*
X283527500Y-154463750D03*
%TD*%
D20*
%TO.C,D50*%
X153061250Y-107906250D03*
X153061250Y-106406250D03*
X147611250Y-106406250D03*
X147611250Y-107906250D03*
%TD*%
%TO.C,D127*%
X269742500Y-146006250D03*
X269742500Y-144506250D03*
X264292500Y-144506250D03*
X264292500Y-146006250D03*
%TD*%
%TO.C,D71*%
X153061250Y-165250000D03*
X153061250Y-163750000D03*
X147611250Y-163750000D03*
X147611250Y-165250000D03*
%TD*%
D21*
%TO.C,R1*%
X88423750Y-160456250D03*
X88423750Y-158631250D03*
%TD*%
D22*
%TO.C,D97*%
X276542500Y-154050000D03*
X276542500Y-150750000D03*
%TD*%
D20*
%TO.C,D40*%
X129248750Y-88856250D03*
X129248750Y-87356250D03*
X123798750Y-87356250D03*
X123798750Y-88856250D03*
%TD*%
D23*
%TO.C,D29*%
X159861250Y-150750000D03*
X159861250Y-154050000D03*
%TD*%
D18*
%TO.C,TP2*%
X95567500Y-154781250D03*
%TD*%
D23*
%TO.C,D19*%
X164623750Y-112650000D03*
X164623750Y-115950000D03*
%TD*%
D20*
%TO.C,D119*%
X357848750Y-107906250D03*
X357848750Y-106406250D03*
X352398750Y-106406250D03*
X352398750Y-107906250D03*
%TD*%
D22*
%TO.C,D91*%
X257492500Y-135000000D03*
X257492500Y-131700000D03*
%TD*%
%TO.C,D101*%
X367030000Y-154050000D03*
X367030000Y-150750000D03*
%TD*%
%TO.C,D95*%
X333692500Y-135000000D03*
X333692500Y-131700000D03*
%TD*%
%TO.C,D79*%
X338455000Y-77850000D03*
X338455000Y-74550000D03*
%TD*%
%TO.C,D103*%
X257492500Y-154050000D03*
X257492500Y-150750000D03*
%TD*%
D20*
%TO.C,D41*%
X148298750Y-88856250D03*
X148298750Y-87356250D03*
X142848750Y-87356250D03*
X142848750Y-88856250D03*
%TD*%
%TO.C,D42*%
X167348750Y-88856250D03*
X167348750Y-87356250D03*
X161898750Y-87356250D03*
X161898750Y-88856250D03*
%TD*%
D23*
%TO.C,D33*%
X59848750Y-131700000D03*
X59848750Y-135000000D03*
%TD*%
D20*
%TO.C,D134*%
X288792500Y-165056250D03*
X288792500Y-163556250D03*
X283342500Y-163556250D03*
X283342500Y-165056250D03*
%TD*%
%TO.C,D137*%
X360230000Y-165056250D03*
X360230000Y-163556250D03*
X354780000Y-163556250D03*
X354780000Y-165056250D03*
%TD*%
D22*
%TO.C,D84*%
X324167500Y-96900000D03*
X324167500Y-93600000D03*
%TD*%
%TO.C,D31*%
X57467500Y-149287500D03*
X57467500Y-145987500D03*
%TD*%
D23*
%TO.C,D16*%
X107473750Y-112650000D03*
X107473750Y-115950000D03*
%TD*%
D22*
%TO.C,D104*%
X367030000Y-77850000D03*
X367030000Y-74550000D03*
%TD*%
D18*
%TO.C,TP3*%
X355123750Y-142875000D03*
%TD*%
D20*
%TO.C,D37*%
X72098750Y-88856250D03*
X72098750Y-87356250D03*
X66648750Y-87356250D03*
X66648750Y-88856250D03*
%TD*%
D22*
%TO.C,D85*%
X343217500Y-96900000D03*
X343217500Y-93600000D03*
%TD*%
D23*
%TO.C,D12*%
X140811250Y-93600000D03*
X140811250Y-96900000D03*
%TD*%
D20*
%TO.C,D63*%
X105436250Y-146006250D03*
X105436250Y-144506250D03*
X99986250Y-144506250D03*
X99986250Y-146006250D03*
%TD*%
%TO.C,D67*%
X181636250Y-146006250D03*
X181636250Y-144506250D03*
X176186250Y-144506250D03*
X176186250Y-146006250D03*
%TD*%
D23*
%TO.C,D11*%
X121761250Y-93600000D03*
X121761250Y-96900000D03*
%TD*%
D20*
%TO.C,D128*%
X288792500Y-146006250D03*
X288792500Y-144506250D03*
X283342500Y-144506250D03*
X283342500Y-146006250D03*
%TD*%
D22*
%TO.C,D75*%
X262255000Y-77850000D03*
X262255000Y-74550000D03*
%TD*%
D24*
%TO.C,U4*%
X386556250Y-91453750D03*
X384016250Y-91453750D03*
X381476250Y-91453750D03*
X378936250Y-91453750D03*
X376396250Y-91453750D03*
X373856250Y-91453750D03*
X371316250Y-91453750D03*
X371316250Y-75288750D03*
X373856250Y-75288750D03*
X376396250Y-75288750D03*
X378936250Y-75288750D03*
X381476250Y-75288750D03*
X384016250Y-75288750D03*
X386556250Y-75288750D03*
D25*
X378536250Y-87843750D03*
X381936250Y-87843750D03*
D26*
X369699350Y-79588750D03*
X369699350Y-77683750D03*
D27*
X387504750Y-84668750D03*
X387504750Y-82128750D03*
X384964750Y-84668750D03*
X384964750Y-82128750D03*
%TD*%
D22*
%TO.C,D96*%
X352742500Y-135000000D03*
X352742500Y-131700000D03*
%TD*%
D23*
%TO.C,D22*%
X112236250Y-131700000D03*
X112236250Y-135000000D03*
%TD*%
%TO.C,D2*%
X78898750Y-74550000D03*
X78898750Y-77850000D03*
%TD*%
D20*
%TO.C,D122*%
X288792500Y-126956250D03*
X288792500Y-125456250D03*
X283342500Y-125456250D03*
X283342500Y-126956250D03*
%TD*%
D23*
%TO.C,D9*%
X83661250Y-93600000D03*
X83661250Y-96900000D03*
%TD*%
D20*
%TO.C,D112*%
X355467500Y-88856250D03*
X355467500Y-87356250D03*
X350017500Y-87356250D03*
X350017500Y-88856250D03*
%TD*%
D22*
%TO.C,D76*%
X281305000Y-77850000D03*
X281305000Y-74550000D03*
%TD*%
D28*
%TO.C,U3*%
X366492500Y-139231250D03*
X365842500Y-139231250D03*
X365192500Y-139231250D03*
X364542500Y-139231250D03*
X363892500Y-139231250D03*
X363242500Y-139231250D03*
X362592500Y-139231250D03*
X361942500Y-139231250D03*
X361292500Y-139231250D03*
X360642500Y-139231250D03*
X359992500Y-139231250D03*
X359342500Y-139231250D03*
X358692500Y-139231250D03*
X358042500Y-139231250D03*
X358042500Y-132231250D03*
X358692500Y-132231250D03*
X359342500Y-132231250D03*
X359992500Y-132231250D03*
X360642500Y-132231250D03*
X361292500Y-132231250D03*
X361942500Y-132231250D03*
X362592500Y-132231250D03*
X363242500Y-132231250D03*
X363892500Y-132231250D03*
X364542500Y-132231250D03*
X365192500Y-132231250D03*
X365842500Y-132231250D03*
X366492500Y-132231250D03*
%TD*%
D22*
%TO.C,D90*%
X333692500Y-115950000D03*
X333692500Y-112650000D03*
%TD*%
%TO.C,D30*%
X57467500Y-130237500D03*
X57467500Y-126937500D03*
%TD*%
D23*
%TO.C,D34*%
X59848750Y-93600000D03*
X59848750Y-96900000D03*
%TD*%
D22*
%TO.C,D105*%
X367030000Y-96900000D03*
X367030000Y-93600000D03*
%TD*%
D20*
%TO.C,D45*%
X57811250Y-98381250D03*
X57811250Y-96881250D03*
X52361250Y-96881250D03*
X52361250Y-98381250D03*
%TD*%
D23*
%TO.C,D13*%
X159861250Y-93600000D03*
X159861250Y-96900000D03*
%TD*%
D29*
%TO.C,D138*%
X369757467Y-124334843D03*
X371257467Y-124334843D03*
X371257467Y-118884843D03*
X369757467Y-118884843D03*
%TD*%
D22*
%TO.C,D99*%
X328930000Y-154050000D03*
X328930000Y-150750000D03*
%TD*%
%TO.C,D86*%
X257492500Y-115950000D03*
X257492500Y-112650000D03*
%TD*%
%TO.C,D98*%
X295592500Y-154050000D03*
X295592500Y-150750000D03*
%TD*%
D20*
%TO.C,D61*%
X50667500Y-165056250D03*
X50667500Y-163556250D03*
X45217500Y-163556250D03*
X45217500Y-165056250D03*
%TD*%
%TO.C,D69*%
X114961250Y-165056250D03*
X114961250Y-163556250D03*
X109511250Y-163556250D03*
X109511250Y-165056250D03*
%TD*%
D23*
%TO.C,D15*%
X88423750Y-112650000D03*
X88423750Y-115950000D03*
%TD*%
D21*
%TO.C,R2*%
X83661250Y-160456250D03*
X83661250Y-158631250D03*
%TD*%
D20*
%TO.C,D109*%
X293555000Y-88856250D03*
X293555000Y-87356250D03*
X288105000Y-87356250D03*
X288105000Y-88856250D03*
%TD*%
%TO.C,D52*%
X191161250Y-107906250D03*
X191161250Y-106406250D03*
X185711250Y-106406250D03*
X185711250Y-107906250D03*
%TD*%
D21*
%TO.C,R4*%
X361698750Y-148550000D03*
X361698750Y-146725000D03*
%TD*%
%TO.C,R3*%
X367030000Y-148550000D03*
X367030000Y-146725000D03*
%TD*%
D20*
%TO.C,D133*%
X269742500Y-165056250D03*
X269742500Y-163556250D03*
X264292500Y-163556250D03*
X264292500Y-165056250D03*
%TD*%
D23*
%TO.C,D7*%
X174148750Y-74550000D03*
X174148750Y-77850000D03*
%TD*%
D20*
%TO.C,D57*%
X138773750Y-126956250D03*
X138773750Y-125456250D03*
X133323750Y-125456250D03*
X133323750Y-126956250D03*
%TD*%
%TO.C,D117*%
X317367500Y-107906250D03*
X317367500Y-106406250D03*
X311917500Y-106406250D03*
X311917500Y-107906250D03*
%TD*%
D23*
%TO.C,D4*%
X116998750Y-74550000D03*
X116998750Y-77850000D03*
%TD*%
D20*
%TO.C,D47*%
X95911250Y-107906250D03*
X95911250Y-106406250D03*
X90461250Y-106406250D03*
X90461250Y-107906250D03*
%TD*%
D22*
%TO.C,D102*%
X367030000Y-115950000D03*
X367030000Y-112650000D03*
%TD*%
%TO.C,D94*%
X314642500Y-135000000D03*
X314642500Y-131700000D03*
%TD*%
D23*
%TO.C,D35*%
X59848750Y-112650000D03*
X59848750Y-115950000D03*
%TD*%
D20*
%TO.C,D111*%
X331655000Y-88856250D03*
X331655000Y-87356250D03*
X326205000Y-87356250D03*
X326205000Y-88856250D03*
%TD*%
%TO.C,D43*%
X186398750Y-88856250D03*
X186398750Y-87356250D03*
X180948750Y-87356250D03*
X180948750Y-88856250D03*
%TD*%
%TO.C,D107*%
X255798750Y-88856250D03*
X255798750Y-87356250D03*
X250348750Y-87356250D03*
X250348750Y-88856250D03*
%TD*%
%TO.C,D60*%
X195923750Y-126956250D03*
X195923750Y-125456250D03*
X190473750Y-125456250D03*
X190473750Y-126956250D03*
%TD*%
D22*
%TO.C,D80*%
X247967500Y-96900000D03*
X247967500Y-93600000D03*
%TD*%
%TO.C,D77*%
X300355000Y-77850000D03*
X300355000Y-74550000D03*
%TD*%
D20*
%TO.C,D58*%
X157823750Y-126956250D03*
X157823750Y-125456250D03*
X152373750Y-125456250D03*
X152373750Y-126956250D03*
%TD*%
D22*
%TO.C,D78*%
X319405000Y-77850000D03*
X319405000Y-74550000D03*
%TD*%
D30*
%TO.C,U2*%
X40322500Y-75233750D03*
X42862500Y-75233750D03*
X45402500Y-75233750D03*
X47942500Y-75233750D03*
X50482500Y-75233750D03*
X53022500Y-75233750D03*
X55562500Y-75233750D03*
X55562500Y-91398750D03*
X53022500Y-91398750D03*
X50482500Y-91398750D03*
X47942500Y-91398750D03*
X45402500Y-91398750D03*
X42862500Y-91398750D03*
X40322500Y-91398750D03*
D31*
X48342500Y-78843750D03*
X44942500Y-78843750D03*
D32*
X57179400Y-87098750D03*
X57179400Y-89003750D03*
D27*
X39374000Y-82018750D03*
X39374000Y-84558750D03*
X41914000Y-82018750D03*
X41914000Y-84558750D03*
%TD*%
D23*
%TO.C,D20*%
X183673750Y-112650000D03*
X183673750Y-115950000D03*
%TD*%
D20*
%TO.C,D113*%
X241167500Y-107906250D03*
X241167500Y-106406250D03*
X235717500Y-106406250D03*
X235717500Y-107906250D03*
%TD*%
D23*
%TO.C,D1*%
X59848750Y-74550000D03*
X59848750Y-77850000D03*
%TD*%
D22*
%TO.C,D87*%
X276542500Y-115950000D03*
X276542500Y-112650000D03*
%TD*%
D20*
%TO.C,D54*%
X76861250Y-126956250D03*
X76861250Y-125456250D03*
X71411250Y-125456250D03*
X71411250Y-126956250D03*
%TD*%
%TO.C,D62*%
X79242500Y-146006250D03*
X79242500Y-144506250D03*
X73792500Y-144506250D03*
X73792500Y-146006250D03*
%TD*%
%TO.C,D65*%
X143536250Y-146006250D03*
X143536250Y-144506250D03*
X138086250Y-144506250D03*
X138086250Y-146006250D03*
%TD*%
D23*
%TO.C,D14*%
X178911250Y-93600000D03*
X178911250Y-96900000D03*
%TD*%
D18*
%TO.C,TP4*%
X374173750Y-142875000D03*
%TD*%
D20*
%TO.C,D73*%
X198305000Y-165056250D03*
X198305000Y-163556250D03*
X192855000Y-163556250D03*
X192855000Y-165056250D03*
%TD*%
%TO.C,D135*%
X322130000Y-165056250D03*
X322130000Y-163556250D03*
X316680000Y-163556250D03*
X316680000Y-165056250D03*
%TD*%
%TO.C,D39*%
X110198750Y-88856250D03*
X110198750Y-87356250D03*
X104748750Y-87356250D03*
X104748750Y-88856250D03*
%TD*%
D18*
%TO.C,TP1*%
X76517500Y-154781250D03*
%TD*%
D22*
%TO.C,D81*%
X267017500Y-96900000D03*
X267017500Y-93600000D03*
%TD*%
D20*
%TO.C,D56*%
X119723750Y-126956250D03*
X119723750Y-125456250D03*
X114273750Y-125456250D03*
X114273750Y-126956250D03*
%TD*%
%TO.C,D132*%
X243548750Y-165056250D03*
X243548750Y-163556250D03*
X238098750Y-163556250D03*
X238098750Y-165056250D03*
%TD*%
D23*
%TO.C,D25*%
X169386250Y-131700000D03*
X169386250Y-135000000D03*
%TD*%
D22*
%TO.C,D74*%
X243205000Y-77850000D03*
X243205000Y-74550000D03*
%TD*%
D20*
%TO.C,D70*%
X134011250Y-165056250D03*
X134011250Y-163556250D03*
X128561250Y-163556250D03*
X128561250Y-165056250D03*
%TD*%
%TO.C,D51*%
X172111250Y-107906250D03*
X172111250Y-106406250D03*
X166661250Y-106406250D03*
X166661250Y-107906250D03*
%TD*%
%TO.C,D38*%
X91148750Y-88856250D03*
X91148750Y-87356250D03*
X85698750Y-87356250D03*
X85698750Y-88856250D03*
%TD*%
D23*
%TO.C,D6*%
X155098750Y-74550000D03*
X155098750Y-77850000D03*
%TD*%
D20*
%TO.C,D44*%
X205448750Y-88856250D03*
X205448750Y-87356250D03*
X199998750Y-87356250D03*
X199998750Y-88856250D03*
%TD*%
%TO.C,D59*%
X176873750Y-126956250D03*
X176873750Y-125456250D03*
X171423750Y-125456250D03*
X171423750Y-126956250D03*
%TD*%
D22*
%TO.C,D89*%
X314642500Y-115950000D03*
X314642500Y-112650000D03*
%TD*%
D23*
%TO.C,D10*%
X102711250Y-93600000D03*
X102711250Y-96900000D03*
%TD*%
D20*
%TO.C,D130*%
X326892500Y-146006250D03*
X326892500Y-144506250D03*
X321442500Y-144506250D03*
X321442500Y-146006250D03*
%TD*%
D22*
%TO.C,D88*%
X295592500Y-115950000D03*
X295592500Y-112650000D03*
%TD*%
%TO.C,D92*%
X276542500Y-135000000D03*
X276542500Y-131700000D03*
%TD*%
D20*
%TO.C,D136*%
X341180000Y-165056250D03*
X341180000Y-163556250D03*
X335730000Y-163556250D03*
X335730000Y-165056250D03*
%TD*%
D22*
%TO.C,D32*%
X57785000Y-168337500D03*
X57785000Y-165037500D03*
%TD*%
D20*
%TO.C,D125*%
X353086250Y-126956250D03*
X353086250Y-125456250D03*
X347636250Y-125456250D03*
X347636250Y-126956250D03*
%TD*%
%TO.C,D131*%
X345942500Y-146006250D03*
X345942500Y-144506250D03*
X340492500Y-144506250D03*
X340492500Y-146006250D03*
%TD*%
%TO.C,D129*%
X307842500Y-146006250D03*
X307842500Y-144506250D03*
X302392500Y-144506250D03*
X302392500Y-146006250D03*
%TD*%
%TO.C,D126*%
X250692500Y-146006250D03*
X250692500Y-144506250D03*
X245242500Y-144506250D03*
X245242500Y-146006250D03*
%TD*%
%TO.C,D124*%
X326892500Y-126956250D03*
X326892500Y-125456250D03*
X321442500Y-125456250D03*
X321442500Y-126956250D03*
%TD*%
D23*
%TO.C,D23*%
X131286250Y-131700000D03*
X131286250Y-135000000D03*
%TD*%
D20*
%TO.C,D110*%
X312605000Y-88856250D03*
X312605000Y-87356250D03*
X307155000Y-87356250D03*
X307155000Y-88856250D03*
%TD*%
%TO.C,D118*%
X336417500Y-107906250D03*
X336417500Y-106406250D03*
X330967500Y-106406250D03*
X330967500Y-107906250D03*
%TD*%
%TO.C,D114*%
X260217500Y-107906250D03*
X260217500Y-106406250D03*
X254767500Y-106406250D03*
X254767500Y-107906250D03*
%TD*%
%TO.C,D115*%
X279267500Y-107906250D03*
X279267500Y-106406250D03*
X273817500Y-106406250D03*
X273817500Y-107906250D03*
%TD*%
%TO.C,D72*%
X172111250Y-165056250D03*
X172111250Y-163556250D03*
X166661250Y-163556250D03*
X166661250Y-165056250D03*
%TD*%
D23*
%TO.C,D17*%
X126523750Y-112650000D03*
X126523750Y-115950000D03*
%TD*%
D20*
%TO.C,D48*%
X114961250Y-107906250D03*
X114961250Y-106406250D03*
X109511250Y-106406250D03*
X109511250Y-107906250D03*
%TD*%
D23*
%TO.C,D18*%
X145573750Y-112650000D03*
X145573750Y-115950000D03*
%TD*%
D20*
%TO.C,D123*%
X307842500Y-126956250D03*
X307842500Y-125456250D03*
X302392500Y-125456250D03*
X302392500Y-126956250D03*
%TD*%
%TO.C,D46*%
X74480000Y-107906250D03*
X74480000Y-106406250D03*
X69030000Y-106406250D03*
X69030000Y-107906250D03*
%TD*%
%TO.C,D116*%
X298317500Y-107906250D03*
X298317500Y-106406250D03*
X292867500Y-106406250D03*
X292867500Y-107906250D03*
%TD*%
%TO.C,D66*%
X162586250Y-146006250D03*
X162586250Y-144506250D03*
X157136250Y-144506250D03*
X157136250Y-146006250D03*
%TD*%
%TO.C,D68*%
X50667500Y-146006250D03*
X50667500Y-144506250D03*
X45217500Y-144506250D03*
X45217500Y-146006250D03*
%TD*%
%TO.C,D64*%
X124486250Y-146006250D03*
X124486250Y-144506250D03*
X119036250Y-144506250D03*
X119036250Y-146006250D03*
%TD*%
%TO.C,D120*%
X250692500Y-126956250D03*
X250692500Y-125456250D03*
X245242500Y-125456250D03*
X245242500Y-126956250D03*
%TD*%
%TO.C,D121*%
X269742500Y-126956250D03*
X269742500Y-125456250D03*
X264292500Y-125456250D03*
X264292500Y-126956250D03*
%TD*%
%TO.C,D49*%
X134011250Y-107906250D03*
X134011250Y-106406250D03*
X128561250Y-106406250D03*
X128561250Y-107906250D03*
%TD*%
%TO.C,D55*%
X100673750Y-126956250D03*
X100673750Y-125456250D03*
X95223750Y-125456250D03*
X95223750Y-126956250D03*
%TD*%
D23*
%TO.C,D36*%
X178911250Y-150750000D03*
X178911250Y-154050000D03*
%TD*%
D22*
%TO.C,D83*%
X305117500Y-96900000D03*
X305117500Y-93600000D03*
%TD*%
D23*
%TO.C,D5*%
X136048750Y-74550000D03*
X136048750Y-77850000D03*
%TD*%
%TO.C,D24*%
X150336250Y-131700000D03*
X150336250Y-135000000D03*
%TD*%
D22*
%TO.C,D100*%
X347980000Y-154050000D03*
X347980000Y-150750000D03*
%TD*%
%TO.C,D82*%
X286067500Y-96900000D03*
X286067500Y-93600000D03*
%TD*%
D23*
%TO.C,D26*%
X102711250Y-150750000D03*
X102711250Y-154050000D03*
%TD*%
%TO.C,D27*%
X121761250Y-150750000D03*
X121761250Y-154050000D03*
%TD*%
%TO.C,D21*%
X93186250Y-131700000D03*
X93186250Y-135000000D03*
%TD*%
D20*
%TO.C,D53*%
X50667500Y-126956250D03*
X50667500Y-125456250D03*
X45217500Y-125456250D03*
X45217500Y-126956250D03*
%TD*%
D23*
%TO.C,D3*%
X97948750Y-74550000D03*
X97948750Y-77850000D03*
%TD*%
%TO.C,D8*%
X193198750Y-74550000D03*
X193198750Y-77850000D03*
%TD*%
D20*
%TO.C,D108*%
X274505000Y-88856250D03*
X274505000Y-87356250D03*
X269055000Y-87356250D03*
X269055000Y-88856250D03*
%TD*%
%TO.C,D106*%
X236405000Y-88856250D03*
X236405000Y-87356250D03*
X230955000Y-87356250D03*
X230955000Y-88856250D03*
%TD*%
D28*
%TO.C,U1*%
X68836250Y-160662500D03*
X68186250Y-160662500D03*
X67536250Y-160662500D03*
X66886250Y-160662500D03*
X66236250Y-160662500D03*
X65586250Y-160662500D03*
X64936250Y-160662500D03*
X64286250Y-160662500D03*
X63636250Y-160662500D03*
X62986250Y-160662500D03*
X62336250Y-160662500D03*
X61686250Y-160662500D03*
X61036250Y-160662500D03*
X60386250Y-160662500D03*
X60386250Y-153662500D03*
X61036250Y-153662500D03*
X61686250Y-153662500D03*
X62336250Y-153662500D03*
X62986250Y-153662500D03*
X63636250Y-153662500D03*
X64286250Y-153662500D03*
X64936250Y-153662500D03*
X65586250Y-153662500D03*
X66236250Y-153662500D03*
X66886250Y-153662500D03*
X67536250Y-153662500D03*
X68186250Y-153662500D03*
X68836250Y-153662500D03*
%TD*%
D23*
%TO.C,D28*%
X140811250Y-150750000D03*
X140811250Y-154050000D03*
%TD*%
D22*
%TO.C,D93*%
X295592500Y-135000000D03*
X295592500Y-131700000D03*
%TD*%
M02*
