%TF.GenerationSoftware,KiCad,Pcbnew,10.0.5*%
%TF.CreationDate,2026-08-29T22:56:12+05:30*%
%TF.ProjectId,kicad,6b696361-642e-46b6-9963-61645f706362,rev?*%
%TF.SameCoordinates,Original*%
%TF.FileFunction,Paste,Bot*%
%TF.FilePolarity,Positive*%
%FSLAX46Y46*%
G04 Gerber Fmt 4.6, Leading zero omitted, Abs format (unit mm)*
G04 Created by KiCad (PCBNEW 10.0.5) date 2026-08-29 22:56:12*
%MOMM*%
%LPD*%
G01*
G04 APERTURE LIST*
G04 Aperture macros list*
%AMRoundRect*
0 Rectangle with rounded corners*
0 $1 Rounding radius*
0 $2 $3 $4 $5 $6 $7 $8 $9 X,Y pos of 4 corners*
0 Add a 4 corners polygon primitive as box body*
4,1,4,$2,$3,$4,$5,$6,$7,$8,$9,$2,$3,0*
0 Add four circle primitives for the rounded corners*
1,1,$1+$1,$2,$3*
1,1,$1+$1,$4,$5*
1,1,$1+$1,$6,$7*
1,1,$1+$1,$8,$9*
0 Add four rect primitives between the rounded corners*
20,1,$1+$1,$2,$3,$4,$5,0*
20,1,$1+$1,$4,$5,$6,$7,0*
20,1,$1+$1,$6,$7,$8,$9,0*
20,1,$1+$1,$8,$9,$2,$3,0*%
G04 Aperture macros list end*
%ADD10RoundRect,0.250000X-1.025000X-1.000000X1.025000X-1.000000X1.025000X1.000000X-1.025000X1.000000X0*%
%ADD11RoundRect,0.205000X0.470000X0.205000X-0.470000X0.205000X-0.470000X-0.205000X0.470000X-0.205000X0*%
%ADD12RoundRect,0.250000X0.450000X-0.262500X0.450000X0.262500X-0.450000X0.262500X-0.450000X-0.262500X0*%
%ADD13RoundRect,0.225000X0.375000X-0.225000X0.375000X0.225000X-0.375000X0.225000X-0.375000X-0.225000X0*%
%ADD14RoundRect,0.225000X-0.375000X0.225000X-0.375000X-0.225000X0.375000X-0.225000X0.375000X0.225000X0*%
%ADD15RoundRect,0.500000X0.500000X-0.875000X0.500000X0.875000X-0.500000X0.875000X-0.500000X-0.875000X0*%
%ADD16RoundRect,0.275000X0.975000X0.275000X-0.975000X0.275000X-0.975000X-0.275000X0.975000X-0.275000X0*%
%ADD17C,1.700000*%
%ADD18RoundRect,0.100000X0.100000X-0.850000X0.100000X0.850000X-0.100000X0.850000X-0.100000X-0.850000X0*%
%ADD19RoundRect,0.205000X0.205000X-0.470000X0.205000X0.470000X-0.205000X0.470000X-0.205000X-0.470000X0*%
%ADD20RoundRect,0.500000X-0.500000X0.875000X-0.500000X-0.875000X0.500000X-0.875000X0.500000X0.875000X0*%
%ADD21RoundRect,0.275000X-0.975000X-0.275000X0.975000X-0.275000X0.975000X0.275000X-0.975000X0.275000X0*%
G04 APERTURE END LIST*
D10*
%TO.C,SW37*%
X202940000Y-157003750D03*
X189490000Y-154463750D03*
%TD*%
%TO.C,SW31*%
X55302500Y-118903750D03*
X41852500Y-116363750D03*
%TD*%
%TO.C,SW54*%
X331527500Y-118903750D03*
X318077500Y-116363750D03*
%TD*%
%TO.C,SW2*%
X76733750Y-80803750D03*
X63283750Y-78263750D03*
%TD*%
%TO.C,SW38*%
X241040000Y-80803750D03*
X227590000Y-78263750D03*
%TD*%
%TO.C,SW8*%
X191033750Y-80803750D03*
X177583750Y-78263750D03*
%TD*%
%TO.C,SW19*%
X162458750Y-118903750D03*
X149008750Y-116363750D03*
%TD*%
%TO.C,SW67*%
X248183750Y-157003750D03*
X234733750Y-154463750D03*
%TD*%
%TO.C,SW46*%
X283902500Y-99853750D03*
X270452500Y-97313750D03*
%TD*%
%TO.C,SW68*%
X360102500Y-80803750D03*
X346652500Y-78263750D03*
%TD*%
%TO.C,SW55*%
X255327500Y-137953750D03*
X241877500Y-135413750D03*
%TD*%
%TO.C,SW26*%
X186271250Y-137953750D03*
X172821250Y-135413750D03*
%TD*%
%TO.C,SW12*%
X138646250Y-99853750D03*
X125196250Y-97313750D03*
%TD*%
%TO.C,SW5*%
X133883750Y-80803750D03*
X120433750Y-78263750D03*
%TD*%
%TO.C,SW48*%
X322002500Y-99853750D03*
X308552500Y-97313750D03*
%TD*%
%TO.C,SW40*%
X279140000Y-80803750D03*
X265690000Y-78263750D03*
%TD*%
%TO.C,SW36*%
X81496250Y-118903750D03*
X68046250Y-116363750D03*
%TD*%
%TO.C,SW42*%
X317240000Y-80803750D03*
X303790000Y-78263750D03*
%TD*%
%TO.C,SW6*%
X152933750Y-80803750D03*
X139483750Y-78263750D03*
%TD*%
%TO.C,SW29*%
X157696250Y-157003750D03*
X144246250Y-154463750D03*
%TD*%
%TO.C,SW57*%
X293427500Y-137953750D03*
X279977500Y-135413750D03*
%TD*%
%TO.C,SW32*%
X55302500Y-137953750D03*
X41852500Y-135413750D03*
%TD*%
%TO.C,SW18*%
X143408750Y-118903750D03*
X129958750Y-116363750D03*
%TD*%
%TO.C,SW44*%
X245802500Y-99853750D03*
X232352500Y-97313750D03*
%TD*%
%TO.C,SW14*%
X176746250Y-99853750D03*
X163296250Y-97313750D03*
%TD*%
%TO.C,SW66*%
X357721250Y-118903750D03*
X344271250Y-116363750D03*
%TD*%
%TO.C,SW52*%
X293427500Y-118903750D03*
X279977500Y-116363750D03*
%TD*%
%TO.C,SW35*%
X79115000Y-99853750D03*
X65665000Y-97313750D03*
%TD*%
%TO.C,SW51*%
X274377500Y-118903750D03*
X260927500Y-116363750D03*
%TD*%
%TO.C,SW33*%
X55302500Y-157003750D03*
X41852500Y-154463750D03*
%TD*%
%TO.C,SW10*%
X100546250Y-99853750D03*
X87096250Y-97313750D03*
%TD*%
%TO.C,SW20*%
X181508750Y-118903750D03*
X168058750Y-116363750D03*
%TD*%
%TO.C,SW9*%
X210083750Y-80803750D03*
X196633750Y-78263750D03*
%TD*%
%TO.C,SW4*%
X114833750Y-80803750D03*
X101383750Y-78263750D03*
%TD*%
%TO.C,SW28*%
X138646250Y-157003750D03*
X125196250Y-154463750D03*
%TD*%
%TO.C,SW23*%
X129121250Y-137953750D03*
X115671250Y-135413750D03*
%TD*%
%TO.C,SW39*%
X260090000Y-80803750D03*
X246640000Y-78263750D03*
%TD*%
%TO.C,SW53*%
X312477500Y-118903750D03*
X299027500Y-116363750D03*
%TD*%
%TO.C,SW50*%
X255327500Y-118903750D03*
X241877500Y-116363750D03*
%TD*%
%TO.C,SW63*%
X326765000Y-157003750D03*
X313315000Y-154463750D03*
%TD*%
%TO.C,SW41*%
X298190000Y-80803750D03*
X284740000Y-78263750D03*
%TD*%
%TO.C,SW59*%
X331527500Y-137953750D03*
X318077500Y-135413750D03*
%TD*%
%TO.C,SW15*%
X195796250Y-99853750D03*
X182346250Y-97313750D03*
%TD*%
%TO.C,SW13*%
X157696250Y-99853750D03*
X144246250Y-97313750D03*
%TD*%
%TO.C,SW47*%
X302952500Y-99853750D03*
X289502500Y-97313750D03*
%TD*%
%TO.C,SW30*%
X176746250Y-157003750D03*
X163296250Y-154463750D03*
%TD*%
%TO.C,SW45*%
X264852500Y-99853750D03*
X251402500Y-97313750D03*
%TD*%
%TO.C,SW7*%
X171983750Y-80803750D03*
X158533750Y-78263750D03*
%TD*%
%TO.C,SW56*%
X274377500Y-137953750D03*
X260927500Y-135413750D03*
%TD*%
%TO.C,SW11*%
X119596250Y-99853750D03*
X106146250Y-97313750D03*
%TD*%
%TO.C,SW65*%
X364865000Y-157003750D03*
X351415000Y-154463750D03*
%TD*%
%TO.C,SW25*%
X167221250Y-137953750D03*
X153771250Y-135413750D03*
%TD*%
%TO.C,SW61*%
X274377500Y-157003750D03*
X260927500Y-154463750D03*
%TD*%
%TO.C,SW27*%
X119596250Y-157003750D03*
X106146250Y-154463750D03*
%TD*%
%TO.C,SW58*%
X312477500Y-137953750D03*
X299027500Y-135413750D03*
%TD*%
%TO.C,SW34*%
X83877500Y-137953750D03*
X70427500Y-135413750D03*
%TD*%
%TO.C,SW22*%
X110071250Y-137953750D03*
X96621250Y-135413750D03*
%TD*%
%TO.C,SW64*%
X345815000Y-157003750D03*
X332365000Y-154463750D03*
%TD*%
%TO.C,SW3*%
X95783750Y-80803750D03*
X82333750Y-78263750D03*
%TD*%
%TO.C,SW60*%
X350577500Y-137953750D03*
X337127500Y-135413750D03*
%TD*%
%TO.C,SW43*%
X336290000Y-80803750D03*
X322840000Y-78263750D03*
%TD*%
%TO.C,SW16*%
X105308750Y-118903750D03*
X91858750Y-116363750D03*
%TD*%
%TO.C,SW24*%
X148171250Y-137953750D03*
X134721250Y-135413750D03*
%TD*%
%TO.C,SW17*%
X124358750Y-118903750D03*
X110908750Y-116363750D03*
%TD*%
%TO.C,SW21*%
X200558750Y-118903750D03*
X187108750Y-116363750D03*
%TD*%
%TO.C,SW69*%
X362483750Y-99853750D03*
X349033750Y-97313750D03*
%TD*%
%TO.C,SW49*%
X341052500Y-99853750D03*
X327602500Y-97313750D03*
%TD*%
%TO.C,SW62*%
X293427500Y-157003750D03*
X279977500Y-154463750D03*
%TD*%
D11*
%TO.C,D50*%
X153061250Y-107906250D03*
X153061250Y-106406250D03*
X147611250Y-106406250D03*
X147611250Y-107906250D03*
%TD*%
%TO.C,D127*%
X269742500Y-146006250D03*
X269742500Y-144506250D03*
X264292500Y-144506250D03*
X264292500Y-146006250D03*
%TD*%
%TO.C,D71*%
X153061250Y-165250000D03*
X153061250Y-163750000D03*
X147611250Y-163750000D03*
X147611250Y-165250000D03*
%TD*%
D12*
%TO.C,R1*%
X88423750Y-160456250D03*
X88423750Y-158631250D03*
%TD*%
D13*
%TO.C,D97*%
X276542500Y-154050000D03*
X276542500Y-150750000D03*
%TD*%
D11*
%TO.C,D40*%
X129248750Y-88856250D03*
X129248750Y-87356250D03*
X123798750Y-87356250D03*
X123798750Y-88856250D03*
%TD*%
D14*
%TO.C,D29*%
X159861250Y-150750000D03*
X159861250Y-154050000D03*
%TD*%
%TO.C,D19*%
X164623750Y-112650000D03*
X164623750Y-115950000D03*
%TD*%
D11*
%TO.C,D119*%
X357848750Y-107906250D03*
X357848750Y-106406250D03*
X352398750Y-106406250D03*
X352398750Y-107906250D03*
%TD*%
D13*
%TO.C,D91*%
X257492500Y-135000000D03*
X257492500Y-131700000D03*
%TD*%
%TO.C,D101*%
X367030000Y-154050000D03*
X367030000Y-150750000D03*
%TD*%
%TO.C,D95*%
X333692500Y-135000000D03*
X333692500Y-131700000D03*
%TD*%
%TO.C,D79*%
X338455000Y-77850000D03*
X338455000Y-74550000D03*
%TD*%
%TO.C,D103*%
X257492500Y-154050000D03*
X257492500Y-150750000D03*
%TD*%
D11*
%TO.C,D41*%
X148298750Y-88856250D03*
X148298750Y-87356250D03*
X142848750Y-87356250D03*
X142848750Y-88856250D03*
%TD*%
%TO.C,D42*%
X167348750Y-88856250D03*
X167348750Y-87356250D03*
X161898750Y-87356250D03*
X161898750Y-88856250D03*
%TD*%
D14*
%TO.C,D33*%
X59848750Y-131700000D03*
X59848750Y-135000000D03*
%TD*%
D11*
%TO.C,D134*%
X288792500Y-165056250D03*
X288792500Y-163556250D03*
X283342500Y-163556250D03*
X283342500Y-165056250D03*
%TD*%
%TO.C,D137*%
X360230000Y-165056250D03*
X360230000Y-163556250D03*
X354780000Y-163556250D03*
X354780000Y-165056250D03*
%TD*%
D13*
%TO.C,D84*%
X324167500Y-96900000D03*
X324167500Y-93600000D03*
%TD*%
%TO.C,D31*%
X57467500Y-149287500D03*
X57467500Y-145987500D03*
%TD*%
D14*
%TO.C,D16*%
X107473750Y-112650000D03*
X107473750Y-115950000D03*
%TD*%
D13*
%TO.C,D104*%
X367030000Y-77850000D03*
X367030000Y-74550000D03*
%TD*%
D11*
%TO.C,D37*%
X72098750Y-88856250D03*
X72098750Y-87356250D03*
X66648750Y-87356250D03*
X66648750Y-88856250D03*
%TD*%
D13*
%TO.C,D85*%
X343217500Y-96900000D03*
X343217500Y-93600000D03*
%TD*%
D14*
%TO.C,D12*%
X140811250Y-93600000D03*
X140811250Y-96900000D03*
%TD*%
D11*
%TO.C,D63*%
X105436250Y-146006250D03*
X105436250Y-144506250D03*
X99986250Y-144506250D03*
X99986250Y-146006250D03*
%TD*%
%TO.C,D67*%
X181636250Y-146006250D03*
X181636250Y-144506250D03*
X176186250Y-144506250D03*
X176186250Y-146006250D03*
%TD*%
D14*
%TO.C,D11*%
X121761250Y-93600000D03*
X121761250Y-96900000D03*
%TD*%
D11*
%TO.C,D128*%
X288792500Y-146006250D03*
X288792500Y-144506250D03*
X283342500Y-144506250D03*
X283342500Y-146006250D03*
%TD*%
D13*
%TO.C,D75*%
X262255000Y-77850000D03*
X262255000Y-74550000D03*
%TD*%
D15*
%TO.C,U4*%
X386556250Y-91453750D03*
X384016250Y-91453750D03*
X381476250Y-91453750D03*
X378936250Y-91453750D03*
X376396250Y-91453750D03*
X373856250Y-91453750D03*
X371316250Y-91453750D03*
X371316250Y-75288750D03*
X373856250Y-75288750D03*
X376396250Y-75288750D03*
X378936250Y-75288750D03*
X381476250Y-75288750D03*
X384016250Y-75288750D03*
X386556250Y-75288750D03*
D16*
X369699350Y-79588750D03*
X369699350Y-77683750D03*
D17*
X387504750Y-84668750D03*
X387504750Y-82128750D03*
X384964750Y-84668750D03*
X384964750Y-82128750D03*
%TD*%
D13*
%TO.C,D96*%
X352742500Y-135000000D03*
X352742500Y-131700000D03*
%TD*%
D14*
%TO.C,D22*%
X112236250Y-131700000D03*
X112236250Y-135000000D03*
%TD*%
%TO.C,D2*%
X78898750Y-74550000D03*
X78898750Y-77850000D03*
%TD*%
D11*
%TO.C,D122*%
X288792500Y-126956250D03*
X288792500Y-125456250D03*
X283342500Y-125456250D03*
X283342500Y-126956250D03*
%TD*%
D14*
%TO.C,D9*%
X83661250Y-93600000D03*
X83661250Y-96900000D03*
%TD*%
D11*
%TO.C,D112*%
X355467500Y-88856250D03*
X355467500Y-87356250D03*
X350017500Y-87356250D03*
X350017500Y-88856250D03*
%TD*%
D13*
%TO.C,D76*%
X281305000Y-77850000D03*
X281305000Y-74550000D03*
%TD*%
D18*
%TO.C,U3*%
X366492500Y-139231250D03*
X365842500Y-139231250D03*
X365192500Y-139231250D03*
X364542500Y-139231250D03*
X363892500Y-139231250D03*
X363242500Y-139231250D03*
X362592500Y-139231250D03*
X361942500Y-139231250D03*
X361292500Y-139231250D03*
X360642500Y-139231250D03*
X359992500Y-139231250D03*
X359342500Y-139231250D03*
X358692500Y-139231250D03*
X358042500Y-139231250D03*
X358042500Y-132231250D03*
X358692500Y-132231250D03*
X359342500Y-132231250D03*
X359992500Y-132231250D03*
X360642500Y-132231250D03*
X361292500Y-132231250D03*
X361942500Y-132231250D03*
X362592500Y-132231250D03*
X363242500Y-132231250D03*
X363892500Y-132231250D03*
X364542500Y-132231250D03*
X365192500Y-132231250D03*
X365842500Y-132231250D03*
X366492500Y-132231250D03*
%TD*%
D13*
%TO.C,D90*%
X333692500Y-115950000D03*
X333692500Y-112650000D03*
%TD*%
%TO.C,D30*%
X57467500Y-130237500D03*
X57467500Y-126937500D03*
%TD*%
D14*
%TO.C,D34*%
X59848750Y-93600000D03*
X59848750Y-96900000D03*
%TD*%
D13*
%TO.C,D105*%
X367030000Y-96900000D03*
X367030000Y-93600000D03*
%TD*%
D11*
%TO.C,D45*%
X57811250Y-98381250D03*
X57811250Y-96881250D03*
X52361250Y-96881250D03*
X52361250Y-98381250D03*
%TD*%
D14*
%TO.C,D13*%
X159861250Y-93600000D03*
X159861250Y-96900000D03*
%TD*%
D19*
%TO.C,D138*%
X369757467Y-124334843D03*
X371257467Y-124334843D03*
X371257467Y-118884843D03*
X369757467Y-118884843D03*
%TD*%
D13*
%TO.C,D99*%
X328930000Y-154050000D03*
X328930000Y-150750000D03*
%TD*%
%TO.C,D86*%
X257492500Y-115950000D03*
X257492500Y-112650000D03*
%TD*%
%TO.C,D98*%
X295592500Y-154050000D03*
X295592500Y-150750000D03*
%TD*%
D11*
%TO.C,D61*%
X50667500Y-165056250D03*
X50667500Y-163556250D03*
X45217500Y-163556250D03*
X45217500Y-165056250D03*
%TD*%
%TO.C,D69*%
X114961250Y-165056250D03*
X114961250Y-163556250D03*
X109511250Y-163556250D03*
X109511250Y-165056250D03*
%TD*%
D14*
%TO.C,D15*%
X88423750Y-112650000D03*
X88423750Y-115950000D03*
%TD*%
D12*
%TO.C,R2*%
X83661250Y-160456250D03*
X83661250Y-158631250D03*
%TD*%
D11*
%TO.C,D109*%
X293555000Y-88856250D03*
X293555000Y-87356250D03*
X288105000Y-87356250D03*
X288105000Y-88856250D03*
%TD*%
%TO.C,D52*%
X191161250Y-107906250D03*
X191161250Y-106406250D03*
X185711250Y-106406250D03*
X185711250Y-107906250D03*
%TD*%
D12*
%TO.C,R4*%
X361698750Y-148550000D03*
X361698750Y-146725000D03*
%TD*%
%TO.C,R3*%
X367030000Y-148550000D03*
X367030000Y-146725000D03*
%TD*%
D11*
%TO.C,D133*%
X269742500Y-165056250D03*
X269742500Y-163556250D03*
X264292500Y-163556250D03*
X264292500Y-165056250D03*
%TD*%
D14*
%TO.C,D7*%
X174148750Y-74550000D03*
X174148750Y-77850000D03*
%TD*%
D11*
%TO.C,D57*%
X138773750Y-126956250D03*
X138773750Y-125456250D03*
X133323750Y-125456250D03*
X133323750Y-126956250D03*
%TD*%
%TO.C,D117*%
X317367500Y-107906250D03*
X317367500Y-106406250D03*
X311917500Y-106406250D03*
X311917500Y-107906250D03*
%TD*%
D14*
%TO.C,D4*%
X116998750Y-74550000D03*
X116998750Y-77850000D03*
%TD*%
D11*
%TO.C,D47*%
X95911250Y-107906250D03*
X95911250Y-106406250D03*
X90461250Y-106406250D03*
X90461250Y-107906250D03*
%TD*%
D13*
%TO.C,D102*%
X367030000Y-115950000D03*
X367030000Y-112650000D03*
%TD*%
%TO.C,D94*%
X314642500Y-135000000D03*
X314642500Y-131700000D03*
%TD*%
D14*
%TO.C,D35*%
X59848750Y-112650000D03*
X59848750Y-115950000D03*
%TD*%
D11*
%TO.C,D111*%
X331655000Y-88856250D03*
X331655000Y-87356250D03*
X326205000Y-87356250D03*
X326205000Y-88856250D03*
%TD*%
%TO.C,D43*%
X186398750Y-88856250D03*
X186398750Y-87356250D03*
X180948750Y-87356250D03*
X180948750Y-88856250D03*
%TD*%
%TO.C,D107*%
X255798750Y-88856250D03*
X255798750Y-87356250D03*
X250348750Y-87356250D03*
X250348750Y-88856250D03*
%TD*%
%TO.C,D60*%
X195923750Y-126956250D03*
X195923750Y-125456250D03*
X190473750Y-125456250D03*
X190473750Y-126956250D03*
%TD*%
D13*
%TO.C,D80*%
X247967500Y-96900000D03*
X247967500Y-93600000D03*
%TD*%
%TO.C,D77*%
X300355000Y-77850000D03*
X300355000Y-74550000D03*
%TD*%
D11*
%TO.C,D58*%
X157823750Y-126956250D03*
X157823750Y-125456250D03*
X152373750Y-125456250D03*
X152373750Y-126956250D03*
%TD*%
D13*
%TO.C,D78*%
X319405000Y-77850000D03*
X319405000Y-74550000D03*
%TD*%
D20*
%TO.C,U2*%
X40322500Y-75233750D03*
X42862500Y-75233750D03*
X45402500Y-75233750D03*
X47942500Y-75233750D03*
X50482500Y-75233750D03*
X53022500Y-75233750D03*
X55562500Y-75233750D03*
X55562500Y-91398750D03*
X53022500Y-91398750D03*
X50482500Y-91398750D03*
X47942500Y-91398750D03*
X45402500Y-91398750D03*
X42862500Y-91398750D03*
X40322500Y-91398750D03*
D21*
X57179400Y-87098750D03*
X57179400Y-89003750D03*
D17*
X39374000Y-82018750D03*
X39374000Y-84558750D03*
X41914000Y-82018750D03*
X41914000Y-84558750D03*
%TD*%
D14*
%TO.C,D20*%
X183673750Y-112650000D03*
X183673750Y-115950000D03*
%TD*%
D11*
%TO.C,D113*%
X241167500Y-107906250D03*
X241167500Y-106406250D03*
X235717500Y-106406250D03*
X235717500Y-107906250D03*
%TD*%
D14*
%TO.C,D1*%
X59848750Y-74550000D03*
X59848750Y-77850000D03*
%TD*%
D13*
%TO.C,D87*%
X276542500Y-115950000D03*
X276542500Y-112650000D03*
%TD*%
D11*
%TO.C,D54*%
X76861250Y-126956250D03*
X76861250Y-125456250D03*
X71411250Y-125456250D03*
X71411250Y-126956250D03*
%TD*%
%TO.C,D62*%
X79242500Y-146006250D03*
X79242500Y-144506250D03*
X73792500Y-144506250D03*
X73792500Y-146006250D03*
%TD*%
%TO.C,D65*%
X143536250Y-146006250D03*
X143536250Y-144506250D03*
X138086250Y-144506250D03*
X138086250Y-146006250D03*
%TD*%
D14*
%TO.C,D14*%
X178911250Y-93600000D03*
X178911250Y-96900000D03*
%TD*%
D11*
%TO.C,D73*%
X198305000Y-165056250D03*
X198305000Y-163556250D03*
X192855000Y-163556250D03*
X192855000Y-165056250D03*
%TD*%
%TO.C,D135*%
X322130000Y-165056250D03*
X322130000Y-163556250D03*
X316680000Y-163556250D03*
X316680000Y-165056250D03*
%TD*%
%TO.C,D39*%
X110198750Y-88856250D03*
X110198750Y-87356250D03*
X104748750Y-87356250D03*
X104748750Y-88856250D03*
%TD*%
D13*
%TO.C,D81*%
X267017500Y-96900000D03*
X267017500Y-93600000D03*
%TD*%
D11*
%TO.C,D56*%
X119723750Y-126956250D03*
X119723750Y-125456250D03*
X114273750Y-125456250D03*
X114273750Y-126956250D03*
%TD*%
%TO.C,D132*%
X243548750Y-165056250D03*
X243548750Y-163556250D03*
X238098750Y-163556250D03*
X238098750Y-165056250D03*
%TD*%
D14*
%TO.C,D25*%
X169386250Y-131700000D03*
X169386250Y-135000000D03*
%TD*%
D13*
%TO.C,D74*%
X243205000Y-77850000D03*
X243205000Y-74550000D03*
%TD*%
D11*
%TO.C,D70*%
X134011250Y-165056250D03*
X134011250Y-163556250D03*
X128561250Y-163556250D03*
X128561250Y-165056250D03*
%TD*%
%TO.C,D51*%
X172111250Y-107906250D03*
X172111250Y-106406250D03*
X166661250Y-106406250D03*
X166661250Y-107906250D03*
%TD*%
%TO.C,D38*%
X91148750Y-88856250D03*
X91148750Y-87356250D03*
X85698750Y-87356250D03*
X85698750Y-88856250D03*
%TD*%
D14*
%TO.C,D6*%
X155098750Y-74550000D03*
X155098750Y-77850000D03*
%TD*%
D11*
%TO.C,D44*%
X205448750Y-88856250D03*
X205448750Y-87356250D03*
X199998750Y-87356250D03*
X199998750Y-88856250D03*
%TD*%
%TO.C,D59*%
X176873750Y-126956250D03*
X176873750Y-125456250D03*
X171423750Y-125456250D03*
X171423750Y-126956250D03*
%TD*%
D13*
%TO.C,D89*%
X314642500Y-115950000D03*
X314642500Y-112650000D03*
%TD*%
D14*
%TO.C,D10*%
X102711250Y-93600000D03*
X102711250Y-96900000D03*
%TD*%
D11*
%TO.C,D130*%
X326892500Y-146006250D03*
X326892500Y-144506250D03*
X321442500Y-144506250D03*
X321442500Y-146006250D03*
%TD*%
D13*
%TO.C,D88*%
X295592500Y-115950000D03*
X295592500Y-112650000D03*
%TD*%
%TO.C,D92*%
X276542500Y-135000000D03*
X276542500Y-131700000D03*
%TD*%
D11*
%TO.C,D136*%
X341180000Y-165056250D03*
X341180000Y-163556250D03*
X335730000Y-163556250D03*
X335730000Y-165056250D03*
%TD*%
D13*
%TO.C,D32*%
X57785000Y-168337500D03*
X57785000Y-165037500D03*
%TD*%
D11*
%TO.C,D125*%
X353086250Y-126956250D03*
X353086250Y-125456250D03*
X347636250Y-125456250D03*
X347636250Y-126956250D03*
%TD*%
%TO.C,D131*%
X345942500Y-146006250D03*
X345942500Y-144506250D03*
X340492500Y-144506250D03*
X340492500Y-146006250D03*
%TD*%
%TO.C,D129*%
X307842500Y-146006250D03*
X307842500Y-144506250D03*
X302392500Y-144506250D03*
X302392500Y-146006250D03*
%TD*%
%TO.C,D126*%
X250692500Y-146006250D03*
X250692500Y-144506250D03*
X245242500Y-144506250D03*
X245242500Y-146006250D03*
%TD*%
%TO.C,D124*%
X326892500Y-126956250D03*
X326892500Y-125456250D03*
X321442500Y-125456250D03*
X321442500Y-126956250D03*
%TD*%
D14*
%TO.C,D23*%
X131286250Y-131700000D03*
X131286250Y-135000000D03*
%TD*%
D11*
%TO.C,D110*%
X312605000Y-88856250D03*
X312605000Y-87356250D03*
X307155000Y-87356250D03*
X307155000Y-88856250D03*
%TD*%
%TO.C,D118*%
X336417500Y-107906250D03*
X336417500Y-106406250D03*
X330967500Y-106406250D03*
X330967500Y-107906250D03*
%TD*%
%TO.C,D114*%
X260217500Y-107906250D03*
X260217500Y-106406250D03*
X254767500Y-106406250D03*
X254767500Y-107906250D03*
%TD*%
%TO.C,D115*%
X279267500Y-107906250D03*
X279267500Y-106406250D03*
X273817500Y-106406250D03*
X273817500Y-107906250D03*
%TD*%
%TO.C,D72*%
X172111250Y-165056250D03*
X172111250Y-163556250D03*
X166661250Y-163556250D03*
X166661250Y-165056250D03*
%TD*%
D14*
%TO.C,D17*%
X126523750Y-112650000D03*
X126523750Y-115950000D03*
%TD*%
D11*
%TO.C,D48*%
X114961250Y-107906250D03*
X114961250Y-106406250D03*
X109511250Y-106406250D03*
X109511250Y-107906250D03*
%TD*%
D14*
%TO.C,D18*%
X145573750Y-112650000D03*
X145573750Y-115950000D03*
%TD*%
D11*
%TO.C,D123*%
X307842500Y-126956250D03*
X307842500Y-125456250D03*
X302392500Y-125456250D03*
X302392500Y-126956250D03*
%TD*%
%TO.C,D46*%
X74480000Y-107906250D03*
X74480000Y-106406250D03*
X69030000Y-106406250D03*
X69030000Y-107906250D03*
%TD*%
%TO.C,D116*%
X298317500Y-107906250D03*
X298317500Y-106406250D03*
X292867500Y-106406250D03*
X292867500Y-107906250D03*
%TD*%
%TO.C,D66*%
X162586250Y-146006250D03*
X162586250Y-144506250D03*
X157136250Y-144506250D03*
X157136250Y-146006250D03*
%TD*%
%TO.C,D68*%
X50667500Y-146006250D03*
X50667500Y-144506250D03*
X45217500Y-144506250D03*
X45217500Y-146006250D03*
%TD*%
%TO.C,D64*%
X124486250Y-146006250D03*
X124486250Y-144506250D03*
X119036250Y-144506250D03*
X119036250Y-146006250D03*
%TD*%
%TO.C,D120*%
X250692500Y-126956250D03*
X250692500Y-125456250D03*
X245242500Y-125456250D03*
X245242500Y-126956250D03*
%TD*%
%TO.C,D121*%
X269742500Y-126956250D03*
X269742500Y-125456250D03*
X264292500Y-125456250D03*
X264292500Y-126956250D03*
%TD*%
%TO.C,D49*%
X134011250Y-107906250D03*
X134011250Y-106406250D03*
X128561250Y-106406250D03*
X128561250Y-107906250D03*
%TD*%
%TO.C,D55*%
X100673750Y-126956250D03*
X100673750Y-125456250D03*
X95223750Y-125456250D03*
X95223750Y-126956250D03*
%TD*%
D14*
%TO.C,D36*%
X178911250Y-150750000D03*
X178911250Y-154050000D03*
%TD*%
D13*
%TO.C,D83*%
X305117500Y-96900000D03*
X305117500Y-93600000D03*
%TD*%
D14*
%TO.C,D5*%
X136048750Y-74550000D03*
X136048750Y-77850000D03*
%TD*%
%TO.C,D24*%
X150336250Y-131700000D03*
X150336250Y-135000000D03*
%TD*%
D13*
%TO.C,D100*%
X347980000Y-154050000D03*
X347980000Y-150750000D03*
%TD*%
%TO.C,D82*%
X286067500Y-96900000D03*
X286067500Y-93600000D03*
%TD*%
D14*
%TO.C,D26*%
X102711250Y-150750000D03*
X102711250Y-154050000D03*
%TD*%
%TO.C,D27*%
X121761250Y-150750000D03*
X121761250Y-154050000D03*
%TD*%
%TO.C,D21*%
X93186250Y-131700000D03*
X93186250Y-135000000D03*
%TD*%
D11*
%TO.C,D53*%
X50667500Y-126956250D03*
X50667500Y-125456250D03*
X45217500Y-125456250D03*
X45217500Y-126956250D03*
%TD*%
D14*
%TO.C,D3*%
X97948750Y-74550000D03*
X97948750Y-77850000D03*
%TD*%
%TO.C,D8*%
X193198750Y-74550000D03*
X193198750Y-77850000D03*
%TD*%
D11*
%TO.C,D108*%
X274505000Y-88856250D03*
X274505000Y-87356250D03*
X269055000Y-87356250D03*
X269055000Y-88856250D03*
%TD*%
%TO.C,D106*%
X236405000Y-88856250D03*
X236405000Y-87356250D03*
X230955000Y-87356250D03*
X230955000Y-88856250D03*
%TD*%
D18*
%TO.C,U1*%
X68836250Y-160662500D03*
X68186250Y-160662500D03*
X67536250Y-160662500D03*
X66886250Y-160662500D03*
X66236250Y-160662500D03*
X65586250Y-160662500D03*
X64936250Y-160662500D03*
X64286250Y-160662500D03*
X63636250Y-160662500D03*
X62986250Y-160662500D03*
X62336250Y-160662500D03*
X61686250Y-160662500D03*
X61036250Y-160662500D03*
X60386250Y-160662500D03*
X60386250Y-153662500D03*
X61036250Y-153662500D03*
X61686250Y-153662500D03*
X62336250Y-153662500D03*
X62986250Y-153662500D03*
X63636250Y-153662500D03*
X64286250Y-153662500D03*
X64936250Y-153662500D03*
X65586250Y-153662500D03*
X66236250Y-153662500D03*
X66886250Y-153662500D03*
X67536250Y-153662500D03*
X68186250Y-153662500D03*
X68836250Y-153662500D03*
%TD*%
D14*
%TO.C,D28*%
X140811250Y-150750000D03*
X140811250Y-154050000D03*
%TD*%
D13*
%TO.C,D93*%
X295592500Y-135000000D03*
X295592500Y-131700000D03*
%TD*%
M02*
