M48
; DRILL file KiCad 10.0.5 date 2026-08-29T22:56:27
; FORMAT={-:-/ absolute / metric / decimal}
; #@! TF.CreationDate,2026-08-29T22:56:27+05:30
; #@! TF.GenerationSoftware,Kicad,Pcbnew,10.0.5
; #@! TF.FileFunction,NonPlated,1,2,NPTH
FMAT,2
METRIC
; #@! TA.AperFunction,NonPlated,NPTH,ComponentDrill
T1C0.500
; #@! TA.AperFunction,NonPlated,NPTH,ComponentDrill
T2C1.750
; #@! TA.AperFunction,NonPlated,NPTH,ComponentDrill
T3C3.988
%
G90
G05
T1
X217.325Y-83.344
X217.325Y-84.194
X217.325Y-85.044
X217.325Y-99.162
X217.325Y-100.012
X217.325Y-100.862
X217.325Y-115.831
X217.325Y-116.681
X217.325Y-117.531
X217.325Y-132.5
X217.325Y-133.35
X217.325Y-134.2
X217.325Y-149.169
X217.325Y-150.019
X217.325Y-150.869
X217.325Y-163.456
X217.325Y-164.306
X217.325Y-165.156
X218.825Y-83.344
X218.825Y-84.194
X218.825Y-85.044
X218.825Y-99.162
X218.825Y-100.012
X218.825Y-100.862
X218.825Y-115.831
X218.825Y-116.681
X218.825Y-117.531
X218.825Y-132.5
X218.825Y-133.35
X218.825Y-134.2
X218.825Y-149.169
X218.825Y-150.019
X218.825Y-150.869
X218.825Y-163.456
X218.825Y-164.306
X218.825Y-165.156
T2
X42.862Y-121.444
X42.862Y-140.494
X42.862Y-159.544
X53.023Y-121.444
X53.023Y-140.494
X53.023Y-159.544
X64.294Y-83.344
X66.675Y-102.394
X69.056Y-121.444
X71.438Y-140.494
X74.454Y-83.344
X76.835Y-102.394
X79.216Y-121.444
X81.597Y-140.494
X83.344Y-83.344
X88.106Y-102.394
X92.869Y-121.444
X93.504Y-83.344
X97.631Y-140.494
X98.266Y-102.394
X102.394Y-83.344
X103.029Y-121.444
X107.156Y-102.394
X107.156Y-159.544
X107.791Y-140.494
X111.919Y-121.444
X112.554Y-83.344
X116.681Y-140.494
X117.316Y-102.394
X117.316Y-159.544
X121.444Y-83.344
X122.079Y-121.444
X126.206Y-102.394
X126.206Y-159.544
X126.841Y-140.494
X130.969Y-121.444
X131.604Y-83.344
X135.731Y-140.494
X136.366Y-102.394
X136.366Y-159.544
X140.494Y-83.344
X141.129Y-121.444
X145.256Y-102.394
X145.256Y-159.544
X145.891Y-140.494
X150.019Y-121.444
X150.654Y-83.344
X154.781Y-140.494
X155.416Y-102.394
X155.416Y-159.544
X159.544Y-83.344
X160.179Y-121.444
X164.306Y-102.394
X164.306Y-159.544
X164.941Y-140.494
X169.069Y-121.444
X169.704Y-83.344
X173.831Y-140.494
X174.466Y-102.394
X174.466Y-159.544
X178.594Y-83.344
X179.229Y-121.444
X183.356Y-102.394
X183.991Y-140.494
X188.119Y-121.444
X188.754Y-83.344
X190.5Y-159.544
X193.516Y-102.394
X197.644Y-83.344
X198.279Y-121.444
X200.66Y-159.544
X207.804Y-83.344
X228.6Y-83.344
X233.362Y-102.394
X235.744Y-159.544
X238.76Y-83.344
X242.887Y-121.444
X242.887Y-140.494
X243.522Y-102.394
X245.904Y-159.544
X247.65Y-83.344
X252.412Y-102.394
X253.047Y-121.444
X253.047Y-140.494
X257.81Y-83.344
X261.938Y-121.444
X261.938Y-140.494
X261.938Y-159.544
X262.572Y-102.394
X266.7Y-83.344
X271.462Y-102.394
X272.097Y-121.444
X272.097Y-140.494
X272.097Y-159.544
X276.86Y-83.344
X280.988Y-121.444
X280.988Y-140.494
X280.988Y-159.544
X281.623Y-102.394
X285.75Y-83.344
X290.512Y-102.394
X291.147Y-121.444
X291.147Y-140.494
X291.147Y-159.544
X295.91Y-83.344
X300.037Y-121.444
X300.037Y-140.494
X300.673Y-102.394
X304.8Y-83.344
X309.562Y-102.394
X310.197Y-121.444
X310.197Y-140.494
X314.325Y-159.544
X314.96Y-83.344
X319.087Y-121.444
X319.087Y-140.494
X319.722Y-102.394
X323.85Y-83.344
X324.485Y-159.544
X328.613Y-102.394
X329.248Y-121.444
X329.248Y-140.494
X333.375Y-159.544
X334.01Y-83.344
X338.137Y-140.494
X338.772Y-102.394
X343.535Y-159.544
X345.281Y-121.444
X347.662Y-83.344
X348.297Y-140.494
X350.044Y-102.394
X352.425Y-159.544
X355.441Y-121.444
X357.822Y-83.344
X360.204Y-102.394
X362.585Y-159.544
T3
X47.942Y-121.444
X47.942Y-140.494
X47.942Y-159.544
X69.374Y-83.344
X71.755Y-102.394
X74.136Y-121.444
X76.517Y-140.494
X88.424Y-83.344
X93.186Y-102.394
X97.949Y-121.444
X102.711Y-140.494
X107.474Y-83.344
X112.236Y-102.394
X112.236Y-159.544
X116.999Y-121.444
X121.761Y-140.494
X126.524Y-83.344
X131.286Y-102.394
X131.286Y-159.544
X136.049Y-121.444
X140.811Y-140.494
X145.574Y-83.344
X150.336Y-102.394
X150.336Y-159.544
X155.099Y-121.444
X159.861Y-140.494
X164.624Y-83.344
X169.386Y-102.394
X169.386Y-159.544
X174.149Y-121.444
X178.911Y-140.494
X183.674Y-83.344
X188.436Y-102.394
X193.199Y-121.444
X195.58Y-159.544
X202.724Y-83.344
X233.68Y-83.344
X238.442Y-102.394
X240.824Y-159.544
X247.968Y-121.444
X247.968Y-140.494
X252.73Y-83.344
X257.493Y-102.394
X267.017Y-121.444
X267.017Y-140.494
X267.017Y-159.544
X271.78Y-83.344
X276.542Y-102.394
X286.067Y-121.444
X286.067Y-140.494
X286.067Y-159.544
X290.83Y-83.344
X295.592Y-102.394
X305.118Y-121.444
X305.118Y-140.494
X309.88Y-83.344
X314.642Y-102.394
X319.405Y-159.544
X324.167Y-121.444
X324.167Y-140.494
X328.93Y-83.344
X333.692Y-102.394
X338.455Y-159.544
X343.217Y-140.494
X350.361Y-121.444
X352.743Y-83.344
X355.124Y-102.394
X357.505Y-159.544
M30
