%TF.GenerationSoftware,KiCad,Pcbnew,10.0.5*%
%TF.CreationDate,2026-08-29T22:56:13+05:30*%
%TF.ProjectId,kicad,6b696361-642e-46b6-9963-61645f706362,rev?*%
%TF.SameCoordinates,Original*%
%TF.FileFunction,Other,User*%
%FSLAX46Y46*%
G04 Gerber Fmt 4.6, Leading zero omitted, Abs format (unit mm)*
G04 Created by KiCad (PCBNEW 10.0.5) date 2026-08-29 22:56:13*
%MOMM*%
%LPD*%
G01*
G04 APERTURE LIST*
%ADD10C,0.050000*%
G04 APERTURE END LIST*
%TO.C,SW37*%
D10*
X188165176Y-153223530D02*
X190715176Y-153223530D01*
X188165176Y-155673530D02*
X188165176Y-153223530D01*
X190715176Y-152793530D02*
X190715176Y-153223530D01*
X190715176Y-155673530D02*
X188165176Y-155673530D01*
X190715176Y-155673530D02*
X190715176Y-156843530D01*
X190715176Y-156843530D02*
X195780000Y-156843530D01*
X199665176Y-152793530D02*
X190715176Y-152793530D01*
X201665176Y-155793530D02*
X201665176Y-154793530D01*
X201665176Y-155793530D02*
X204265176Y-155793530D01*
X201665176Y-158243530D02*
X201665176Y-158683530D01*
X201665176Y-158683530D02*
X198074322Y-158683530D01*
X204265176Y-155793530D02*
X204265176Y-158243530D01*
X204265176Y-158243530D02*
X201665176Y-158243530D01*
X195780000Y-156843530D02*
G75*
G02*
X198074321Y-158683530I0J-2350410D01*
G01*
X199665176Y-152793530D02*
G75*
G02*
X201665180Y-154793530I4J-2000000D01*
G01*
%TO.C,SW31*%
X40527676Y-115123530D02*
X43077676Y-115123530D01*
X40527676Y-117573530D02*
X40527676Y-115123530D01*
X43077676Y-117573530D02*
X40527676Y-117573530D01*
X43077676Y-118743530D02*
X48142500Y-118743530D01*
X54027676Y-117693530D02*
X56627676Y-117693530D01*
X54027676Y-120143530D02*
X54027676Y-120583530D01*
X54027676Y-120583530D02*
X50436822Y-120583530D01*
X56627676Y-117693530D02*
X56627676Y-120143530D01*
X56627676Y-120143530D02*
X54027676Y-120143530D01*
X48142500Y-118743530D02*
G75*
G02*
X50436821Y-120583530I0J-2350410D01*
G01*
X52027676Y-114693530D02*
G75*
G02*
X54027680Y-116693530I4J-2000000D01*
G01*
%TO.C,SW54*%
X316752676Y-115123530D02*
X319302676Y-115123530D01*
X316752676Y-117573530D02*
X316752676Y-115123530D01*
X319302676Y-117573530D02*
X316752676Y-117573530D01*
X319302676Y-118743530D02*
X324367500Y-118743530D01*
X330252676Y-117693530D02*
X332852676Y-117693530D01*
X330252676Y-120143530D02*
X330252676Y-120583530D01*
X330252676Y-120583530D02*
X326661822Y-120583530D01*
X332852676Y-117693530D02*
X332852676Y-120143530D01*
X332852676Y-120143530D02*
X330252676Y-120143530D01*
X324367500Y-118743530D02*
G75*
G02*
X326661821Y-120583530I0J-2350410D01*
G01*
X328252676Y-114693530D02*
G75*
G02*
X330252680Y-116693530I4J-2000000D01*
G01*
%TO.C,SW2*%
X61958926Y-77023530D02*
X64508926Y-77023530D01*
X61958926Y-79473530D02*
X61958926Y-77023530D01*
X64508926Y-79473530D02*
X61958926Y-79473530D01*
X64508926Y-80643530D02*
X69573750Y-80643530D01*
X75458926Y-79593530D02*
X78058926Y-79593530D01*
X75458926Y-82043530D02*
X75458926Y-82483530D01*
X75458926Y-82483530D02*
X71868072Y-82483530D01*
X78058926Y-79593530D02*
X78058926Y-82043530D01*
X78058926Y-82043530D02*
X75458926Y-82043530D01*
X69573750Y-80643530D02*
G75*
G02*
X71868071Y-82483530I0J-2350410D01*
G01*
X73458926Y-76593530D02*
G75*
G02*
X75458930Y-78593530I4J-2000000D01*
G01*
%TO.C,SW38*%
X226265176Y-77023530D02*
X228815176Y-77023530D01*
X226265176Y-79473530D02*
X226265176Y-77023530D01*
X228815176Y-79473530D02*
X226265176Y-79473530D01*
X228815176Y-80643530D02*
X233880000Y-80643530D01*
X239765176Y-79593530D02*
X242365176Y-79593530D01*
X239765176Y-82043530D02*
X239765176Y-82483530D01*
X239765176Y-82483530D02*
X236174322Y-82483530D01*
X242365176Y-79593530D02*
X242365176Y-82043530D01*
X242365176Y-82043530D02*
X239765176Y-82043530D01*
X233880000Y-80643530D02*
G75*
G02*
X236174321Y-82483530I0J-2350410D01*
G01*
X237765176Y-76593530D02*
G75*
G02*
X239765180Y-78593530I4J-2000000D01*
G01*
%TO.C,SW8*%
X176258926Y-77023530D02*
X178808926Y-77023530D01*
X176258926Y-79473530D02*
X176258926Y-77023530D01*
X178808926Y-79473530D02*
X176258926Y-79473530D01*
X178808926Y-80643530D02*
X183873750Y-80643530D01*
X189758926Y-79593530D02*
X192358926Y-79593530D01*
X189758926Y-82043530D02*
X189758926Y-82483530D01*
X189758926Y-82483530D02*
X186168072Y-82483530D01*
X192358926Y-79593530D02*
X192358926Y-82043530D01*
X192358926Y-82043530D02*
X189758926Y-82043530D01*
X183873750Y-80643530D02*
G75*
G02*
X186168071Y-82483530I0J-2350410D01*
G01*
X187758926Y-76593530D02*
G75*
G02*
X189758930Y-78593530I4J-2000000D01*
G01*
%TO.C,SW19*%
X147683926Y-115123530D02*
X150233926Y-115123530D01*
X147683926Y-117573530D02*
X147683926Y-115123530D01*
X150233926Y-117573530D02*
X147683926Y-117573530D01*
X150233926Y-118743530D02*
X155298750Y-118743530D01*
X161183926Y-117693530D02*
X163783926Y-117693530D01*
X161183926Y-120143530D02*
X161183926Y-120583530D01*
X161183926Y-120583530D02*
X157593072Y-120583530D01*
X163783926Y-117693530D02*
X163783926Y-120143530D01*
X163783926Y-120143530D02*
X161183926Y-120143530D01*
X155298750Y-118743530D02*
G75*
G02*
X157593071Y-120583530I0J-2350410D01*
G01*
X159183926Y-114693530D02*
G75*
G02*
X161183930Y-116693530I4J-2000000D01*
G01*
%TO.C,SW67*%
X233408926Y-153223530D02*
X235958926Y-153223530D01*
X233408926Y-155673530D02*
X233408926Y-153223530D01*
X235958926Y-152793530D02*
X235958926Y-153223530D01*
X235958926Y-155673530D02*
X233408926Y-155673530D01*
X235958926Y-155673530D02*
X235958926Y-156843530D01*
X235958926Y-156843530D02*
X241023750Y-156843530D01*
X244908926Y-152793530D02*
X235958926Y-152793530D01*
X246908926Y-155793530D02*
X246908926Y-154793530D01*
X246908926Y-155793530D02*
X249508926Y-155793530D01*
X246908926Y-158243530D02*
X246908926Y-158683530D01*
X246908926Y-158683530D02*
X243318072Y-158683530D01*
X249508926Y-155793530D02*
X249508926Y-158243530D01*
X249508926Y-158243530D02*
X246908926Y-158243530D01*
X241023750Y-156843530D02*
G75*
G02*
X243318071Y-158683530I0J-2350410D01*
G01*
X244908926Y-152793530D02*
G75*
G02*
X246908930Y-154793530I4J-2000000D01*
G01*
%TO.C,SW46*%
X269127676Y-96073530D02*
X271677676Y-96073530D01*
X269127676Y-98523530D02*
X269127676Y-96073530D01*
X271677676Y-98523530D02*
X269127676Y-98523530D01*
X271677676Y-99693530D02*
X276742500Y-99693530D01*
X282627676Y-98643530D02*
X285227676Y-98643530D01*
X282627676Y-101093530D02*
X282627676Y-101533530D01*
X282627676Y-101533530D02*
X279036822Y-101533530D01*
X285227676Y-98643530D02*
X285227676Y-101093530D01*
X285227676Y-101093530D02*
X282627676Y-101093530D01*
X276742500Y-99693530D02*
G75*
G02*
X279036821Y-101533530I0J-2350410D01*
G01*
X280627676Y-95643530D02*
G75*
G02*
X282627680Y-97643530I4J-2000000D01*
G01*
%TO.C,SW68*%
X345327676Y-77023530D02*
X347877676Y-77023530D01*
X345327676Y-79473530D02*
X345327676Y-77023530D01*
X347877676Y-76593530D02*
X347877676Y-77023530D01*
X347877676Y-79473530D02*
X345327676Y-79473530D01*
X347877676Y-79473530D02*
X347877676Y-80643530D01*
X347877676Y-80643530D02*
X352942500Y-80643530D01*
X356827676Y-76593530D02*
X347877676Y-76593530D01*
X358827676Y-79593530D02*
X358827676Y-78593530D01*
X358827676Y-79593530D02*
X361427676Y-79593530D01*
X358827676Y-82043530D02*
X358827676Y-82483530D01*
X358827676Y-82483530D02*
X355236822Y-82483530D01*
X361427676Y-79593530D02*
X361427676Y-82043530D01*
X361427676Y-82043530D02*
X358827676Y-82043530D01*
X352942500Y-80643530D02*
G75*
G02*
X355236821Y-82483530I0J-2350410D01*
G01*
X356827676Y-76593530D02*
G75*
G02*
X358827680Y-78593530I4J-2000000D01*
G01*
%TO.C,SW55*%
X240552676Y-134173530D02*
X243102676Y-134173530D01*
X240552676Y-136623530D02*
X240552676Y-134173530D01*
X243102676Y-136623530D02*
X240552676Y-136623530D01*
X243102676Y-137793530D02*
X248167500Y-137793530D01*
X254052676Y-136743530D02*
X256652676Y-136743530D01*
X254052676Y-139193530D02*
X254052676Y-139633530D01*
X254052676Y-139633530D02*
X250461822Y-139633530D01*
X256652676Y-136743530D02*
X256652676Y-139193530D01*
X256652676Y-139193530D02*
X254052676Y-139193530D01*
X248167500Y-137793530D02*
G75*
G02*
X250461821Y-139633530I0J-2350410D01*
G01*
X252052676Y-133743530D02*
G75*
G02*
X254052680Y-135743530I4J-2000000D01*
G01*
%TO.C,SW26*%
X171496426Y-134173530D02*
X174046426Y-134173530D01*
X171496426Y-136623530D02*
X171496426Y-134173530D01*
X174046426Y-136623530D02*
X171496426Y-136623530D01*
X174046426Y-137793530D02*
X179111250Y-137793530D01*
X184996426Y-136743530D02*
X187596426Y-136743530D01*
X184996426Y-139193530D02*
X184996426Y-139633530D01*
X184996426Y-139633530D02*
X181405572Y-139633530D01*
X187596426Y-136743530D02*
X187596426Y-139193530D01*
X187596426Y-139193530D02*
X184996426Y-139193530D01*
X179111250Y-137793530D02*
G75*
G02*
X181405571Y-139633530I0J-2350410D01*
G01*
X182996426Y-133743530D02*
G75*
G02*
X184996430Y-135743530I4J-2000000D01*
G01*
%TO.C,SW12*%
X123871426Y-96073530D02*
X126421426Y-96073530D01*
X123871426Y-98523530D02*
X123871426Y-96073530D01*
X126421426Y-98523530D02*
X123871426Y-98523530D01*
X126421426Y-99693530D02*
X131486250Y-99693530D01*
X137371426Y-98643530D02*
X139971426Y-98643530D01*
X137371426Y-101093530D02*
X137371426Y-101533530D01*
X137371426Y-101533530D02*
X133780572Y-101533530D01*
X139971426Y-98643530D02*
X139971426Y-101093530D01*
X139971426Y-101093530D02*
X137371426Y-101093530D01*
X131486250Y-99693530D02*
G75*
G02*
X133780571Y-101533530I0J-2350410D01*
G01*
X135371426Y-95643530D02*
G75*
G02*
X137371430Y-97643530I4J-2000000D01*
G01*
%TO.C,SW5*%
X119108926Y-77023530D02*
X121658926Y-77023530D01*
X119108926Y-79473530D02*
X119108926Y-77023530D01*
X121658926Y-79473530D02*
X119108926Y-79473530D01*
X121658926Y-80643530D02*
X126723750Y-80643530D01*
X132608926Y-79593530D02*
X135208926Y-79593530D01*
X132608926Y-82043530D02*
X132608926Y-82483530D01*
X132608926Y-82483530D02*
X129018072Y-82483530D01*
X135208926Y-79593530D02*
X135208926Y-82043530D01*
X135208926Y-82043530D02*
X132608926Y-82043530D01*
X126723750Y-80643530D02*
G75*
G02*
X129018071Y-82483530I0J-2350410D01*
G01*
X130608926Y-76593530D02*
G75*
G02*
X132608930Y-78593530I4J-2000000D01*
G01*
%TO.C,SW48*%
X307227676Y-96073530D02*
X309777676Y-96073530D01*
X307227676Y-98523530D02*
X307227676Y-96073530D01*
X309777676Y-98523530D02*
X307227676Y-98523530D01*
X309777676Y-99693530D02*
X314842500Y-99693530D01*
X320727676Y-98643530D02*
X323327676Y-98643530D01*
X320727676Y-101093530D02*
X320727676Y-101533530D01*
X320727676Y-101533530D02*
X317136822Y-101533530D01*
X323327676Y-98643530D02*
X323327676Y-101093530D01*
X323327676Y-101093530D02*
X320727676Y-101093530D01*
X314842500Y-99693530D02*
G75*
G02*
X317136821Y-101533530I0J-2350410D01*
G01*
X318727676Y-95643530D02*
G75*
G02*
X320727680Y-97643530I4J-2000000D01*
G01*
%TO.C,REF\u002A\u002A*%
X216975000Y-131350000D02*
X219175000Y-131350000D01*
X219175000Y-135350000D01*
X216975000Y-135350000D01*
X216975000Y-131350000D01*
%TO.C,SW40*%
X264365176Y-77023530D02*
X266915176Y-77023530D01*
X264365176Y-79473530D02*
X264365176Y-77023530D01*
X266915176Y-79473530D02*
X264365176Y-79473530D01*
X266915176Y-80643530D02*
X271980000Y-80643530D01*
X277865176Y-79593530D02*
X280465176Y-79593530D01*
X277865176Y-82043530D02*
X277865176Y-82483530D01*
X277865176Y-82483530D02*
X274274322Y-82483530D01*
X280465176Y-79593530D02*
X280465176Y-82043530D01*
X280465176Y-82043530D02*
X277865176Y-82043530D01*
X271980000Y-80643530D02*
G75*
G02*
X274274321Y-82483530I0J-2350410D01*
G01*
X275865176Y-76593530D02*
G75*
G02*
X277865180Y-78593530I4J-2000000D01*
G01*
%TO.C,SW36*%
X66721426Y-115123530D02*
X69271426Y-115123530D01*
X66721426Y-117573530D02*
X66721426Y-115123530D01*
X69271426Y-114693530D02*
X69271426Y-115123530D01*
X69271426Y-117573530D02*
X66721426Y-117573530D01*
X69271426Y-117573530D02*
X69271426Y-118743530D01*
X69271426Y-118743530D02*
X74336250Y-118743530D01*
X78221426Y-114693530D02*
X69271426Y-114693530D01*
X80221426Y-117693530D02*
X80221426Y-116693530D01*
X80221426Y-117693530D02*
X82821426Y-117693530D01*
X80221426Y-120143530D02*
X80221426Y-120583530D01*
X80221426Y-120583530D02*
X76630572Y-120583530D01*
X82821426Y-117693530D02*
X82821426Y-120143530D01*
X82821426Y-120143530D02*
X80221426Y-120143530D01*
X74336250Y-118743530D02*
G75*
G02*
X76630571Y-120583530I0J-2350410D01*
G01*
X78221426Y-114693530D02*
G75*
G02*
X80221430Y-116693530I4J-2000000D01*
G01*
%TO.C,REF\u002A\u002A*%
X216975000Y-148018750D02*
X219175000Y-148018750D01*
X219175000Y-152018750D01*
X216975000Y-152018750D01*
X216975000Y-148018750D01*
%TO.C,SW42*%
X302465176Y-77023530D02*
X305015176Y-77023530D01*
X302465176Y-79473530D02*
X302465176Y-77023530D01*
X305015176Y-79473530D02*
X302465176Y-79473530D01*
X305015176Y-80643530D02*
X310080000Y-80643530D01*
X315965176Y-79593530D02*
X318565176Y-79593530D01*
X315965176Y-82043530D02*
X315965176Y-82483530D01*
X315965176Y-82483530D02*
X312374322Y-82483530D01*
X318565176Y-79593530D02*
X318565176Y-82043530D01*
X318565176Y-82043530D02*
X315965176Y-82043530D01*
X310080000Y-80643530D02*
G75*
G02*
X312374321Y-82483530I0J-2350410D01*
G01*
X313965176Y-76593530D02*
G75*
G02*
X315965180Y-78593530I4J-2000000D01*
G01*
%TO.C,SW6*%
X138158926Y-77023530D02*
X140708926Y-77023530D01*
X138158926Y-79473530D02*
X138158926Y-77023530D01*
X140708926Y-79473530D02*
X138158926Y-79473530D01*
X140708926Y-80643530D02*
X145773750Y-80643530D01*
X151658926Y-79593530D02*
X154258926Y-79593530D01*
X151658926Y-82043530D02*
X151658926Y-82483530D01*
X151658926Y-82483530D02*
X148068072Y-82483530D01*
X154258926Y-79593530D02*
X154258926Y-82043530D01*
X154258926Y-82043530D02*
X151658926Y-82043530D01*
X145773750Y-80643530D02*
G75*
G02*
X148068071Y-82483530I0J-2350410D01*
G01*
X149658926Y-76593530D02*
G75*
G02*
X151658930Y-78593530I4J-2000000D01*
G01*
%TO.C,SW29*%
X142921426Y-153223530D02*
X145471426Y-153223530D01*
X142921426Y-155673530D02*
X142921426Y-153223530D01*
X145471426Y-155673530D02*
X142921426Y-155673530D01*
X145471426Y-156843530D02*
X150536250Y-156843530D01*
X156421426Y-155793530D02*
X159021426Y-155793530D01*
X156421426Y-158243530D02*
X156421426Y-158683530D01*
X156421426Y-158683530D02*
X152830572Y-158683530D01*
X159021426Y-155793530D02*
X159021426Y-158243530D01*
X159021426Y-158243530D02*
X156421426Y-158243530D01*
X150536250Y-156843530D02*
G75*
G02*
X152830571Y-158683530I0J-2350410D01*
G01*
X154421426Y-152793530D02*
G75*
G02*
X156421430Y-154793530I4J-2000000D01*
G01*
%TO.C,SW57*%
X278652676Y-134173530D02*
X281202676Y-134173530D01*
X278652676Y-136623530D02*
X278652676Y-134173530D01*
X281202676Y-136623530D02*
X278652676Y-136623530D01*
X281202676Y-137793530D02*
X286267500Y-137793530D01*
X292152676Y-136743530D02*
X294752676Y-136743530D01*
X292152676Y-139193530D02*
X292152676Y-139633530D01*
X292152676Y-139633530D02*
X288561822Y-139633530D01*
X294752676Y-136743530D02*
X294752676Y-139193530D01*
X294752676Y-139193530D02*
X292152676Y-139193530D01*
X286267500Y-137793530D02*
G75*
G02*
X288561821Y-139633530I0J-2350410D01*
G01*
X290152676Y-133743530D02*
G75*
G02*
X292152680Y-135743530I4J-2000000D01*
G01*
%TO.C,REF\u002A\u002A*%
X216975000Y-98012500D02*
X219175000Y-98012500D01*
X219175000Y-102012500D01*
X216975000Y-102012500D01*
X216975000Y-98012500D01*
%TO.C,SW32*%
X40527676Y-134173530D02*
X43077676Y-134173530D01*
X40527676Y-136623530D02*
X40527676Y-134173530D01*
X43077676Y-136623530D02*
X40527676Y-136623530D01*
X43077676Y-137793530D02*
X48142500Y-137793530D01*
X54027676Y-136743530D02*
X56627676Y-136743530D01*
X54027676Y-139193530D02*
X54027676Y-139633530D01*
X54027676Y-139633530D02*
X50436822Y-139633530D01*
X56627676Y-136743530D02*
X56627676Y-139193530D01*
X56627676Y-139193530D02*
X54027676Y-139193530D01*
X48142500Y-137793530D02*
G75*
G02*
X50436821Y-139633530I0J-2350410D01*
G01*
X52027676Y-133743530D02*
G75*
G02*
X54027680Y-135743530I4J-2000000D01*
G01*
%TO.C,SW18*%
X128633926Y-115123530D02*
X131183926Y-115123530D01*
X128633926Y-117573530D02*
X128633926Y-115123530D01*
X131183926Y-117573530D02*
X128633926Y-117573530D01*
X131183926Y-118743530D02*
X136248750Y-118743530D01*
X142133926Y-117693530D02*
X144733926Y-117693530D01*
X142133926Y-120143530D02*
X142133926Y-120583530D01*
X142133926Y-120583530D02*
X138543072Y-120583530D01*
X144733926Y-117693530D02*
X144733926Y-120143530D01*
X144733926Y-120143530D02*
X142133926Y-120143530D01*
X136248750Y-118743530D02*
G75*
G02*
X138543071Y-120583530I0J-2350410D01*
G01*
X140133926Y-114693530D02*
G75*
G02*
X142133930Y-116693530I4J-2000000D01*
G01*
%TO.C,REF\u002A\u002A*%
X216975000Y-82193750D02*
X219175000Y-82193750D01*
X219175000Y-86193750D01*
X216975000Y-86193750D01*
X216975000Y-82193750D01*
%TO.C,SW44*%
X231027676Y-96073530D02*
X233577676Y-96073530D01*
X231027676Y-98523530D02*
X231027676Y-96073530D01*
X233577676Y-98523530D02*
X231027676Y-98523530D01*
X233577676Y-99693530D02*
X238642500Y-99693530D01*
X244527676Y-98643530D02*
X247127676Y-98643530D01*
X244527676Y-101093530D02*
X244527676Y-101533530D01*
X244527676Y-101533530D02*
X240936822Y-101533530D01*
X247127676Y-98643530D02*
X247127676Y-101093530D01*
X247127676Y-101093530D02*
X244527676Y-101093530D01*
X238642500Y-99693530D02*
G75*
G02*
X240936821Y-101533530I0J-2350410D01*
G01*
X242527676Y-95643530D02*
G75*
G02*
X244527680Y-97643530I4J-2000000D01*
G01*
%TO.C,SW14*%
X161971426Y-96073530D02*
X164521426Y-96073530D01*
X161971426Y-98523530D02*
X161971426Y-96073530D01*
X164521426Y-98523530D02*
X161971426Y-98523530D01*
X164521426Y-99693530D02*
X169586250Y-99693530D01*
X175471426Y-98643530D02*
X178071426Y-98643530D01*
X175471426Y-101093530D02*
X175471426Y-101533530D01*
X175471426Y-101533530D02*
X171880572Y-101533530D01*
X178071426Y-98643530D02*
X178071426Y-101093530D01*
X178071426Y-101093530D02*
X175471426Y-101093530D01*
X169586250Y-99693530D02*
G75*
G02*
X171880571Y-101533530I0J-2350410D01*
G01*
X173471426Y-95643530D02*
G75*
G02*
X175471430Y-97643530I4J-2000000D01*
G01*
%TO.C,SW66*%
X342946426Y-115123530D02*
X345496426Y-115123530D01*
X342946426Y-117573530D02*
X342946426Y-115123530D01*
X345496426Y-114693530D02*
X345496426Y-115123530D01*
X345496426Y-117573530D02*
X342946426Y-117573530D01*
X345496426Y-117573530D02*
X345496426Y-118743530D01*
X345496426Y-118743530D02*
X350561250Y-118743530D01*
X354446426Y-114693530D02*
X345496426Y-114693530D01*
X356446426Y-117693530D02*
X356446426Y-116693530D01*
X356446426Y-117693530D02*
X359046426Y-117693530D01*
X356446426Y-120143530D02*
X356446426Y-120583530D01*
X356446426Y-120583530D02*
X352855572Y-120583530D01*
X359046426Y-117693530D02*
X359046426Y-120143530D01*
X359046426Y-120143530D02*
X356446426Y-120143530D01*
X350561250Y-118743530D02*
G75*
G02*
X352855571Y-120583530I0J-2350410D01*
G01*
X354446426Y-114693530D02*
G75*
G02*
X356446430Y-116693530I4J-2000000D01*
G01*
%TO.C,SW52*%
X278652676Y-115123530D02*
X281202676Y-115123530D01*
X278652676Y-117573530D02*
X278652676Y-115123530D01*
X281202676Y-117573530D02*
X278652676Y-117573530D01*
X281202676Y-118743530D02*
X286267500Y-118743530D01*
X292152676Y-117693530D02*
X294752676Y-117693530D01*
X292152676Y-120143530D02*
X292152676Y-120583530D01*
X292152676Y-120583530D02*
X288561822Y-120583530D01*
X294752676Y-117693530D02*
X294752676Y-120143530D01*
X294752676Y-120143530D02*
X292152676Y-120143530D01*
X286267500Y-118743530D02*
G75*
G02*
X288561821Y-120583530I0J-2350410D01*
G01*
X290152676Y-114693530D02*
G75*
G02*
X292152680Y-116693530I4J-2000000D01*
G01*
%TO.C,SW35*%
X64340176Y-96073530D02*
X66890176Y-96073530D01*
X64340176Y-98523530D02*
X64340176Y-96073530D01*
X66890176Y-95643530D02*
X66890176Y-96073530D01*
X66890176Y-98523530D02*
X64340176Y-98523530D01*
X66890176Y-98523530D02*
X66890176Y-99693530D01*
X66890176Y-99693530D02*
X71955000Y-99693530D01*
X75840176Y-95643530D02*
X66890176Y-95643530D01*
X77840176Y-98643530D02*
X77840176Y-97643530D01*
X77840176Y-98643530D02*
X80440176Y-98643530D01*
X77840176Y-101093530D02*
X77840176Y-101533530D01*
X77840176Y-101533530D02*
X74249322Y-101533530D01*
X80440176Y-98643530D02*
X80440176Y-101093530D01*
X80440176Y-101093530D02*
X77840176Y-101093530D01*
X71955000Y-99693530D02*
G75*
G02*
X74249321Y-101533530I0J-2350410D01*
G01*
X75840176Y-95643530D02*
G75*
G02*
X77840180Y-97643530I4J-2000000D01*
G01*
%TO.C,SW51*%
X259602676Y-115123530D02*
X262152676Y-115123530D01*
X259602676Y-117573530D02*
X259602676Y-115123530D01*
X262152676Y-117573530D02*
X259602676Y-117573530D01*
X262152676Y-118743530D02*
X267217500Y-118743530D01*
X273102676Y-117693530D02*
X275702676Y-117693530D01*
X273102676Y-120143530D02*
X273102676Y-120583530D01*
X273102676Y-120583530D02*
X269511822Y-120583530D01*
X275702676Y-117693530D02*
X275702676Y-120143530D01*
X275702676Y-120143530D02*
X273102676Y-120143530D01*
X267217500Y-118743530D02*
G75*
G02*
X269511821Y-120583530I0J-2350410D01*
G01*
X271102676Y-114693530D02*
G75*
G02*
X273102680Y-116693530I4J-2000000D01*
G01*
%TO.C,SW33*%
X40527676Y-153223530D02*
X43077676Y-153223530D01*
X40527676Y-155673530D02*
X40527676Y-153223530D01*
X43077676Y-155673530D02*
X40527676Y-155673530D01*
X43077676Y-156843530D02*
X48142500Y-156843530D01*
X54027676Y-155793530D02*
X56627676Y-155793530D01*
X54027676Y-158243530D02*
X54027676Y-158683530D01*
X54027676Y-158683530D02*
X50436822Y-158683530D01*
X56627676Y-155793530D02*
X56627676Y-158243530D01*
X56627676Y-158243530D02*
X54027676Y-158243530D01*
X48142500Y-156843530D02*
G75*
G02*
X50436821Y-158683530I0J-2350410D01*
G01*
X52027676Y-152793530D02*
G75*
G02*
X54027680Y-154793530I4J-2000000D01*
G01*
%TO.C,SW10*%
X85771426Y-96073530D02*
X88321426Y-96073530D01*
X85771426Y-98523530D02*
X85771426Y-96073530D01*
X88321426Y-98523530D02*
X85771426Y-98523530D01*
X88321426Y-99693530D02*
X93386250Y-99693530D01*
X99271426Y-98643530D02*
X101871426Y-98643530D01*
X99271426Y-101093530D02*
X99271426Y-101533530D01*
X99271426Y-101533530D02*
X95680572Y-101533530D01*
X101871426Y-98643530D02*
X101871426Y-101093530D01*
X101871426Y-101093530D02*
X99271426Y-101093530D01*
X93386250Y-99693530D02*
G75*
G02*
X95680571Y-101533530I0J-2350410D01*
G01*
X97271426Y-95643530D02*
G75*
G02*
X99271430Y-97643530I4J-2000000D01*
G01*
%TO.C,SW20*%
X166733926Y-115123530D02*
X169283926Y-115123530D01*
X166733926Y-117573530D02*
X166733926Y-115123530D01*
X169283926Y-117573530D02*
X166733926Y-117573530D01*
X169283926Y-118743530D02*
X174348750Y-118743530D01*
X180233926Y-117693530D02*
X182833926Y-117693530D01*
X180233926Y-120143530D02*
X180233926Y-120583530D01*
X180233926Y-120583530D02*
X176643072Y-120583530D01*
X182833926Y-117693530D02*
X182833926Y-120143530D01*
X182833926Y-120143530D02*
X180233926Y-120143530D01*
X174348750Y-118743530D02*
G75*
G02*
X176643071Y-120583530I0J-2350410D01*
G01*
X178233926Y-114693530D02*
G75*
G02*
X180233930Y-116693530I4J-2000000D01*
G01*
%TO.C,SW9*%
X195308926Y-77023530D02*
X197858926Y-77023530D01*
X195308926Y-79473530D02*
X195308926Y-77023530D01*
X197858926Y-79473530D02*
X195308926Y-79473530D01*
X197858926Y-80643530D02*
X202923750Y-80643530D01*
X208808926Y-79593530D02*
X211408926Y-79593530D01*
X208808926Y-82043530D02*
X208808926Y-82483530D01*
X208808926Y-82483530D02*
X205218072Y-82483530D01*
X211408926Y-79593530D02*
X211408926Y-82043530D01*
X211408926Y-82043530D02*
X208808926Y-82043530D01*
X202923750Y-80643530D02*
G75*
G02*
X205218071Y-82483530I0J-2350410D01*
G01*
X206808926Y-76593530D02*
G75*
G02*
X208808930Y-78593530I4J-2000000D01*
G01*
%TO.C,SW4*%
X100058926Y-77023530D02*
X102608926Y-77023530D01*
X100058926Y-79473530D02*
X100058926Y-77023530D01*
X102608926Y-79473530D02*
X100058926Y-79473530D01*
X102608926Y-80643530D02*
X107673750Y-80643530D01*
X113558926Y-79593530D02*
X116158926Y-79593530D01*
X113558926Y-82043530D02*
X113558926Y-82483530D01*
X113558926Y-82483530D02*
X109968072Y-82483530D01*
X116158926Y-79593530D02*
X116158926Y-82043530D01*
X116158926Y-82043530D02*
X113558926Y-82043530D01*
X107673750Y-80643530D02*
G75*
G02*
X109968071Y-82483530I0J-2350410D01*
G01*
X111558926Y-76593530D02*
G75*
G02*
X113558930Y-78593530I4J-2000000D01*
G01*
%TO.C,SW28*%
X123871426Y-153223530D02*
X126421426Y-153223530D01*
X123871426Y-155673530D02*
X123871426Y-153223530D01*
X126421426Y-155673530D02*
X123871426Y-155673530D01*
X126421426Y-156843530D02*
X131486250Y-156843530D01*
X137371426Y-155793530D02*
X139971426Y-155793530D01*
X137371426Y-158243530D02*
X137371426Y-158683530D01*
X137371426Y-158683530D02*
X133780572Y-158683530D01*
X139971426Y-155793530D02*
X139971426Y-158243530D01*
X139971426Y-158243530D02*
X137371426Y-158243530D01*
X131486250Y-156843530D02*
G75*
G02*
X133780571Y-158683530I0J-2350410D01*
G01*
X135371426Y-152793530D02*
G75*
G02*
X137371430Y-154793530I4J-2000000D01*
G01*
%TO.C,SW23*%
X114346426Y-134173530D02*
X116896426Y-134173530D01*
X114346426Y-136623530D02*
X114346426Y-134173530D01*
X116896426Y-136623530D02*
X114346426Y-136623530D01*
X116896426Y-137793530D02*
X121961250Y-137793530D01*
X127846426Y-136743530D02*
X130446426Y-136743530D01*
X127846426Y-139193530D02*
X127846426Y-139633530D01*
X127846426Y-139633530D02*
X124255572Y-139633530D01*
X130446426Y-136743530D02*
X130446426Y-139193530D01*
X130446426Y-139193530D02*
X127846426Y-139193530D01*
X121961250Y-137793530D02*
G75*
G02*
X124255571Y-139633530I0J-2350410D01*
G01*
X125846426Y-133743530D02*
G75*
G02*
X127846430Y-135743530I4J-2000000D01*
G01*
%TO.C,SW39*%
X245315176Y-77023530D02*
X247865176Y-77023530D01*
X245315176Y-79473530D02*
X245315176Y-77023530D01*
X247865176Y-79473530D02*
X245315176Y-79473530D01*
X247865176Y-80643530D02*
X252930000Y-80643530D01*
X258815176Y-79593530D02*
X261415176Y-79593530D01*
X258815176Y-82043530D02*
X258815176Y-82483530D01*
X258815176Y-82483530D02*
X255224322Y-82483530D01*
X261415176Y-79593530D02*
X261415176Y-82043530D01*
X261415176Y-82043530D02*
X258815176Y-82043530D01*
X252930000Y-80643530D02*
G75*
G02*
X255224321Y-82483530I0J-2350410D01*
G01*
X256815176Y-76593530D02*
G75*
G02*
X258815180Y-78593530I4J-2000000D01*
G01*
%TO.C,SW53*%
X297702676Y-115123530D02*
X300252676Y-115123530D01*
X297702676Y-117573530D02*
X297702676Y-115123530D01*
X300252676Y-117573530D02*
X297702676Y-117573530D01*
X300252676Y-118743530D02*
X305317500Y-118743530D01*
X311202676Y-117693530D02*
X313802676Y-117693530D01*
X311202676Y-120143530D02*
X311202676Y-120583530D01*
X311202676Y-120583530D02*
X307611822Y-120583530D01*
X313802676Y-117693530D02*
X313802676Y-120143530D01*
X313802676Y-120143530D02*
X311202676Y-120143530D01*
X305317500Y-118743530D02*
G75*
G02*
X307611821Y-120583530I0J-2350410D01*
G01*
X309202676Y-114693530D02*
G75*
G02*
X311202680Y-116693530I4J-2000000D01*
G01*
%TO.C,SW50*%
X240552676Y-115123530D02*
X243102676Y-115123530D01*
X240552676Y-117573530D02*
X240552676Y-115123530D01*
X243102676Y-117573530D02*
X240552676Y-117573530D01*
X243102676Y-118743530D02*
X248167500Y-118743530D01*
X254052676Y-117693530D02*
X256652676Y-117693530D01*
X254052676Y-120143530D02*
X254052676Y-120583530D01*
X254052676Y-120583530D02*
X250461822Y-120583530D01*
X256652676Y-117693530D02*
X256652676Y-120143530D01*
X256652676Y-120143530D02*
X254052676Y-120143530D01*
X248167500Y-118743530D02*
G75*
G02*
X250461821Y-120583530I0J-2350410D01*
G01*
X252052676Y-114693530D02*
G75*
G02*
X254052680Y-116693530I4J-2000000D01*
G01*
%TO.C,SW63*%
X311990176Y-153223530D02*
X314540176Y-153223530D01*
X311990176Y-155673530D02*
X311990176Y-153223530D01*
X314540176Y-155673530D02*
X311990176Y-155673530D01*
X314540176Y-156843530D02*
X319605000Y-156843530D01*
X325490176Y-155793530D02*
X328090176Y-155793530D01*
X325490176Y-158243530D02*
X325490176Y-158683530D01*
X325490176Y-158683530D02*
X321899322Y-158683530D01*
X328090176Y-155793530D02*
X328090176Y-158243530D01*
X328090176Y-158243530D02*
X325490176Y-158243530D01*
X319605000Y-156843530D02*
G75*
G02*
X321899321Y-158683530I0J-2350410D01*
G01*
X323490176Y-152793530D02*
G75*
G02*
X325490180Y-154793530I4J-2000000D01*
G01*
%TO.C,SW41*%
X283415176Y-77023530D02*
X285965176Y-77023530D01*
X283415176Y-79473530D02*
X283415176Y-77023530D01*
X285965176Y-79473530D02*
X283415176Y-79473530D01*
X285965176Y-80643530D02*
X291030000Y-80643530D01*
X296915176Y-79593530D02*
X299515176Y-79593530D01*
X296915176Y-82043530D02*
X296915176Y-82483530D01*
X296915176Y-82483530D02*
X293324322Y-82483530D01*
X299515176Y-79593530D02*
X299515176Y-82043530D01*
X299515176Y-82043530D02*
X296915176Y-82043530D01*
X291030000Y-80643530D02*
G75*
G02*
X293324321Y-82483530I0J-2350410D01*
G01*
X294915176Y-76593530D02*
G75*
G02*
X296915180Y-78593530I4J-2000000D01*
G01*
%TO.C,SW59*%
X316752676Y-134173530D02*
X319302676Y-134173530D01*
X316752676Y-136623530D02*
X316752676Y-134173530D01*
X319302676Y-136623530D02*
X316752676Y-136623530D01*
X319302676Y-137793530D02*
X324367500Y-137793530D01*
X330252676Y-136743530D02*
X332852676Y-136743530D01*
X330252676Y-139193530D02*
X330252676Y-139633530D01*
X330252676Y-139633530D02*
X326661822Y-139633530D01*
X332852676Y-136743530D02*
X332852676Y-139193530D01*
X332852676Y-139193530D02*
X330252676Y-139193530D01*
X324367500Y-137793530D02*
G75*
G02*
X326661821Y-139633530I0J-2350410D01*
G01*
X328252676Y-133743530D02*
G75*
G02*
X330252680Y-135743530I4J-2000000D01*
G01*
%TO.C,SW15*%
X181021426Y-96073530D02*
X183571426Y-96073530D01*
X181021426Y-98523530D02*
X181021426Y-96073530D01*
X183571426Y-98523530D02*
X181021426Y-98523530D01*
X183571426Y-99693530D02*
X188636250Y-99693530D01*
X194521426Y-98643530D02*
X197121426Y-98643530D01*
X194521426Y-101093530D02*
X194521426Y-101533530D01*
X194521426Y-101533530D02*
X190930572Y-101533530D01*
X197121426Y-98643530D02*
X197121426Y-101093530D01*
X197121426Y-101093530D02*
X194521426Y-101093530D01*
X188636250Y-99693530D02*
G75*
G02*
X190930571Y-101533530I0J-2350410D01*
G01*
X192521426Y-95643530D02*
G75*
G02*
X194521430Y-97643530I4J-2000000D01*
G01*
%TO.C,SW13*%
X142921426Y-96073530D02*
X145471426Y-96073530D01*
X142921426Y-98523530D02*
X142921426Y-96073530D01*
X145471426Y-98523530D02*
X142921426Y-98523530D01*
X145471426Y-99693530D02*
X150536250Y-99693530D01*
X156421426Y-98643530D02*
X159021426Y-98643530D01*
X156421426Y-101093530D02*
X156421426Y-101533530D01*
X156421426Y-101533530D02*
X152830572Y-101533530D01*
X159021426Y-98643530D02*
X159021426Y-101093530D01*
X159021426Y-101093530D02*
X156421426Y-101093530D01*
X150536250Y-99693530D02*
G75*
G02*
X152830571Y-101533530I0J-2350410D01*
G01*
X154421426Y-95643530D02*
G75*
G02*
X156421430Y-97643530I4J-2000000D01*
G01*
%TO.C,REF\u002A\u002A*%
X216975000Y-114681250D02*
X219175000Y-114681250D01*
X219175000Y-118681250D01*
X216975000Y-118681250D01*
X216975000Y-114681250D01*
%TO.C,SW47*%
X288177676Y-96073530D02*
X290727676Y-96073530D01*
X288177676Y-98523530D02*
X288177676Y-96073530D01*
X290727676Y-98523530D02*
X288177676Y-98523530D01*
X290727676Y-99693530D02*
X295792500Y-99693530D01*
X301677676Y-98643530D02*
X304277676Y-98643530D01*
X301677676Y-101093530D02*
X301677676Y-101533530D01*
X301677676Y-101533530D02*
X298086822Y-101533530D01*
X304277676Y-98643530D02*
X304277676Y-101093530D01*
X304277676Y-101093530D02*
X301677676Y-101093530D01*
X295792500Y-99693530D02*
G75*
G02*
X298086821Y-101533530I0J-2350410D01*
G01*
X299677676Y-95643530D02*
G75*
G02*
X301677680Y-97643530I4J-2000000D01*
G01*
%TO.C,SW30*%
X161971426Y-153223530D02*
X164521426Y-153223530D01*
X161971426Y-155673530D02*
X161971426Y-153223530D01*
X164521426Y-155673530D02*
X161971426Y-155673530D01*
X164521426Y-156843530D02*
X169586250Y-156843530D01*
X175471426Y-155793530D02*
X178071426Y-155793530D01*
X175471426Y-158243530D02*
X175471426Y-158683530D01*
X175471426Y-158683530D02*
X171880572Y-158683530D01*
X178071426Y-155793530D02*
X178071426Y-158243530D01*
X178071426Y-158243530D02*
X175471426Y-158243530D01*
X169586250Y-156843530D02*
G75*
G02*
X171880571Y-158683530I0J-2350410D01*
G01*
X173471426Y-152793530D02*
G75*
G02*
X175471430Y-154793530I4J-2000000D01*
G01*
%TO.C,RV1*%
X373936250Y-100957500D02*
X383936250Y-100957500D01*
X383936250Y-136957500D01*
X373936250Y-136957500D01*
X373936250Y-100957500D01*
%TO.C,SW45*%
X250077676Y-96073530D02*
X252627676Y-96073530D01*
X250077676Y-98523530D02*
X250077676Y-96073530D01*
X252627676Y-98523530D02*
X250077676Y-98523530D01*
X252627676Y-99693530D02*
X257692500Y-99693530D01*
X263577676Y-98643530D02*
X266177676Y-98643530D01*
X263577676Y-101093530D02*
X263577676Y-101533530D01*
X263577676Y-101533530D02*
X259986822Y-101533530D01*
X266177676Y-98643530D02*
X266177676Y-101093530D01*
X266177676Y-101093530D02*
X263577676Y-101093530D01*
X257692500Y-99693530D02*
G75*
G02*
X259986821Y-101533530I0J-2350410D01*
G01*
X261577676Y-95643530D02*
G75*
G02*
X263577680Y-97643530I4J-2000000D01*
G01*
%TO.C,SW7*%
X157208926Y-77023530D02*
X159758926Y-77023530D01*
X157208926Y-79473530D02*
X157208926Y-77023530D01*
X159758926Y-79473530D02*
X157208926Y-79473530D01*
X159758926Y-80643530D02*
X164823750Y-80643530D01*
X170708926Y-79593530D02*
X173308926Y-79593530D01*
X170708926Y-82043530D02*
X170708926Y-82483530D01*
X170708926Y-82483530D02*
X167118072Y-82483530D01*
X173308926Y-79593530D02*
X173308926Y-82043530D01*
X173308926Y-82043530D02*
X170708926Y-82043530D01*
X164823750Y-80643530D02*
G75*
G02*
X167118071Y-82483530I0J-2350410D01*
G01*
X168708926Y-76593530D02*
G75*
G02*
X170708930Y-78593530I4J-2000000D01*
G01*
%TO.C,REF\u002A\u002A*%
X216975000Y-162306250D02*
X219175000Y-162306250D01*
X219175000Y-166306250D01*
X216975000Y-166306250D01*
X216975000Y-162306250D01*
%TO.C,SW56*%
X259602676Y-134173530D02*
X262152676Y-134173530D01*
X259602676Y-136623530D02*
X259602676Y-134173530D01*
X262152676Y-136623530D02*
X259602676Y-136623530D01*
X262152676Y-137793530D02*
X267217500Y-137793530D01*
X273102676Y-136743530D02*
X275702676Y-136743530D01*
X273102676Y-139193530D02*
X273102676Y-139633530D01*
X273102676Y-139633530D02*
X269511822Y-139633530D01*
X275702676Y-136743530D02*
X275702676Y-139193530D01*
X275702676Y-139193530D02*
X273102676Y-139193530D01*
X267217500Y-137793530D02*
G75*
G02*
X269511821Y-139633530I0J-2350410D01*
G01*
X271102676Y-133743530D02*
G75*
G02*
X273102680Y-135743530I4J-2000000D01*
G01*
%TO.C,SW11*%
X104821426Y-96073530D02*
X107371426Y-96073530D01*
X104821426Y-98523530D02*
X104821426Y-96073530D01*
X107371426Y-98523530D02*
X104821426Y-98523530D01*
X107371426Y-99693530D02*
X112436250Y-99693530D01*
X118321426Y-98643530D02*
X120921426Y-98643530D01*
X118321426Y-101093530D02*
X118321426Y-101533530D01*
X118321426Y-101533530D02*
X114730572Y-101533530D01*
X120921426Y-98643530D02*
X120921426Y-101093530D01*
X120921426Y-101093530D02*
X118321426Y-101093530D01*
X112436250Y-99693530D02*
G75*
G02*
X114730571Y-101533530I0J-2350410D01*
G01*
X116321426Y-95643530D02*
G75*
G02*
X118321430Y-97643530I4J-2000000D01*
G01*
%TO.C,SW1*%
X39192500Y-97675000D02*
X39192500Y-111875000D01*
X39192500Y-97675000D02*
X56692500Y-97675000D01*
X56692500Y-111875000D02*
X39192500Y-111875000D01*
X56692500Y-111875000D02*
X56692500Y-97675000D01*
%TO.C,SW65*%
X350090176Y-153223530D02*
X352640176Y-153223530D01*
X350090176Y-155673530D02*
X350090176Y-153223530D01*
X352640176Y-155673530D02*
X350090176Y-155673530D01*
X352640176Y-156843530D02*
X357705000Y-156843530D01*
X363590176Y-155793530D02*
X366190176Y-155793530D01*
X363590176Y-158243530D02*
X363590176Y-158683530D01*
X363590176Y-158683530D02*
X359999322Y-158683530D01*
X366190176Y-155793530D02*
X366190176Y-158243530D01*
X366190176Y-158243530D02*
X363590176Y-158243530D01*
X357705000Y-156843530D02*
G75*
G02*
X359999321Y-158683530I0J-2350410D01*
G01*
X361590176Y-152793530D02*
G75*
G02*
X363590180Y-154793530I4J-2000000D01*
G01*
%TO.C,SW25*%
X152446426Y-134173530D02*
X154996426Y-134173530D01*
X152446426Y-136623530D02*
X152446426Y-134173530D01*
X154996426Y-136623530D02*
X152446426Y-136623530D01*
X154996426Y-137793530D02*
X160061250Y-137793530D01*
X165946426Y-136743530D02*
X168546426Y-136743530D01*
X165946426Y-139193530D02*
X165946426Y-139633530D01*
X165946426Y-139633530D02*
X162355572Y-139633530D01*
X168546426Y-136743530D02*
X168546426Y-139193530D01*
X168546426Y-139193530D02*
X165946426Y-139193530D01*
X160061250Y-137793530D02*
G75*
G02*
X162355571Y-139633530I0J-2350410D01*
G01*
X163946426Y-133743530D02*
G75*
G02*
X165946430Y-135743530I4J-2000000D01*
G01*
%TO.C,SW61*%
X259602676Y-153223530D02*
X262152676Y-153223530D01*
X259602676Y-155673530D02*
X259602676Y-153223530D01*
X262152676Y-155673530D02*
X259602676Y-155673530D01*
X262152676Y-156843530D02*
X267217500Y-156843530D01*
X273102676Y-155793530D02*
X275702676Y-155793530D01*
X273102676Y-158243530D02*
X273102676Y-158683530D01*
X273102676Y-158683530D02*
X269511822Y-158683530D01*
X275702676Y-155793530D02*
X275702676Y-158243530D01*
X275702676Y-158243530D02*
X273102676Y-158243530D01*
X267217500Y-156843530D02*
G75*
G02*
X269511821Y-158683530I0J-2350410D01*
G01*
X271102676Y-152793530D02*
G75*
G02*
X273102680Y-154793530I4J-2000000D01*
G01*
%TO.C,SW27*%
X104821426Y-153223530D02*
X107371426Y-153223530D01*
X104821426Y-155673530D02*
X104821426Y-153223530D01*
X107371426Y-155673530D02*
X104821426Y-155673530D01*
X107371426Y-156843530D02*
X112436250Y-156843530D01*
X118321426Y-155793530D02*
X120921426Y-155793530D01*
X118321426Y-158243530D02*
X118321426Y-158683530D01*
X118321426Y-158683530D02*
X114730572Y-158683530D01*
X120921426Y-155793530D02*
X120921426Y-158243530D01*
X120921426Y-158243530D02*
X118321426Y-158243530D01*
X112436250Y-156843530D02*
G75*
G02*
X114730571Y-158683530I0J-2350410D01*
G01*
X116321426Y-152793530D02*
G75*
G02*
X118321430Y-154793530I4J-2000000D01*
G01*
%TO.C,SW58*%
X297702676Y-134173530D02*
X300252676Y-134173530D01*
X297702676Y-136623530D02*
X297702676Y-134173530D01*
X300252676Y-136623530D02*
X297702676Y-136623530D01*
X300252676Y-137793530D02*
X305317500Y-137793530D01*
X311202676Y-136743530D02*
X313802676Y-136743530D01*
X311202676Y-139193530D02*
X311202676Y-139633530D01*
X311202676Y-139633530D02*
X307611822Y-139633530D01*
X313802676Y-136743530D02*
X313802676Y-139193530D01*
X313802676Y-139193530D02*
X311202676Y-139193530D01*
X305317500Y-137793530D02*
G75*
G02*
X307611821Y-139633530I0J-2350410D01*
G01*
X309202676Y-133743530D02*
G75*
G02*
X311202680Y-135743530I4J-2000000D01*
G01*
%TO.C,SW34*%
X69102676Y-134173530D02*
X71652676Y-134173530D01*
X69102676Y-136623530D02*
X69102676Y-134173530D01*
X71652676Y-133743530D02*
X71652676Y-134173530D01*
X71652676Y-136623530D02*
X69102676Y-136623530D01*
X71652676Y-136623530D02*
X71652676Y-137793530D01*
X71652676Y-137793530D02*
X76717500Y-137793530D01*
X80602676Y-133743530D02*
X71652676Y-133743530D01*
X82602676Y-136743530D02*
X82602676Y-135743530D01*
X82602676Y-136743530D02*
X85202676Y-136743530D01*
X82602676Y-139193530D02*
X82602676Y-139633530D01*
X82602676Y-139633530D02*
X79011822Y-139633530D01*
X85202676Y-136743530D02*
X85202676Y-139193530D01*
X85202676Y-139193530D02*
X82602676Y-139193530D01*
X76717500Y-137793530D02*
G75*
G02*
X79011821Y-139633530I0J-2350410D01*
G01*
X80602676Y-133743530D02*
G75*
G02*
X82602680Y-135743530I4J-2000000D01*
G01*
%TO.C,SW22*%
X95296426Y-134173530D02*
X97846426Y-134173530D01*
X95296426Y-136623530D02*
X95296426Y-134173530D01*
X97846426Y-136623530D02*
X95296426Y-136623530D01*
X97846426Y-137793530D02*
X102911250Y-137793530D01*
X108796426Y-136743530D02*
X111396426Y-136743530D01*
X108796426Y-139193530D02*
X108796426Y-139633530D01*
X108796426Y-139633530D02*
X105205572Y-139633530D01*
X111396426Y-136743530D02*
X111396426Y-139193530D01*
X111396426Y-139193530D02*
X108796426Y-139193530D01*
X102911250Y-137793530D02*
G75*
G02*
X105205571Y-139633530I0J-2350410D01*
G01*
X106796426Y-133743530D02*
G75*
G02*
X108796430Y-135743530I4J-2000000D01*
G01*
%TO.C,SW64*%
X331040176Y-153223530D02*
X333590176Y-153223530D01*
X331040176Y-155673530D02*
X331040176Y-153223530D01*
X333590176Y-155673530D02*
X331040176Y-155673530D01*
X333590176Y-156843530D02*
X338655000Y-156843530D01*
X344540176Y-155793530D02*
X347140176Y-155793530D01*
X344540176Y-158243530D02*
X344540176Y-158683530D01*
X344540176Y-158683530D02*
X340949322Y-158683530D01*
X347140176Y-155793530D02*
X347140176Y-158243530D01*
X347140176Y-158243530D02*
X344540176Y-158243530D01*
X338655000Y-156843530D02*
G75*
G02*
X340949321Y-158683530I0J-2350410D01*
G01*
X342540176Y-152793530D02*
G75*
G02*
X344540180Y-154793530I4J-2000000D01*
G01*
%TO.C,SW3*%
X81008926Y-77023530D02*
X83558926Y-77023530D01*
X81008926Y-79473530D02*
X81008926Y-77023530D01*
X83558926Y-79473530D02*
X81008926Y-79473530D01*
X83558926Y-80643530D02*
X88623750Y-80643530D01*
X94508926Y-79593530D02*
X97108926Y-79593530D01*
X94508926Y-82043530D02*
X94508926Y-82483530D01*
X94508926Y-82483530D02*
X90918072Y-82483530D01*
X97108926Y-79593530D02*
X97108926Y-82043530D01*
X97108926Y-82043530D02*
X94508926Y-82043530D01*
X88623750Y-80643530D02*
G75*
G02*
X90918071Y-82483530I0J-2350410D01*
G01*
X92508926Y-76593530D02*
G75*
G02*
X94508930Y-78593530I4J-2000000D01*
G01*
%TO.C,SW60*%
X335802676Y-134173530D02*
X338352676Y-134173530D01*
X335802676Y-136623530D02*
X335802676Y-134173530D01*
X338352676Y-136623530D02*
X335802676Y-136623530D01*
X338352676Y-137793530D02*
X343417500Y-137793530D01*
X349302676Y-136743530D02*
X351902676Y-136743530D01*
X349302676Y-139193530D02*
X349302676Y-139633530D01*
X349302676Y-139633530D02*
X345711822Y-139633530D01*
X351902676Y-136743530D02*
X351902676Y-139193530D01*
X351902676Y-139193530D02*
X349302676Y-139193530D01*
X343417500Y-137793530D02*
G75*
G02*
X345711821Y-139633530I0J-2350410D01*
G01*
X347302676Y-133743530D02*
G75*
G02*
X349302680Y-135743530I4J-2000000D01*
G01*
%TO.C,SW43*%
X321515176Y-77023530D02*
X324065176Y-77023530D01*
X321515176Y-79473530D02*
X321515176Y-77023530D01*
X324065176Y-79473530D02*
X321515176Y-79473530D01*
X324065176Y-80643530D02*
X329130000Y-80643530D01*
X335015176Y-79593530D02*
X337615176Y-79593530D01*
X335015176Y-82043530D02*
X335015176Y-82483530D01*
X335015176Y-82483530D02*
X331424322Y-82483530D01*
X337615176Y-79593530D02*
X337615176Y-82043530D01*
X337615176Y-82043530D02*
X335015176Y-82043530D01*
X329130000Y-80643530D02*
G75*
G02*
X331424321Y-82483530I0J-2350410D01*
G01*
X333015176Y-76593530D02*
G75*
G02*
X335015180Y-78593530I4J-2000000D01*
G01*
%TO.C,SW16*%
X90533926Y-115123530D02*
X93083926Y-115123530D01*
X90533926Y-117573530D02*
X90533926Y-115123530D01*
X93083926Y-117573530D02*
X90533926Y-117573530D01*
X93083926Y-118743530D02*
X98148750Y-118743530D01*
X104033926Y-117693530D02*
X106633926Y-117693530D01*
X104033926Y-120143530D02*
X104033926Y-120583530D01*
X104033926Y-120583530D02*
X100443072Y-120583530D01*
X106633926Y-117693530D02*
X106633926Y-120143530D01*
X106633926Y-120143530D02*
X104033926Y-120143530D01*
X98148750Y-118743530D02*
G75*
G02*
X100443071Y-120583530I0J-2350410D01*
G01*
X102033926Y-114693530D02*
G75*
G02*
X104033930Y-116693530I4J-2000000D01*
G01*
%TO.C,SW24*%
X133396426Y-134173530D02*
X135946426Y-134173530D01*
X133396426Y-136623530D02*
X133396426Y-134173530D01*
X135946426Y-136623530D02*
X133396426Y-136623530D01*
X135946426Y-137793530D02*
X141011250Y-137793530D01*
X146896426Y-136743530D02*
X149496426Y-136743530D01*
X146896426Y-139193530D02*
X146896426Y-139633530D01*
X146896426Y-139633530D02*
X143305572Y-139633530D01*
X149496426Y-136743530D02*
X149496426Y-139193530D01*
X149496426Y-139193530D02*
X146896426Y-139193530D01*
X141011250Y-137793530D02*
G75*
G02*
X143305571Y-139633530I0J-2350410D01*
G01*
X144896426Y-133743530D02*
G75*
G02*
X146896430Y-135743530I4J-2000000D01*
G01*
%TO.C,SW17*%
X109583926Y-115123530D02*
X112133926Y-115123530D01*
X109583926Y-117573530D02*
X109583926Y-115123530D01*
X112133926Y-117573530D02*
X109583926Y-117573530D01*
X112133926Y-118743530D02*
X117198750Y-118743530D01*
X123083926Y-117693530D02*
X125683926Y-117693530D01*
X123083926Y-120143530D02*
X123083926Y-120583530D01*
X123083926Y-120583530D02*
X119493072Y-120583530D01*
X125683926Y-117693530D02*
X125683926Y-120143530D01*
X125683926Y-120143530D02*
X123083926Y-120143530D01*
X117198750Y-118743530D02*
G75*
G02*
X119493071Y-120583530I0J-2350410D01*
G01*
X121083926Y-114693530D02*
G75*
G02*
X123083930Y-116693530I4J-2000000D01*
G01*
%TO.C,SW21*%
X185783926Y-115123530D02*
X188333926Y-115123530D01*
X185783926Y-117573530D02*
X185783926Y-115123530D01*
X188333926Y-117573530D02*
X185783926Y-117573530D01*
X188333926Y-118743530D02*
X193398750Y-118743530D01*
X199283926Y-117693530D02*
X201883926Y-117693530D01*
X199283926Y-120143530D02*
X199283926Y-120583530D01*
X199283926Y-120583530D02*
X195693072Y-120583530D01*
X201883926Y-117693530D02*
X201883926Y-120143530D01*
X201883926Y-120143530D02*
X199283926Y-120143530D01*
X193398750Y-118743530D02*
G75*
G02*
X195693071Y-120583530I0J-2350410D01*
G01*
X197283926Y-114693530D02*
G75*
G02*
X199283930Y-116693530I4J-2000000D01*
G01*
%TO.C,SW69*%
X347708926Y-96073530D02*
X350258926Y-96073530D01*
X347708926Y-98523530D02*
X347708926Y-96073530D01*
X350258926Y-95643530D02*
X350258926Y-96073530D01*
X350258926Y-98523530D02*
X347708926Y-98523530D01*
X350258926Y-98523530D02*
X350258926Y-99693530D01*
X350258926Y-99693530D02*
X355323750Y-99693530D01*
X359208926Y-95643530D02*
X350258926Y-95643530D01*
X361208926Y-98643530D02*
X361208926Y-97643530D01*
X361208926Y-98643530D02*
X363808926Y-98643530D01*
X361208926Y-101093530D02*
X361208926Y-101533530D01*
X361208926Y-101533530D02*
X357618072Y-101533530D01*
X363808926Y-98643530D02*
X363808926Y-101093530D01*
X363808926Y-101093530D02*
X361208926Y-101093530D01*
X355323750Y-99693530D02*
G75*
G02*
X357618071Y-101533530I0J-2350410D01*
G01*
X359208926Y-95643530D02*
G75*
G02*
X361208930Y-97643530I4J-2000000D01*
G01*
%TO.C,SW49*%
X326277676Y-96073530D02*
X328827676Y-96073530D01*
X326277676Y-98523530D02*
X326277676Y-96073530D01*
X328827676Y-98523530D02*
X326277676Y-98523530D01*
X328827676Y-99693530D02*
X333892500Y-99693530D01*
X339777676Y-98643530D02*
X342377676Y-98643530D01*
X339777676Y-101093530D02*
X339777676Y-101533530D01*
X339777676Y-101533530D02*
X336186822Y-101533530D01*
X342377676Y-98643530D02*
X342377676Y-101093530D01*
X342377676Y-101093530D02*
X339777676Y-101093530D01*
X333892500Y-99693530D02*
G75*
G02*
X336186821Y-101533530I0J-2350410D01*
G01*
X337777676Y-95643530D02*
G75*
G02*
X339777680Y-97643530I4J-2000000D01*
G01*
%TO.C,SW62*%
X278652676Y-153223530D02*
X281202676Y-153223530D01*
X278652676Y-155673530D02*
X278652676Y-153223530D01*
X281202676Y-155673530D02*
X278652676Y-155673530D01*
X281202676Y-156843530D02*
X286267500Y-156843530D01*
X292152676Y-155793530D02*
X294752676Y-155793530D01*
X292152676Y-158243530D02*
X292152676Y-158683530D01*
X292152676Y-158683530D02*
X288561822Y-158683530D01*
X294752676Y-155793530D02*
X294752676Y-158243530D01*
X294752676Y-158243530D02*
X292152676Y-158243530D01*
X286267500Y-156843530D02*
G75*
G02*
X288561821Y-158683530I0J-2350410D01*
G01*
X290152676Y-152793530D02*
G75*
G02*
X292152680Y-154793530I4J-2000000D01*
G01*
%TD*%
M02*
